<?xml version="1.0" encoding="utf-8" standalone="no"?>
<!DOCTYPE svg PUBLIC "-//W3C//DTD SVG 1.1//EN"
  "http://www.w3.org/Graphics/SVG/1.1/DTD/svg11.dtd">
<svg xmlns:xlink="http://www.w3.org/1999/xlink" width="784.129249pt" height="280.236563pt" viewBox="0 0 784.129249 280.236563" xmlns="http://www.w3.org/2000/svg" version="1.1">
 <metadata>
  <rdf:RDF xmlns:dc="http://purl.org/dc/elements/1.1/" xmlns:cc="http://creativecommons.org/ns#" xmlns:rdf="http://www.w3.org/1999/02/22-rdf-syntax-ns#">
   <cc:Work>
    <dc:type rdf:resource="http://purl.org/dc/dcmitype/StillImage"/>
    <dc:date>2026-07-01T13:01:36.750500</dc:date>
    <dc:format>image/svg+xml</dc:format>
    <dc:creator>
     <cc:Agent>
      <dc:title>Matplotlib v3.11.0, https://matplotlib.org/</dc:title>
     </cc:Agent>
    </dc:creator>
   </cc:Work>
  </rdf:RDF>
 </metadata>
 <defs>
  <style type="text/css">*{stroke-linejoin: round; stroke-linecap: butt}</style>
 </defs>
 <g id="figure_1">
  <g id="patch_1">
   <path d="M 0 280.236563 
L 784.129249 280.236563 
L 784.129249 0 
L 0 0 
z
" style="fill: #ffffff"/>
  </g>
  <g id="axes_1">
   <g id="patch_2">
    <path d="M 49.190625 242.035781 
L 397.976083 242.035781 
L 397.976083 22.318125 
L 49.190625 22.318125 
z
" style="fill: #ffffff"/>
   </g>
   <g id="patch_3">
    <path d="M 52.256269 242.035781 
L 65.292135 242.035781 
L 65.292135 226.301415 
L 52.256269 226.301415 
z
" clip-path="url(#p519a5b670d)" style="fill: #6b8e9f; opacity: 0.75"/>
   </g>
   <g id="patch_4">
    <path d="M 65.292135 242.035781 
L 78.328002 242.035781 
L 78.328002 130.534313 
L 65.292135 130.534313 
z
" clip-path="url(#p519a5b670d)" style="fill: #6b8e9f; opacity: 0.75"/>
   </g>
   <g id="patch_5">
    <path d="M 78.328002 242.035781 
L 91.363869 242.035781 
L 91.363869 51.538181 
L 78.328002 51.538181 
z
" clip-path="url(#p519a5b670d)" style="fill: #6b8e9f; opacity: 0.75"/>
   </g>
   <g id="patch_6">
    <path d="M 91.363869 242.035781 
L 104.399735 242.035781 
L 104.399735 32.780871 
L 91.363869 32.780871 
z
" clip-path="url(#p519a5b670d)" style="fill: #6b8e9f; opacity: 0.75"/>
   </g>
   <g id="patch_7">
    <path d="M 104.399735 242.035781 
L 117.435602 242.035781 
L 117.435602 50.212024 
L 104.399735 50.212024 
z
" clip-path="url(#p519a5b670d)" style="fill: #6b8e9f; opacity: 0.75"/>
   </g>
   <g id="patch_8">
    <path d="M 117.435602 242.035781 
L 130.471469 242.035781 
L 130.471469 83.024287 
L 117.435602 83.024287 
z
" clip-path="url(#p519a5b670d)" style="fill: #6b8e9f; opacity: 0.75"/>
   </g>
   <g id="patch_9">
    <path d="M 130.471469 242.035781 
L 143.507336 242.035781 
L 143.507336 116.595182 
L 130.471469 116.595182 
z
" clip-path="url(#p519a5b670d)" style="fill: #6b8e9f; opacity: 0.75"/>
   </g>
   <g id="patch_10">
    <path d="M 143.507336 242.035781 
L 156.543202 242.035781 
L 156.543202 144.438698 
L 143.507336 144.438698 
z
" clip-path="url(#p519a5b670d)" style="fill: #6b8e9f; opacity: 0.75"/>
   </g>
   <g id="patch_11">
    <path d="M 156.543202 242.035781 
L 169.579069 242.035781 
L 169.579069 165.50665 
L 156.543202 165.50665 
z
" clip-path="url(#p519a5b670d)" style="fill: #6b8e9f; opacity: 0.75"/>
   </g>
   <g id="patch_12">
    <path d="M 169.579069 242.035781 
L 182.614936 242.035781 
L 182.614936 183.487955 
L 169.579069 183.487955 
z
" clip-path="url(#p519a5b670d)" style="fill: #6b8e9f; opacity: 0.75"/>
   </g>
   <g id="patch_13">
    <path d="M 182.614936 242.035781 
L 195.650803 242.035781 
L 195.650803 196.726366 
L 182.614936 196.726366 
z
" clip-path="url(#p519a5b670d)" style="fill: #6b8e9f; opacity: 0.75"/>
   </g>
   <g id="patch_14">
    <path d="M 195.650803 242.035781 
L 208.686669 242.035781 
L 208.686669 207.399327 
L 195.650803 207.399327 
z
" clip-path="url(#p519a5b670d)" style="fill: #6b8e9f; opacity: 0.75"/>
   </g>
   <g id="patch_15">
    <path d="M 208.686669 242.035781 
L 221.722536 242.035781 
L 221.722536 214.985643 
L 208.686669 214.985643 
z
" clip-path="url(#p519a5b670d)" style="fill: #6b8e9f; opacity: 0.75"/>
   </g>
   <g id="patch_16">
    <path d="M 221.722536 242.035781 
L 234.758403 242.035781 
L 234.758403 220.852008 
L 221.722536 220.852008 
z
" clip-path="url(#p519a5b670d)" style="fill: #6b8e9f; opacity: 0.75"/>
   </g>
   <g id="patch_17">
    <path d="M 234.758403 242.035781 
L 247.79427 242.035781 
L 247.79427 225.896039 
L 234.758403 225.896039 
z
" clip-path="url(#p519a5b670d)" style="fill: #6b8e9f; opacity: 0.75"/>
   </g>
   <g id="patch_18">
    <path d="M 247.79427 242.035781 
L 260.830136 242.035781 
L 260.830136 228.95373 
L 247.79427 228.95373 
z
" clip-path="url(#p519a5b670d)" style="fill: #6b8e9f; opacity: 0.75"/>
   </g>
   <g id="patch_19">
    <path d="M 260.830136 242.035781 
L 273.866003 242.035781 
L 273.866003 231.339655 
L 260.830136 231.339655 
z
" clip-path="url(#p519a5b670d)" style="fill: #6b8e9f; opacity: 0.75"/>
   </g>
   <g id="patch_20">
    <path d="M 273.866003 242.035781 
L 286.90187 242.035781 
L 286.90187 233.980388 
L 273.866003 233.980388 
z
" clip-path="url(#p519a5b670d)" style="fill: #6b8e9f; opacity: 0.75"/>
   </g>
   <g id="patch_21">
    <path d="M 286.90187 242.035781 
L 299.937737 242.035781 
L 299.937737 235.184933 
L 286.90187 235.184933 
z
" clip-path="url(#p519a5b670d)" style="fill: #6b8e9f; opacity: 0.75"/>
   </g>
   <g id="patch_22">
    <path d="M 299.937737 242.035781 
L 312.973603 242.035781 
L 312.973603 236.742733 
L 299.937737 236.742733 
z
" clip-path="url(#p519a5b670d)" style="fill: #6b8e9f; opacity: 0.75"/>
   </g>
   <g id="patch_23">
    <path d="M 312.973603 242.035781 
L 326.00947 242.035781 
L 326.00947 237.95886 
L 312.973603 237.95886 
z
" clip-path="url(#p519a5b670d)" style="fill: #6b8e9f; opacity: 0.75"/>
   </g>
   <g id="patch_24">
    <path d="M 326.00947 242.035781 
L 339.045337 242.035781 
L 339.045337 238.786985 
L 326.00947 238.786985 
z
" clip-path="url(#p519a5b670d)" style="fill: #6b8e9f; opacity: 0.75"/>
   </g>
   <g id="patch_25">
    <path d="M 339.045337 242.035781 
L 352.081204 242.035781 
L 352.081204 239.313973 
L 339.045337 239.313973 
z
" clip-path="url(#p519a5b670d)" style="fill: #6b8e9f; opacity: 0.75"/>
   </g>
   <g id="patch_26">
    <path d="M 352.081204 242.035781 
L 365.11707 242.035781 
L 365.11707 239.771469 
L 352.081204 239.771469 
z
" clip-path="url(#p519a5b670d)" style="fill: #6b8e9f; opacity: 0.75"/>
   </g>
   <g id="patch_27">
    <path d="M 365.11707 242.035781 
L 378.152937 242.035781 
L 378.152937 240.089978 
L 365.11707 240.089978 
z
" clip-path="url(#p519a5b670d)" style="fill: #6b8e9f; opacity: 0.75"/>
   </g>
   <g id="patch_28">
    <path d="M 378.152937 242.035781 
L 391.188804 242.035781 
L 391.188804 240.645922 
L 378.152937 240.645922 
z
" clip-path="url(#p519a5b670d)" style="fill: #6b8e9f; opacity: 0.75"/>
   </g>
   <g id="patch_29">
    <path d="M 391.188804 242.035781 
L 404.22467 242.035781 
L 404.22467 240.784908 
L 391.188804 240.784908 
z
" clip-path="url(#p519a5b670d)" style="fill: #6b8e9f; opacity: 0.75"/>
   </g>
   <g id="patch_30">
    <path d="M 404.22467 242.035781 
L 417.260537 242.035781 
L 417.260537 241.039715 
L 404.22467 241.039715 
z
" clip-path="url(#p519a5b670d)" style="fill: #6b8e9f; opacity: 0.75"/>
   </g>
   <g id="patch_31">
    <path d="M 417.260537 242.035781 
L 430.296404 242.035781 
L 430.296404 241.097626 
L 417.260537 241.097626 
z
" clip-path="url(#p519a5b670d)" style="fill: #6b8e9f; opacity: 0.75"/>
   </g>
   <g id="patch_32">
    <path d="M 430.296404 242.035781 
L 443.332271 242.035781 
L 443.332271 241.306105 
L 430.296404 241.306105 
z
" clip-path="url(#p519a5b670d)" style="fill: #6b8e9f; opacity: 0.75"/>
   </g>
   <g id="patch_33">
    <path d="M 443.332271 242.035781 
L 456.368137 242.035781 
L 456.368137 241.474046 
L 443.332271 241.474046 
z
" clip-path="url(#p519a5b670d)" style="fill: #6b8e9f; opacity: 0.75"/>
   </g>
   <g id="patch_34">
    <path d="M 456.368137 242.035781 
L 469.404004 242.035781 
L 469.404004 241.54933 
L 456.368137 241.54933 
z
" clip-path="url(#p519a5b670d)" style="fill: #6b8e9f; opacity: 0.75"/>
   </g>
   <g id="patch_35">
    <path d="M 469.404004 242.035781 
L 482.439871 242.035781 
L 482.439871 241.647779 
L 469.404004 241.647779 
z
" clip-path="url(#p519a5b670d)" style="fill: #6b8e9f; opacity: 0.75"/>
   </g>
   <g id="patch_36">
    <path d="M 482.439871 242.035781 
L 495.475738 242.035781 
L 495.475738 241.688316 
L 482.439871 241.688316 
z
" clip-path="url(#p519a5b670d)" style="fill: #6b8e9f; opacity: 0.75"/>
   </g>
   <g id="patch_37">
    <path d="M 495.475738 242.035781 
L 508.511604 242.035781 
L 508.511604 241.717272 
L 495.475738 241.717272 
z
" clip-path="url(#p519a5b670d)" style="fill: #6b8e9f; opacity: 0.75"/>
   </g>
   <g id="patch_38">
    <path d="M 508.511604 242.035781 
L 521.547471 242.035781 
L 521.547471 241.792556 
L 508.511604 241.792556 
z
" clip-path="url(#p519a5b670d)" style="fill: #6b8e9f; opacity: 0.75"/>
   </g>
   <g id="patch_39">
    <path d="M 521.547471 242.035781 
L 534.583338 242.035781 
L 534.583338 241.809929 
L 521.547471 241.809929 
z
" clip-path="url(#p519a5b670d)" style="fill: #6b8e9f; opacity: 0.75"/>
   </g>
   <g id="patch_40">
    <path d="M 534.583338 242.035781 
L 547.619205 242.035781 
L 547.619205 241.809929 
L 534.583338 241.809929 
z
" clip-path="url(#p519a5b670d)" style="fill: #6b8e9f; opacity: 0.75"/>
   </g>
   <g id="patch_41">
    <path d="M 547.619205 242.035781 
L 560.655071 242.035781 
L 560.655071 241.873631 
L 547.619205 241.873631 
z
" clip-path="url(#p519a5b670d)" style="fill: #6b8e9f; opacity: 0.75"/>
   </g>
   <g id="patch_42">
    <path d="M 560.655071 242.035781 
L 573.690938 242.035781 
L 573.690938 241.925751 
L 560.655071 241.925751 
z
" clip-path="url(#p519a5b670d)" style="fill: #6b8e9f; opacity: 0.75"/>
   </g>
   <g id="patch_43">
    <path d="M 573.690938 242.035781 
L 586.726805 242.035781 
L 586.726805 241.914169 
L 573.690938 241.914169 
z
" clip-path="url(#p519a5b670d)" style="fill: #6b8e9f; opacity: 0.75"/>
   </g>
   <g id="patch_44">
    <path d="M 586.726805 242.035781 
L 599.762672 242.035781 
L 599.762672 241.931542 
L 586.726805 241.931542 
z
" clip-path="url(#p519a5b670d)" style="fill: #6b8e9f; opacity: 0.75"/>
   </g>
   <g id="patch_45">
    <path d="M 599.762672 242.035781 
L 612.798538 242.035781 
L 612.798538 241.954706 
L 599.762672 241.954706 
z
" clip-path="url(#p519a5b670d)" style="fill: #6b8e9f; opacity: 0.75"/>
   </g>
   <g id="patch_46">
    <path d="M 612.798538 242.035781 
L 625.834405 242.035781 
L 625.834405 241.983662 
L 612.798538 241.983662 
z
" clip-path="url(#p519a5b670d)" style="fill: #6b8e9f; opacity: 0.75"/>
   </g>
   <g id="patch_47">
    <path d="M 625.834405 242.035781 
L 638.870272 242.035781 
L 638.870272 241.966288 
L 625.834405 241.966288 
z
" clip-path="url(#p519a5b670d)" style="fill: #6b8e9f; opacity: 0.75"/>
   </g>
   <g id="patch_48">
    <path d="M 638.870272 242.035781 
L 651.906139 242.035781 
L 651.906139 242.001035 
L 638.870272 242.001035 
z
" clip-path="url(#p519a5b670d)" style="fill: #6b8e9f; opacity: 0.75"/>
   </g>
   <g id="patch_49">
    <path d="M 651.906139 242.035781 
L 664.942005 242.035781 
L 664.942005 241.954706 
L 651.906139 241.954706 
z
" clip-path="url(#p519a5b670d)" style="fill: #6b8e9f; opacity: 0.75"/>
   </g>
   <g id="patch_50">
    <path d="M 664.942005 242.035781 
L 677.977872 242.035781 
L 677.977872 241.995244 
L 664.942005 241.995244 
z
" clip-path="url(#p519a5b670d)" style="fill: #6b8e9f; opacity: 0.75"/>
   </g>
   <g id="patch_51">
    <path d="M 677.977872 242.035781 
L 691.013739 242.035781 
L 691.013739 241.983662 
L 677.977872 241.983662 
z
" clip-path="url(#p519a5b670d)" style="fill: #6b8e9f; opacity: 0.75"/>
   </g>
   <g id="patch_52">
    <path d="M 691.013739 242.035781 
L 704.049605 242.035781 
L 704.049605 242.006826 
L 691.013739 242.006826 
z
" clip-path="url(#p519a5b670d)" style="fill: #6b8e9f; opacity: 0.75"/>
   </g>
   <g id="patch_53">
    <path d="M 704.049605 242.035781 
L 717.085472 242.035781 
L 717.085472 242.006826 
L 704.049605 242.006826 
z
" clip-path="url(#p519a5b670d)" style="fill: #6b8e9f; opacity: 0.75"/>
   </g>
   <g id="patch_54">
    <path d="M 717.085472 242.035781 
L 730.121339 242.035781 
L 730.121339 241.995244 
L 717.085472 241.995244 
z
" clip-path="url(#p519a5b670d)" style="fill: #6b8e9f; opacity: 0.75"/>
   </g>
   <g id="patch_55">
    <path d="M 730.121339 242.035781 
L 743.157206 242.035781 
L 743.157206 242.02999 
L 730.121339 242.02999 
z
" clip-path="url(#p519a5b670d)" style="fill: #6b8e9f; opacity: 0.75"/>
   </g>
   <g id="patch_56">
    <path d="M 743.157206 242.035781 
L 756.193072 242.035781 
L 756.193072 242.018408 
L 743.157206 242.018408 
z
" clip-path="url(#p519a5b670d)" style="fill: #6b8e9f; opacity: 0.75"/>
   </g>
   <g id="patch_57">
    <path d="M 756.193072 242.035781 
L 769.228939 242.035781 
L 769.228939 242.012617 
L 756.193072 242.012617 
z
" clip-path="url(#p519a5b670d)" style="fill: #6b8e9f; opacity: 0.75"/>
   </g>
   <g id="patch_58">
    <path d="M 769.228939 242.035781 
L 782.264806 242.035781 
L 782.264806 242.024199 
L 769.228939 242.024199 
z
" clip-path="url(#p519a5b670d)" style="fill: #6b8e9f; opacity: 0.75"/>
   </g>
   <g id="patch_59">
    <path d="M 782.264806 242.035781 
L 795.300673 242.035781 
L 795.300673 242.035781 
L 782.264806 242.035781 
z
" clip-path="url(#p519a5b670d)" style="fill: #6b8e9f; opacity: 0.75"/>
   </g>
   <g id="patch_60">
    <path d="M 795.300673 242.035781 
L 808.336539 242.035781 
L 808.336539 242.02999 
L 795.300673 242.02999 
z
" clip-path="url(#p519a5b670d)" style="fill: #6b8e9f; opacity: 0.75"/>
   </g>
   <g id="patch_61">
    <path d="M 808.336539 242.035781 
L 821.372406 242.035781 
L 821.372406 242.02999 
L 808.336539 242.02999 
z
" clip-path="url(#p519a5b670d)" style="fill: #6b8e9f; opacity: 0.75"/>
   </g>
   <g id="patch_62">
    <path d="M 821.372406 242.035781 
L 834.408273 242.035781 
L 834.408273 242.035781 
L 821.372406 242.035781 
z
" clip-path="url(#p519a5b670d)" style="fill: #6b8e9f; opacity: 0.75"/>
   </g>
   <g id="patch_63">
    <path d="M 834.408273 242.035781 
L 847.44414 242.035781 
L 847.44414 242.024199 
L 834.408273 242.024199 
z
" clip-path="url(#p519a5b670d)" style="fill: #6b8e9f; opacity: 0.75"/>
   </g>
   <g id="patch_64">
    <path d="M 847.44414 242.035781 
L 860.480006 242.035781 
L 860.480006 242.024199 
L 847.44414 242.024199 
z
" clip-path="url(#p519a5b670d)" style="fill: #6b8e9f; opacity: 0.75"/>
   </g>
   <g id="patch_65">
    <path d="M 860.480006 242.035781 
L 873.515873 242.035781 
L 873.515873 242.02999 
L 860.480006 242.02999 
z
" clip-path="url(#p519a5b670d)" style="fill: #6b8e9f; opacity: 0.75"/>
   </g>
   <g id="patch_66">
    <path d="M 873.515873 242.035781 
L 886.55174 242.035781 
L 886.55174 242.035781 
L 873.515873 242.035781 
z
" clip-path="url(#p519a5b670d)" style="fill: #6b8e9f; opacity: 0.75"/>
   </g>
   <g id="patch_67">
    <path d="M 886.55174 242.035781 
L 899.587607 242.035781 
L 899.587607 242.02999 
L 886.55174 242.02999 
z
" clip-path="url(#p519a5b670d)" style="fill: #6b8e9f; opacity: 0.75"/>
   </g>
   <g id="patch_68">
    <path d="M 899.587607 242.035781 
L 912.623473 242.035781 
L 912.623473 242.035781 
L 899.587607 242.035781 
z
" clip-path="url(#p519a5b670d)" style="fill: #6b8e9f; opacity: 0.75"/>
   </g>
   <g id="patch_69">
    <path d="M 912.623473 242.035781 
L 925.65934 242.035781 
L 925.65934 242.035781 
L 912.623473 242.035781 
z
" clip-path="url(#p519a5b670d)" style="fill: #6b8e9f; opacity: 0.75"/>
   </g>
   <g id="patch_70">
    <path d="M 925.65934 242.035781 
L 938.695207 242.035781 
L 938.695207 242.035781 
L 925.65934 242.035781 
z
" clip-path="url(#p519a5b670d)" style="fill: #6b8e9f; opacity: 0.75"/>
   </g>
   <g id="patch_71">
    <path d="M 938.695207 242.035781 
L 951.731074 242.035781 
L 951.731074 242.035781 
L 938.695207 242.035781 
z
" clip-path="url(#p519a5b670d)" style="fill: #6b8e9f; opacity: 0.75"/>
   </g>
   <g id="patch_72">
    <path d="M 951.731074 242.035781 
L 964.76694 242.035781 
L 964.76694 242.018408 
L 951.731074 242.018408 
z
" clip-path="url(#p519a5b670d)" style="fill: #6b8e9f; opacity: 0.75"/>
   </g>
   <g id="patch_73">
    <path d="M 964.76694 242.035781 
L 977.802807 242.035781 
L 977.802807 242.018408 
L 964.76694 242.018408 
z
" clip-path="url(#p519a5b670d)" style="fill: #6b8e9f; opacity: 0.75"/>
   </g>
   <g id="patch_74">
    <path d="M 977.802807 242.035781 
L 990.838674 242.035781 
L 990.838674 242.024199 
L 977.802807 242.024199 
z
" clip-path="url(#p519a5b670d)" style="fill: #6b8e9f; opacity: 0.75"/>
   </g>
   <g id="patch_75">
    <path d="M 990.838674 242.035781 
L 1003.874541 242.035781 
L 1003.874541 242.02999 
L 990.838674 242.02999 
z
" clip-path="url(#p519a5b670d)" style="fill: #6b8e9f; opacity: 0.75"/>
   </g>
   <g id="patch_76">
    <path d="M 1003.874541 242.035781 
L 1016.910407 242.035781 
L 1016.910407 242.035781 
L 1003.874541 242.035781 
z
" clip-path="url(#p519a5b670d)" style="fill: #6b8e9f; opacity: 0.75"/>
   </g>
   <g id="patch_77">
    <path d="M 1016.910407 242.035781 
L 1029.946274 242.035781 
L 1029.946274 242.02999 
L 1016.910407 242.02999 
z
" clip-path="url(#p519a5b670d)" style="fill: #6b8e9f; opacity: 0.75"/>
   </g>
   <g id="patch_78">
    <path d="M 1029.946274 242.035781 
L 1042.982141 242.035781 
L 1042.982141 242.035781 
L 1029.946274 242.035781 
z
" clip-path="url(#p519a5b670d)" style="fill: #6b8e9f; opacity: 0.75"/>
   </g>
   <g id="patch_79">
    <path d="M 1042.982141 242.035781 
L 1056.018007 242.035781 
L 1056.018007 242.035781 
L 1042.982141 242.035781 
z
" clip-path="url(#p519a5b670d)" style="fill: #6b8e9f; opacity: 0.75"/>
   </g>
   <g id="patch_80">
    <path d="M 1056.018007 242.035781 
L 1069.053874 242.035781 
L 1069.053874 242.035781 
L 1056.018007 242.035781 
z
" clip-path="url(#p519a5b670d)" style="fill: #6b8e9f; opacity: 0.75"/>
   </g>
   <g id="patch_81">
    <path d="M 1069.053874 242.035781 
L 1082.089741 242.035781 
L 1082.089741 242.035781 
L 1069.053874 242.035781 
z
" clip-path="url(#p519a5b670d)" style="fill: #6b8e9f; opacity: 0.75"/>
   </g>
   <g id="patch_82">
    <path d="M 1082.089741 242.035781 
L 1095.125608 242.035781 
L 1095.125608 242.035781 
L 1082.089741 242.035781 
z
" clip-path="url(#p519a5b670d)" style="fill: #6b8e9f; opacity: 0.75"/>
   </g>
   <g id="patch_83">
    <path d="M 1095.125608 242.035781 
L 1108.161474 242.035781 
L 1108.161474 242.035781 
L 1095.125608 242.035781 
z
" clip-path="url(#p519a5b670d)" style="fill: #6b8e9f; opacity: 0.75"/>
   </g>
   <g id="patch_84">
    <path d="M 1108.161474 242.035781 
L 1121.197341 242.035781 
L 1121.197341 242.035781 
L 1108.161474 242.035781 
z
" clip-path="url(#p519a5b670d)" style="fill: #6b8e9f; opacity: 0.75"/>
   </g>
   <g id="patch_85">
    <path d="M 1121.197341 242.035781 
L 1134.233208 242.035781 
L 1134.233208 242.035781 
L 1121.197341 242.035781 
z
" clip-path="url(#p519a5b670d)" style="fill: #6b8e9f; opacity: 0.75"/>
   </g>
   <g id="patch_86">
    <path d="M 1134.233208 242.035781 
L 1147.269075 242.035781 
L 1147.269075 242.035781 
L 1134.233208 242.035781 
z
" clip-path="url(#p519a5b670d)" style="fill: #6b8e9f; opacity: 0.75"/>
   </g>
   <g id="patch_87">
    <path d="M 1147.269075 242.035781 
L 1160.304941 242.035781 
L 1160.304941 242.035781 
L 1147.269075 242.035781 
z
" clip-path="url(#p519a5b670d)" style="fill: #6b8e9f; opacity: 0.75"/>
   </g>
   <g id="patch_88">
    <path d="M 1160.304941 242.035781 
L 1173.340808 242.035781 
L 1173.340808 242.035781 
L 1160.304941 242.035781 
z
" clip-path="url(#p519a5b670d)" style="fill: #6b8e9f; opacity: 0.75"/>
   </g>
   <g id="patch_89">
    <path d="M 1173.340808 242.035781 
L 1186.376675 242.035781 
L 1186.376675 242.035781 
L 1173.340808 242.035781 
z
" clip-path="url(#p519a5b670d)" style="fill: #6b8e9f; opacity: 0.75"/>
   </g>
   <g id="patch_90">
    <path d="M 1186.376675 242.035781 
L 1199.412542 242.035781 
L 1199.412542 242.035781 
L 1186.376675 242.035781 
z
" clip-path="url(#p519a5b670d)" style="fill: #6b8e9f; opacity: 0.75"/>
   </g>
   <g id="patch_91">
    <path d="M 1199.412542 242.035781 
L 1212.448408 242.035781 
L 1212.448408 242.035781 
L 1199.412542 242.035781 
z
" clip-path="url(#p519a5b670d)" style="fill: #6b8e9f; opacity: 0.75"/>
   </g>
   <g id="patch_92">
    <path d="M 1212.448408 242.035781 
L 1225.484275 242.035781 
L 1225.484275 242.035781 
L 1212.448408 242.035781 
z
" clip-path="url(#p519a5b670d)" style="fill: #6b8e9f; opacity: 0.75"/>
   </g>
   <g id="patch_93">
    <path d="M 1225.484275 242.035781 
L 1238.520142 242.035781 
L 1238.520142 242.035781 
L 1225.484275 242.035781 
z
" clip-path="url(#p519a5b670d)" style="fill: #6b8e9f; opacity: 0.75"/>
   </g>
   <g id="patch_94">
    <path d="M 1238.520142 242.035781 
L 1251.556009 242.035781 
L 1251.556009 242.035781 
L 1238.520142 242.035781 
z
" clip-path="url(#p519a5b670d)" style="fill: #6b8e9f; opacity: 0.75"/>
   </g>
   <g id="patch_95">
    <path d="M 1251.556009 242.035781 
L 1264.591875 242.035781 
L 1264.591875 242.035781 
L 1251.556009 242.035781 
z
" clip-path="url(#p519a5b670d)" style="fill: #6b8e9f; opacity: 0.75"/>
   </g>
   <g id="patch_96">
    <path d="M 1264.591875 242.035781 
L 1277.627742 242.035781 
L 1277.627742 242.035781 
L 1264.591875 242.035781 
z
" clip-path="url(#p519a5b670d)" style="fill: #6b8e9f; opacity: 0.75"/>
   </g>
   <g id="patch_97">
    <path d="M 1277.627742 242.035781 
L 1290.663609 242.035781 
L 1290.663609 242.035781 
L 1277.627742 242.035781 
z
" clip-path="url(#p519a5b670d)" style="fill: #6b8e9f; opacity: 0.75"/>
   </g>
   <g id="patch_98">
    <path d="M 1290.663609 242.035781 
L 1303.699476 242.035781 
L 1303.699476 242.035781 
L 1290.663609 242.035781 
z
" clip-path="url(#p519a5b670d)" style="fill: #6b8e9f; opacity: 0.75"/>
   </g>
   <g id="patch_99">
    <path d="M 1303.699476 242.035781 
L 1316.735342 242.035781 
L 1316.735342 242.035781 
L 1303.699476 242.035781 
z
" clip-path="url(#p519a5b670d)" style="fill: #6b8e9f; opacity: 0.75"/>
   </g>
   <g id="patch_100">
    <path d="M 1316.735342 242.035781 
L 1329.771209 242.035781 
L 1329.771209 242.035781 
L 1316.735342 242.035781 
z
" clip-path="url(#p519a5b670d)" style="fill: #6b8e9f; opacity: 0.75"/>
   </g>
   <g id="patch_101">
    <path d="M 1329.771209 242.035781 
L 1342.807076 242.035781 
L 1342.807076 242.035781 
L 1329.771209 242.035781 
z
" clip-path="url(#p519a5b670d)" style="fill: #6b8e9f; opacity: 0.75"/>
   </g>
   <g id="patch_102">
    <path d="M 1342.807076 242.035781 
L 1355.842942 242.035781 
L 1355.842942 242.035781 
L 1342.807076 242.035781 
z
" clip-path="url(#p519a5b670d)" style="fill: #6b8e9f; opacity: 0.75"/>
   </g>
   <g id="patch_103">
    <path d="M 1355.842942 242.035781 
L 1368.878809 242.035781 
L 1368.878809 242.035781 
L 1355.842942 242.035781 
z
" clip-path="url(#p519a5b670d)" style="fill: #6b8e9f; opacity: 0.75"/>
   </g>
   <g id="patch_104">
    <path d="M 1368.878809 242.035781 
L 1381.914676 242.035781 
L 1381.914676 242.035781 
L 1368.878809 242.035781 
z
" clip-path="url(#p519a5b670d)" style="fill: #6b8e9f; opacity: 0.75"/>
   </g>
   <g id="patch_105">
    <path d="M 1381.914676 242.035781 
L 1394.950543 242.035781 
L 1394.950543 242.035781 
L 1381.914676 242.035781 
z
" clip-path="url(#p519a5b670d)" style="fill: #6b8e9f; opacity: 0.75"/>
   </g>
   <g id="patch_106">
    <path d="M 1394.950543 242.035781 
L 1407.986409 242.035781 
L 1407.986409 242.035781 
L 1394.950543 242.035781 
z
" clip-path="url(#p519a5b670d)" style="fill: #6b8e9f; opacity: 0.75"/>
   </g>
   <g id="patch_107">
    <path d="M 1407.986409 242.035781 
L 1421.022276 242.035781 
L 1421.022276 242.035781 
L 1407.986409 242.035781 
z
" clip-path="url(#p519a5b670d)" style="fill: #6b8e9f; opacity: 0.75"/>
   </g>
   <g id="patch_108">
    <path d="M 1421.022276 242.035781 
L 1434.058143 242.035781 
L 1434.058143 242.035781 
L 1421.022276 242.035781 
z
" clip-path="url(#p519a5b670d)" style="fill: #6b8e9f; opacity: 0.75"/>
   </g>
   <g id="patch_109">
    <path d="M 1434.058143 242.035781 
L 1447.09401 242.035781 
L 1447.09401 242.035781 
L 1434.058143 242.035781 
z
" clip-path="url(#p519a5b670d)" style="fill: #6b8e9f; opacity: 0.75"/>
   </g>
   <g id="patch_110">
    <path d="M 1447.09401 242.035781 
L 1460.129876 242.035781 
L 1460.129876 242.035781 
L 1447.09401 242.035781 
z
" clip-path="url(#p519a5b670d)" style="fill: #6b8e9f; opacity: 0.75"/>
   </g>
   <g id="patch_111">
    <path d="M 1460.129876 242.035781 
L 1473.165743 242.035781 
L 1473.165743 242.035781 
L 1460.129876 242.035781 
z
" clip-path="url(#p519a5b670d)" style="fill: #6b8e9f; opacity: 0.75"/>
   </g>
   <g id="patch_112">
    <path d="M 1473.165743 242.035781 
L 1486.20161 242.035781 
L 1486.20161 242.035781 
L 1473.165743 242.035781 
z
" clip-path="url(#p519a5b670d)" style="fill: #6b8e9f; opacity: 0.75"/>
   </g>
   <g id="patch_113">
    <path d="M 1486.20161 242.035781 
L 1499.237477 242.035781 
L 1499.237477 242.035781 
L 1486.20161 242.035781 
z
" clip-path="url(#p519a5b670d)" style="fill: #6b8e9f; opacity: 0.75"/>
   </g>
   <g id="patch_114">
    <path d="M 1499.237477 242.035781 
L 1512.273343 242.035781 
L 1512.273343 242.035781 
L 1499.237477 242.035781 
z
" clip-path="url(#p519a5b670d)" style="fill: #6b8e9f; opacity: 0.75"/>
   </g>
   <g id="patch_115">
    <path d="M 1512.273343 242.035781 
L 1525.30921 242.035781 
L 1525.30921 242.035781 
L 1512.273343 242.035781 
z
" clip-path="url(#p519a5b670d)" style="fill: #6b8e9f; opacity: 0.75"/>
   </g>
   <g id="patch_116">
    <path d="M 1525.30921 242.035781 
L 1538.345077 242.035781 
L 1538.345077 242.035781 
L 1525.30921 242.035781 
z
" clip-path="url(#p519a5b670d)" style="fill: #6b8e9f; opacity: 0.75"/>
   </g>
   <g id="patch_117">
    <path d="M 1538.345077 242.035781 
L 1551.380944 242.035781 
L 1551.380944 242.035781 
L 1538.345077 242.035781 
z
" clip-path="url(#p519a5b670d)" style="fill: #6b8e9f; opacity: 0.75"/>
   </g>
   <g id="patch_118">
    <path d="M 1551.380944 242.035781 
L 1564.41681 242.035781 
L 1564.41681 242.035781 
L 1551.380944 242.035781 
z
" clip-path="url(#p519a5b670d)" style="fill: #6b8e9f; opacity: 0.75"/>
   </g>
   <g id="patch_119">
    <path d="M 1564.41681 242.035781 
L 1577.452677 242.035781 
L 1577.452677 242.035781 
L 1564.41681 242.035781 
z
" clip-path="url(#p519a5b670d)" style="fill: #6b8e9f; opacity: 0.75"/>
   </g>
   <g id="patch_120">
    <path d="M 1577.452677 242.035781 
L 1590.488544 242.035781 
L 1590.488544 242.035781 
L 1577.452677 242.035781 
z
" clip-path="url(#p519a5b670d)" style="fill: #6b8e9f; opacity: 0.75"/>
   </g>
   <g id="patch_121">
    <path d="M 1590.488544 242.035781 
L 1603.524411 242.035781 
L 1603.524411 242.035781 
L 1590.488544 242.035781 
z
" clip-path="url(#p519a5b670d)" style="fill: #6b8e9f; opacity: 0.75"/>
   </g>
   <g id="patch_122">
    <path d="M 1603.524411 242.035781 
L 1616.560277 242.035781 
L 1616.560277 242.02999 
L 1603.524411 242.02999 
z
" clip-path="url(#p519a5b670d)" style="fill: #6b8e9f; opacity: 0.75"/>
   </g>
   <g id="matplotlib.axis_1">
    <g id="xtick_1">
     <g id="line2d_1">
      <path d="M 49.190625 242.035781 
L 49.190625 22.318125 
" clip-path="url(#p519a5b670d)" style="fill: none; stroke: #b0b0b0; stroke-width: 0.8; stroke-linecap: square"/>
     </g>
     <g id="line2d_2">
      <defs>
       <path id="mb7476a132b" d="M 0 0 
L 0 3.5 
" style="stroke: #000000; stroke-width: 0.8"/>
      </defs>
      <g>
       <use xlink:href="#mb7476a132b" x="49.190625" y="242.035781" style="stroke: #000000; stroke-width: 0.8"/>
      </g>
     </g>
     <g id="text_1">
      <!-- 0 -->
      <g transform="translate(46.009375 256.633438) scale(0.1 -0.1)">
       <defs>
        <path id="DejaVuSans-13" d="M 2034 4250 
Q 1547 4250 1301 3770 
Q 1056 3291 1056 2328 
Q 1056 1369 1301 889 
Q 1547 409 2034 409 
Q 2525 409 2770 889 
Q 3016 1369 3016 2328 
Q 3016 3291 2770 3770 
Q 2525 4250 2034 4250 
z
M 2034 4750 
Q 2819 4750 3233 4129 
Q 3647 3509 3647 2328 
Q 3647 1150 3233 529 
Q 2819 -91 2034 -91 
Q 1250 -91 836 529 
Q 422 1150 422 2328 
Q 422 3509 836 4129 
Q 1250 4750 2034 4750 
z
" transform="scale(0.015625)"/>
       </defs>
       <use xlink:href="#DejaVuSans-13"/>
      </g>
     </g>
    </g>
    <g id="xtick_2">
     <g id="line2d_3">
      <path d="M 124.495905 242.035781 
L 124.495905 22.318125 
" clip-path="url(#p519a5b670d)" style="fill: none; stroke: #b0b0b0; stroke-width: 0.8; stroke-linecap: square"/>
     </g>
     <g id="line2d_4">
      <g>
       <use xlink:href="#mb7476a132b" x="124.495905" y="242.035781" style="stroke: #000000; stroke-width: 0.8"/>
      </g>
     </g>
     <g id="text_2">
      <!-- 200 -->
      <g transform="translate(114.952155 256.633438) scale(0.1 -0.1)">
       <defs>
        <path id="DejaVuSans-15" d="M 1228 531 
L 3431 531 
L 3431 0 
L 469 0 
L 469 531 
Q 828 903 1448 1529 
Q 2069 2156 2228 2338 
Q 2531 2678 2651 2914 
Q 2772 3150 2772 3378 
Q 2772 3750 2511 3984 
Q 2250 4219 1831 4219 
Q 1534 4219 1204 4116 
Q 875 4013 500 3803 
L 500 4441 
Q 881 4594 1212 4672 
Q 1544 4750 1819 4750 
Q 2544 4750 2975 4387 
Q 3406 4025 3406 3419 
Q 3406 3131 3298 2873 
Q 3191 2616 2906 2266 
Q 2828 2175 2409 1742 
Q 1991 1309 1228 531 
z
" transform="scale(0.015625)"/>
       </defs>
       <use xlink:href="#DejaVuSans-15"/>
       <use xlink:href="#DejaVuSans-13" transform="translate(63.625 0)"/>
       <use xlink:href="#DejaVuSans-13" transform="translate(127.25 0)"/>
      </g>
     </g>
    </g>
    <g id="xtick_3">
     <g id="line2d_5">
      <path d="M 199.801185 242.035781 
L 199.801185 22.318125 
" clip-path="url(#p519a5b670d)" style="fill: none; stroke: #b0b0b0; stroke-width: 0.8; stroke-linecap: square"/>
     </g>
     <g id="line2d_6">
      <g>
       <use xlink:href="#mb7476a132b" x="199.801185" y="242.035781" style="stroke: #000000; stroke-width: 0.8"/>
      </g>
     </g>
     <g id="text_3">
      <!-- 400 -->
      <g transform="translate(190.257435 256.633438) scale(0.1 -0.1)">
       <defs>
        <path id="DejaVuSans-17" d="M 2419 4116 
L 825 1625 
L 2419 1625 
L 2419 4116 
z
M 2253 4666 
L 3047 4666 
L 3047 1625 
L 3713 1625 
L 3713 1100 
L 3047 1100 
L 3047 0 
L 2419 0 
L 2419 1100 
L 313 1100 
L 313 1709 
L 2253 4666 
z
" transform="scale(0.015625)"/>
       </defs>
       <use xlink:href="#DejaVuSans-17"/>
       <use xlink:href="#DejaVuSans-13" transform="translate(63.625 0)"/>
       <use xlink:href="#DejaVuSans-13" transform="translate(127.25 0)"/>
      </g>
     </g>
    </g>
    <g id="xtick_4">
     <g id="line2d_7">
      <path d="M 275.106465 242.035781 
L 275.106465 22.318125 
" clip-path="url(#p519a5b670d)" style="fill: none; stroke: #b0b0b0; stroke-width: 0.8; stroke-linecap: square"/>
     </g>
     <g id="line2d_8">
      <g>
       <use xlink:href="#mb7476a132b" x="275.106465" y="242.035781" style="stroke: #000000; stroke-width: 0.8"/>
      </g>
     </g>
     <g id="text_4">
      <!-- 600 -->
      <g transform="translate(265.562715 256.633438) scale(0.1 -0.1)">
       <defs>
        <path id="DejaVuSans-19" d="M 2113 2584 
Q 1688 2584 1439 2293 
Q 1191 2003 1191 1497 
Q 1191 994 1439 701 
Q 1688 409 2113 409 
Q 2538 409 2786 701 
Q 3034 994 3034 1497 
Q 3034 2003 2786 2293 
Q 2538 2584 2113 2584 
z
M 3366 4563 
L 3366 3988 
Q 3128 4100 2886 4159 
Q 2644 4219 2406 4219 
Q 1781 4219 1451 3797 
Q 1122 3375 1075 2522 
Q 1259 2794 1537 2939 
Q 1816 3084 2150 3084 
Q 2853 3084 3261 2657 
Q 3669 2231 3669 1497 
Q 3669 778 3244 343 
Q 2819 -91 2113 -91 
Q 1303 -91 875 529 
Q 447 1150 447 2328 
Q 447 3434 972 4092 
Q 1497 4750 2381 4750 
Q 2619 4750 2861 4703 
Q 3103 4656 3366 4563 
z
" transform="scale(0.015625)"/>
       </defs>
       <use xlink:href="#DejaVuSans-19"/>
       <use xlink:href="#DejaVuSans-13" transform="translate(63.625 0)"/>
       <use xlink:href="#DejaVuSans-13" transform="translate(127.25 0)"/>
      </g>
     </g>
    </g>
    <g id="xtick_5">
     <g id="line2d_9">
      <path d="M 350.411745 242.035781 
L 350.411745 22.318125 
" clip-path="url(#p519a5b670d)" style="fill: none; stroke: #b0b0b0; stroke-width: 0.8; stroke-linecap: square"/>
     </g>
     <g id="line2d_10">
      <g>
       <use xlink:href="#mb7476a132b" x="350.411745" y="242.035781" style="stroke: #000000; stroke-width: 0.8"/>
      </g>
     </g>
     <g id="text_5">
      <!-- 800 -->
      <g transform="translate(340.867995 256.633438) scale(0.1 -0.1)">
       <defs>
        <path id="DejaVuSans-1b" d="M 2034 2216 
Q 1584 2216 1326 1975 
Q 1069 1734 1069 1313 
Q 1069 891 1326 650 
Q 1584 409 2034 409 
Q 2484 409 2743 651 
Q 3003 894 3003 1313 
Q 3003 1734 2745 1975 
Q 2488 2216 2034 2216 
z
M 1403 2484 
Q 997 2584 770 2862 
Q 544 3141 544 3541 
Q 544 4100 942 4425 
Q 1341 4750 2034 4750 
Q 2731 4750 3128 4425 
Q 3525 4100 3525 3541 
Q 3525 3141 3298 2862 
Q 3072 2584 2669 2484 
Q 3125 2378 3379 2068 
Q 3634 1759 3634 1313 
Q 3634 634 3220 271 
Q 2806 -91 2034 -91 
Q 1263 -91 848 271 
Q 434 634 434 1313 
Q 434 1759 690 2068 
Q 947 2378 1403 2484 
z
M 1172 3481 
Q 1172 3119 1398 2916 
Q 1625 2713 2034 2713 
Q 2441 2713 2670 2916 
Q 2900 3119 2900 3481 
Q 2900 3844 2670 4047 
Q 2441 4250 2034 4250 
Q 1625 4250 1398 4047 
Q 1172 3844 1172 3481 
z
" transform="scale(0.015625)"/>
       </defs>
       <use xlink:href="#DejaVuSans-1b"/>
       <use xlink:href="#DejaVuSans-13" transform="translate(63.625 0)"/>
       <use xlink:href="#DejaVuSans-13" transform="translate(127.25 0)"/>
      </g>
     </g>
    </g>
    <g id="text_6">
     <!-- S(T) -->
     <g transform="translate(213.453666 270.633438) scale(0.1 -0.1)">
      <defs>
       <path id="DejaVuSans-36" d="M 3425 4513 
L 3425 3897 
Q 3066 4069 2747 4153 
Q 2428 4238 2131 4238 
Q 1616 4238 1336 4038 
Q 1056 3838 1056 3469 
Q 1056 3159 1242 3001 
Q 1428 2844 1947 2747 
L 2328 2669 
Q 3034 2534 3370 2195 
Q 3706 1856 3706 1288 
Q 3706 609 3251 259 
Q 2797 -91 1919 -91 
Q 1588 -91 1214 -16 
Q 841 59 441 206 
L 441 856 
Q 825 641 1194 531 
Q 1563 422 1919 422 
Q 2459 422 2753 634 
Q 3047 847 3047 1241 
Q 3047 1584 2836 1778 
Q 2625 1972 2144 2069 
L 1759 2144 
Q 1053 2284 737 2584 
Q 422 2884 422 3419 
Q 422 4038 858 4394 
Q 1294 4750 2059 4750 
Q 2388 4750 2728 4690 
Q 3069 4631 3425 4513 
z
" transform="scale(0.015625)"/>
       <path id="DejaVuSans-b" d="M 1984 4856 
Q 1566 4138 1362 3434 
Q 1159 2731 1159 2009 
Q 1159 1288 1364 580 
Q 1569 -128 1984 -844 
L 1484 -844 
Q 1016 -109 783 600 
Q 550 1309 550 2009 
Q 550 2706 781 3412 
Q 1013 4119 1484 4856 
L 1984 4856 
z
" transform="scale(0.015625)"/>
       <path id="DejaVuSans-37" d="M -19 4666 
L 3928 4666 
L 3928 4134 
L 2272 4134 
L 2272 0 
L 1638 0 
L 1638 4134 
L -19 4134 
L -19 4666 
z
" transform="scale(0.015625)"/>
       <path id="DejaVuSans-c" d="M 513 4856 
L 1013 4856 
Q 1481 4119 1714 3412 
Q 1947 2706 1947 2009 
Q 1947 1309 1714 600 
Q 1481 -109 1013 -844 
L 513 -844 
Q 928 -128 1133 580 
Q 1338 1288 1338 2009 
Q 1338 2731 1133 3434 
Q 928 4138 513 4856 
z
" transform="scale(0.015625)"/>
      </defs>
      <use xlink:href="#DejaVuSans-36"/>
      <use xlink:href="#DejaVuSans-b" transform="translate(63.484375 0)"/>
      <use xlink:href="#DejaVuSans-37" transform="translate(102.5 0)"/>
      <use xlink:href="#DejaVuSans-c" transform="translate(163.578125 0)"/>
     </g>
    </g>
   </g>
   <g id="matplotlib.axis_2">
    <g id="ytick_1">
     <g id="line2d_11">
      <path d="M 49.190625 242.035781 
L 397.976083 242.035781 
" clip-path="url(#p519a5b670d)" style="fill: none; stroke: #b0b0b0; stroke-width: 0.8; stroke-linecap: square"/>
     </g>
     <g id="line2d_12">
      <defs>
       <path id="m1cbe2c39ef" d="M 0 0 
L -3.5 0 
" style="stroke: #000000; stroke-width: 0.8"/>
      </defs>
      <g>
       <use xlink:href="#m1cbe2c39ef" x="49.190625" y="242.035781" style="stroke: #000000; stroke-width: 0.8"/>
      </g>
     </g>
     <g id="text_7">
      <!-- 0.0000 -->
      <g transform="translate(7.2 245.834609) scale(0.1 -0.1)">
       <defs>
        <path id="DejaVuSans-11" d="M 684 794 
L 1344 794 
L 1344 0 
L 684 0 
L 684 794 
z
" transform="scale(0.015625)"/>
       </defs>
       <use xlink:href="#DejaVuSans-13"/>
       <use xlink:href="#DejaVuSans-11" transform="translate(63.625 0)"/>
       <use xlink:href="#DejaVuSans-13" transform="translate(95.40625 0)"/>
       <use xlink:href="#DejaVuSans-13" transform="translate(159.03125 0)"/>
       <use xlink:href="#DejaVuSans-13" transform="translate(222.65625 0)"/>
       <use xlink:href="#DejaVuSans-13" transform="translate(286.28125 0)"/>
      </g>
     </g>
    </g>
    <g id="ytick_2">
     <g id="line2d_13">
      <path d="M 49.190625 216.973874 
L 397.976083 216.973874 
" clip-path="url(#p519a5b670d)" style="fill: none; stroke: #b0b0b0; stroke-width: 0.8; stroke-linecap: square"/>
     </g>
     <g id="line2d_14">
      <g>
       <use xlink:href="#m1cbe2c39ef" x="49.190625" y="216.973874" style="stroke: #000000; stroke-width: 0.8"/>
      </g>
     </g>
     <g id="text_8">
      <!-- 0.0005 -->
      <g transform="translate(7.2 220.772703) scale(0.1 -0.1)">
       <defs>
        <path id="DejaVuSans-18" d="M 691 4666 
L 3169 4666 
L 3169 4134 
L 1269 4134 
L 1269 2991 
Q 1406 3038 1543 3061 
Q 1681 3084 1819 3084 
Q 2600 3084 3056 2656 
Q 3513 2228 3513 1497 
Q 3513 744 3044 326 
Q 2575 -91 1722 -91 
Q 1428 -91 1123 -41 
Q 819 9 494 109 
L 494 744 
Q 775 591 1075 516 
Q 1375 441 1709 441 
Q 2250 441 2565 725 
Q 2881 1009 2881 1497 
Q 2881 1984 2565 2268 
Q 2250 2553 1709 2553 
Q 1456 2553 1204 2497 
Q 953 2441 691 2322 
L 691 4666 
z
" transform="scale(0.015625)"/>
       </defs>
       <use xlink:href="#DejaVuSans-13"/>
       <use xlink:href="#DejaVuSans-11" transform="translate(63.625 0)"/>
       <use xlink:href="#DejaVuSans-13" transform="translate(95.40625 0)"/>
       <use xlink:href="#DejaVuSans-13" transform="translate(159.03125 0)"/>
       <use xlink:href="#DejaVuSans-13" transform="translate(222.65625 0)"/>
       <use xlink:href="#DejaVuSans-18" transform="translate(286.28125 0)"/>
      </g>
     </g>
    </g>
    <g id="ytick_3">
     <g id="line2d_15">
      <path d="M 49.190625 191.911968 
L 397.976083 191.911968 
" clip-path="url(#p519a5b670d)" style="fill: none; stroke: #b0b0b0; stroke-width: 0.8; stroke-linecap: square"/>
     </g>
     <g id="line2d_16">
      <g>
       <use xlink:href="#m1cbe2c39ef" x="49.190625" y="191.911968" style="stroke: #000000; stroke-width: 0.8"/>
      </g>
     </g>
     <g id="text_9">
      <!-- 0.0010 -->
      <g transform="translate(7.2 195.710796) scale(0.1 -0.1)">
       <defs>
        <path id="DejaVuSans-14" d="M 794 531 
L 1825 531 
L 1825 4091 
L 703 3866 
L 703 4441 
L 1819 4666 
L 2450 4666 
L 2450 531 
L 3481 531 
L 3481 0 
L 794 0 
L 794 531 
z
" transform="scale(0.015625)"/>
       </defs>
       <use xlink:href="#DejaVuSans-13"/>
       <use xlink:href="#DejaVuSans-11" transform="translate(63.625 0)"/>
       <use xlink:href="#DejaVuSans-13" transform="translate(95.40625 0)"/>
       <use xlink:href="#DejaVuSans-13" transform="translate(159.03125 0)"/>
       <use xlink:href="#DejaVuSans-14" transform="translate(222.65625 0)"/>
       <use xlink:href="#DejaVuSans-13" transform="translate(286.28125 0)"/>
      </g>
     </g>
    </g>
    <g id="ytick_4">
     <g id="line2d_17">
      <path d="M 49.190625 166.850061 
L 397.976083 166.850061 
" clip-path="url(#p519a5b670d)" style="fill: none; stroke: #b0b0b0; stroke-width: 0.8; stroke-linecap: square"/>
     </g>
     <g id="line2d_18">
      <g>
       <use xlink:href="#m1cbe2c39ef" x="49.190625" y="166.850061" style="stroke: #000000; stroke-width: 0.8"/>
      </g>
     </g>
     <g id="text_10">
      <!-- 0.0015 -->
      <g transform="translate(7.2 170.648889) scale(0.1 -0.1)">
       <use xlink:href="#DejaVuSans-13"/>
       <use xlink:href="#DejaVuSans-11" transform="translate(63.625 0)"/>
       <use xlink:href="#DejaVuSans-13" transform="translate(95.40625 0)"/>
       <use xlink:href="#DejaVuSans-13" transform="translate(159.03125 0)"/>
       <use xlink:href="#DejaVuSans-14" transform="translate(222.65625 0)"/>
       <use xlink:href="#DejaVuSans-18" transform="translate(286.28125 0)"/>
      </g>
     </g>
    </g>
    <g id="ytick_5">
     <g id="line2d_19">
      <path d="M 49.190625 141.788154 
L 397.976083 141.788154 
" clip-path="url(#p519a5b670d)" style="fill: none; stroke: #b0b0b0; stroke-width: 0.8; stroke-linecap: square"/>
     </g>
     <g id="line2d_20">
      <g>
       <use xlink:href="#m1cbe2c39ef" x="49.190625" y="141.788154" style="stroke: #000000; stroke-width: 0.8"/>
      </g>
     </g>
     <g id="text_11">
      <!-- 0.0020 -->
      <g transform="translate(7.2 145.586982) scale(0.1 -0.1)">
       <use xlink:href="#DejaVuSans-13"/>
       <use xlink:href="#DejaVuSans-11" transform="translate(63.625 0)"/>
       <use xlink:href="#DejaVuSans-13" transform="translate(95.40625 0)"/>
       <use xlink:href="#DejaVuSans-13" transform="translate(159.03125 0)"/>
       <use xlink:href="#DejaVuSans-15" transform="translate(222.65625 0)"/>
       <use xlink:href="#DejaVuSans-13" transform="translate(286.28125 0)"/>
      </g>
     </g>
    </g>
    <g id="ytick_6">
     <g id="line2d_21">
      <path d="M 49.190625 116.726247 
L 397.976083 116.726247 
" clip-path="url(#p519a5b670d)" style="fill: none; stroke: #b0b0b0; stroke-width: 0.8; stroke-linecap: square"/>
     </g>
     <g id="line2d_22">
      <g>
       <use xlink:href="#m1cbe2c39ef" x="49.190625" y="116.726247" style="stroke: #000000; stroke-width: 0.8"/>
      </g>
     </g>
     <g id="text_12">
      <!-- 0.0025 -->
      <g transform="translate(7.2 120.525075) scale(0.1 -0.1)">
       <use xlink:href="#DejaVuSans-13"/>
       <use xlink:href="#DejaVuSans-11" transform="translate(63.625 0)"/>
       <use xlink:href="#DejaVuSans-13" transform="translate(95.40625 0)"/>
       <use xlink:href="#DejaVuSans-13" transform="translate(159.03125 0)"/>
       <use xlink:href="#DejaVuSans-15" transform="translate(222.65625 0)"/>
       <use xlink:href="#DejaVuSans-18" transform="translate(286.28125 0)"/>
      </g>
     </g>
    </g>
    <g id="ytick_7">
     <g id="line2d_23">
      <path d="M 49.190625 91.66434 
L 397.976083 91.66434 
" clip-path="url(#p519a5b670d)" style="fill: none; stroke: #b0b0b0; stroke-width: 0.8; stroke-linecap: square"/>
     </g>
     <g id="line2d_24">
      <g>
       <use xlink:href="#m1cbe2c39ef" x="49.190625" y="91.66434" style="stroke: #000000; stroke-width: 0.8"/>
      </g>
     </g>
     <g id="text_13">
      <!-- 0.0030 -->
      <g transform="translate(7.2 95.463168) scale(0.1 -0.1)">
       <defs>
        <path id="DejaVuSans-16" d="M 2597 2516 
Q 3050 2419 3304 2112 
Q 3559 1806 3559 1356 
Q 3559 666 3084 287 
Q 2609 -91 1734 -91 
Q 1441 -91 1130 -33 
Q 819 25 488 141 
L 488 750 
Q 750 597 1062 519 
Q 1375 441 1716 441 
Q 2309 441 2620 675 
Q 2931 909 2931 1356 
Q 2931 1769 2642 2001 
Q 2353 2234 1838 2234 
L 1294 2234 
L 1294 2753 
L 1863 2753 
Q 2328 2753 2575 2939 
Q 2822 3125 2822 3475 
Q 2822 3834 2567 4026 
Q 2313 4219 1838 4219 
Q 1578 4219 1281 4162 
Q 984 4106 628 3988 
L 628 4550 
Q 988 4650 1302 4700 
Q 1616 4750 1894 4750 
Q 2613 4750 3031 4423 
Q 3450 4097 3450 3541 
Q 3450 3153 3228 2886 
Q 3006 2619 2597 2516 
z
" transform="scale(0.015625)"/>
       </defs>
       <use xlink:href="#DejaVuSans-13"/>
       <use xlink:href="#DejaVuSans-11" transform="translate(63.625 0)"/>
       <use xlink:href="#DejaVuSans-13" transform="translate(95.40625 0)"/>
       <use xlink:href="#DejaVuSans-13" transform="translate(159.03125 0)"/>
       <use xlink:href="#DejaVuSans-16" transform="translate(222.65625 0)"/>
       <use xlink:href="#DejaVuSans-13" transform="translate(286.28125 0)"/>
      </g>
     </g>
    </g>
    <g id="ytick_8">
     <g id="line2d_25">
      <path d="M 49.190625 66.602433 
L 397.976083 66.602433 
" clip-path="url(#p519a5b670d)" style="fill: none; stroke: #b0b0b0; stroke-width: 0.8; stroke-linecap: square"/>
     </g>
     <g id="line2d_26">
      <g>
       <use xlink:href="#m1cbe2c39ef" x="49.190625" y="66.602433" style="stroke: #000000; stroke-width: 0.8"/>
      </g>
     </g>
     <g id="text_14">
      <!-- 0.0035 -->
      <g transform="translate(7.2 70.401261) scale(0.1 -0.1)">
       <use xlink:href="#DejaVuSans-13"/>
       <use xlink:href="#DejaVuSans-11" transform="translate(63.625 0)"/>
       <use xlink:href="#DejaVuSans-13" transform="translate(95.40625 0)"/>
       <use xlink:href="#DejaVuSans-13" transform="translate(159.03125 0)"/>
       <use xlink:href="#DejaVuSans-16" transform="translate(222.65625 0)"/>
       <use xlink:href="#DejaVuSans-18" transform="translate(286.28125 0)"/>
      </g>
     </g>
    </g>
    <g id="ytick_9">
     <g id="line2d_27">
      <path d="M 49.190625 41.540527 
L 397.976083 41.540527 
" clip-path="url(#p519a5b670d)" style="fill: none; stroke: #b0b0b0; stroke-width: 0.8; stroke-linecap: square"/>
     </g>
     <g id="line2d_28">
      <g>
       <use xlink:href="#m1cbe2c39ef" x="49.190625" y="41.540527" style="stroke: #000000; stroke-width: 0.8"/>
      </g>
     </g>
     <g id="text_15">
      <!-- 0.0040 -->
      <g transform="translate(7.2 45.339355) scale(0.1 -0.1)">
       <use xlink:href="#DejaVuSans-13"/>
       <use xlink:href="#DejaVuSans-11" transform="translate(63.625 0)"/>
       <use xlink:href="#DejaVuSans-13" transform="translate(95.40625 0)"/>
       <use xlink:href="#DejaVuSans-13" transform="translate(159.03125 0)"/>
       <use xlink:href="#DejaVuSans-17" transform="translate(222.65625 0)"/>
       <use xlink:href="#DejaVuSans-13" transform="translate(286.28125 0)"/>
      </g>
     </g>
    </g>
   </g>
   <g id="line2d_29">
    <path d="M 86.843265 242.035781 
L 86.843265 22.318125 
" clip-path="url(#p519a5b670d)" style="fill: none; stroke-dasharray: 5.18,2.24; stroke-dashoffset: 0; stroke: #b23a48; stroke-width: 1.4"/>
   </g>
   <g id="patch_123">
    <path d="M 49.190625 242.035781 
L 49.190625 22.318125 
" style="fill: none; stroke: #000000; stroke-width: 0.8; stroke-linejoin: miter; stroke-linecap: square"/>
   </g>
   <g id="patch_124">
    <path d="M 49.190625 242.035781 
L 397.976083 242.035781 
" style="fill: none; stroke: #000000; stroke-width: 0.8; stroke-linejoin: miter; stroke-linecap: square"/>
   </g>
   <g id="text_16">
    <!-- GBM terminal values -->
    <g transform="translate(161.248979 16.318125) scale(0.12 -0.12)">
     <defs>
      <path id="DejaVuSans-2a" d="M 3809 666 
L 3809 1919 
L 2778 1919 
L 2778 2438 
L 4434 2438 
L 4434 434 
Q 4069 175 3628 42 
Q 3188 -91 2688 -91 
Q 1594 -91 976 548 
Q 359 1188 359 2328 
Q 359 3472 976 4111 
Q 1594 4750 2688 4750 
Q 3144 4750 3555 4637 
Q 3966 4525 4313 4306 
L 4313 3634 
Q 3963 3931 3569 4081 
Q 3175 4231 2741 4231 
Q 1884 4231 1454 3753 
Q 1025 3275 1025 2328 
Q 1025 1384 1454 906 
Q 1884 428 2741 428 
Q 3075 428 3337 486 
Q 3600 544 3809 666 
z
" transform="scale(0.015625)"/>
      <path id="DejaVuSans-25" d="M 1259 2228 
L 1259 519 
L 2272 519 
Q 2781 519 3026 730 
Q 3272 941 3272 1375 
Q 3272 1813 3026 2020 
Q 2781 2228 2272 2228 
L 1259 2228 
z
M 1259 4147 
L 1259 2741 
L 2194 2741 
Q 2656 2741 2882 2914 
Q 3109 3088 3109 3444 
Q 3109 3797 2882 3972 
Q 2656 4147 2194 4147 
L 1259 4147 
z
M 628 4666 
L 2241 4666 
Q 2963 4666 3353 4366 
Q 3744 4066 3744 3513 
Q 3744 3084 3544 2831 
Q 3344 2578 2956 2516 
Q 3422 2416 3680 2098 
Q 3938 1781 3938 1306 
Q 3938 681 3513 340 
Q 3088 0 2303 0 
L 628 0 
L 628 4666 
z
" transform="scale(0.015625)"/>
      <path id="DejaVuSans-30" d="M 628 4666 
L 1569 4666 
L 2759 1491 
L 3956 4666 
L 4897 4666 
L 4897 0 
L 4281 0 
L 4281 4097 
L 3078 897 
L 2444 897 
L 1241 4097 
L 1241 0 
L 628 0 
L 628 4666 
z
" transform="scale(0.015625)"/>
      <path id="DejaVuSans-3" transform="scale(0.015625)"/>
      <path id="DejaVuSans-57" d="M 1172 4494 
L 1172 3500 
L 2356 3500 
L 2356 3053 
L 1172 3053 
L 1172 1153 
Q 1172 725 1289 603 
Q 1406 481 1766 481 
L 2356 481 
L 2356 0 
L 1766 0 
Q 1100 0 847 248 
Q 594 497 594 1153 
L 594 3053 
L 172 3053 
L 172 3500 
L 594 3500 
L 594 4494 
L 1172 4494 
z
" transform="scale(0.015625)"/>
      <path id="DejaVuSans-48" d="M 3597 1894 
L 3597 1613 
L 953 1613 
Q 991 1019 1311 708 
Q 1631 397 2203 397 
Q 2534 397 2845 478 
Q 3156 559 3463 722 
L 3463 178 
Q 3153 47 2828 -22 
Q 2503 -91 2169 -91 
Q 1331 -91 842 396 
Q 353 884 353 1716 
Q 353 2575 817 3079 
Q 1281 3584 2069 3584 
Q 2775 3584 3186 3129 
Q 3597 2675 3597 1894 
z
M 3022 2063 
Q 3016 2534 2758 2815 
Q 2500 3097 2075 3097 
Q 1594 3097 1305 2825 
Q 1016 2553 972 2059 
L 3022 2063 
z
" transform="scale(0.015625)"/>
      <path id="DejaVuSans-55" d="M 2631 2963 
Q 2534 3019 2420 3045 
Q 2306 3072 2169 3072 
Q 1681 3072 1420 2755 
Q 1159 2438 1159 1844 
L 1159 0 
L 581 0 
L 581 3500 
L 1159 3500 
L 1159 2956 
Q 1341 3275 1631 3429 
Q 1922 3584 2338 3584 
Q 2397 3584 2469 3576 
Q 2541 3569 2628 3553 
L 2631 2963 
z
" transform="scale(0.015625)"/>
      <path id="DejaVuSans-50" d="M 3328 2828 
Q 3544 3216 3844 3400 
Q 4144 3584 4550 3584 
Q 5097 3584 5394 3201 
Q 5691 2819 5691 2113 
L 5691 0 
L 5113 0 
L 5113 2094 
Q 5113 2597 4934 2840 
Q 4756 3084 4391 3084 
Q 3944 3084 3684 2787 
Q 3425 2491 3425 1978 
L 3425 0 
L 2847 0 
L 2847 2094 
Q 2847 2600 2669 2842 
Q 2491 3084 2119 3084 
Q 1678 3084 1418 2786 
Q 1159 2488 1159 1978 
L 1159 0 
L 581 0 
L 581 3500 
L 1159 3500 
L 1159 2956 
Q 1356 3278 1631 3431 
Q 1906 3584 2284 3584 
Q 2666 3584 2933 3390 
Q 3200 3197 3328 2828 
z
" transform="scale(0.015625)"/>
      <path id="DejaVuSans-4c" d="M 603 3500 
L 1178 3500 
L 1178 0 
L 603 0 
L 603 3500 
z
M 603 4863 
L 1178 4863 
L 1178 4134 
L 603 4134 
L 603 4863 
z
" transform="scale(0.015625)"/>
      <path id="DejaVuSans-51" d="M 3513 2113 
L 3513 0 
L 2938 0 
L 2938 2094 
Q 2938 2591 2744 2837 
Q 2550 3084 2163 3084 
Q 1697 3084 1428 2787 
Q 1159 2491 1159 1978 
L 1159 0 
L 581 0 
L 581 3500 
L 1159 3500 
L 1159 2956 
Q 1366 3272 1645 3428 
Q 1925 3584 2291 3584 
Q 2894 3584 3203 3211 
Q 3513 2838 3513 2113 
z
" transform="scale(0.015625)"/>
      <path id="DejaVuSans-44" d="M 2194 1759 
Q 1497 1759 1228 1600 
Q 959 1441 959 1056 
Q 959 750 1161 570 
Q 1363 391 1709 391 
Q 2188 391 2477 730 
Q 2766 1069 2766 1631 
L 2766 1759 
L 2194 1759 
z
M 3341 1997 
L 3341 0 
L 2766 0 
L 2766 531 
Q 2569 213 2275 61 
Q 1981 -91 1556 -91 
Q 1019 -91 701 211 
Q 384 513 384 1019 
Q 384 1609 779 1909 
Q 1175 2209 1959 2209 
L 2766 2209 
L 2766 2266 
Q 2766 2663 2505 2880 
Q 2244 3097 1772 3097 
Q 1472 3097 1187 3025 
Q 903 2953 641 2809 
L 641 3341 
Q 956 3463 1253 3523 
Q 1550 3584 1831 3584 
Q 2591 3584 2966 3190 
Q 3341 2797 3341 1997 
z
" transform="scale(0.015625)"/>
      <path id="DejaVuSans-4f" d="M 603 4863 
L 1178 4863 
L 1178 0 
L 603 0 
L 603 4863 
z
" transform="scale(0.015625)"/>
      <path id="DejaVuSans-59" d="M 191 3500 
L 800 3500 
L 1894 563 
L 2988 3500 
L 3597 3500 
L 2284 0 
L 1503 0 
L 191 3500 
z
" transform="scale(0.015625)"/>
      <path id="DejaVuSans-58" d="M 544 1381 
L 544 3500 
L 1119 3500 
L 1119 1403 
Q 1119 906 1312 657 
Q 1506 409 1894 409 
Q 2359 409 2629 706 
Q 2900 1003 2900 1516 
L 2900 3500 
L 3475 3500 
L 3475 0 
L 2900 0 
L 2900 538 
Q 2691 219 2414 64 
Q 2138 -91 1772 -91 
Q 1169 -91 856 284 
Q 544 659 544 1381 
z
M 1991 3584 
L 1991 3584 
z
" transform="scale(0.015625)"/>
      <path id="DejaVuSans-56" d="M 2834 3397 
L 2834 2853 
Q 2591 2978 2328 3040 
Q 2066 3103 1784 3103 
Q 1356 3103 1142 2972 
Q 928 2841 928 2578 
Q 928 2378 1081 2264 
Q 1234 2150 1697 2047 
L 1894 2003 
Q 2506 1872 2764 1633 
Q 3022 1394 3022 966 
Q 3022 478 2636 193 
Q 2250 -91 1575 -91 
Q 1294 -91 989 -36 
Q 684 19 347 128 
L 347 722 
Q 666 556 975 473 
Q 1284 391 1588 391 
Q 1994 391 2212 530 
Q 2431 669 2431 922 
Q 2431 1156 2273 1281 
Q 2116 1406 1581 1522 
L 1381 1569 
Q 847 1681 609 1914 
Q 372 2147 372 2553 
Q 372 3047 722 3315 
Q 1072 3584 1716 3584 
Q 2034 3584 2315 3537 
Q 2597 3491 2834 3397 
z
" transform="scale(0.015625)"/>
     </defs>
     <use xlink:href="#DejaVuSans-2a"/>
     <use xlink:href="#DejaVuSans-25" transform="translate(77.484375 0)"/>
     <use xlink:href="#DejaVuSans-30" transform="translate(146.09375 0)"/>
     <use xlink:href="#DejaVuSans-3" transform="translate(232.375 0)"/>
     <use xlink:href="#DejaVuSans-57" transform="translate(264.15625 0)"/>
     <use xlink:href="#DejaVuSans-48" transform="translate(303.359375 0)"/>
     <use xlink:href="#DejaVuSans-55" transform="translate(364.890625 0)"/>
     <use xlink:href="#DejaVuSans-50" transform="translate(404.25 0)"/>
     <use xlink:href="#DejaVuSans-4c" transform="translate(501.65625 0)"/>
     <use xlink:href="#DejaVuSans-51" transform="translate(529.4375 0)"/>
     <use xlink:href="#DejaVuSans-44" transform="translate(592.8125 0)"/>
     <use xlink:href="#DejaVuSans-4f" transform="translate(654.09375 0)"/>
     <use xlink:href="#DejaVuSans-3" transform="translate(681.875 0)"/>
     <use xlink:href="#DejaVuSans-59" transform="translate(713.65625 0)"/>
     <use xlink:href="#DejaVuSans-44" transform="translate(772.84375 0)"/>
     <use xlink:href="#DejaVuSans-4f" transform="translate(834.125 0)"/>
     <use xlink:href="#DejaVuSans-58" transform="translate(861.90625 0)"/>
     <use xlink:href="#DejaVuSans-48" transform="translate(925.28125 0)"/>
     <use xlink:href="#DejaVuSans-56" transform="translate(986.8125 0)"/>
    </g>
   </g>
   <g id="legend_1">
    <g id="patch_125">
     <path d="M 303.410458 45.318906 
L 390.976083 45.318906 
Q 392.976083 45.318906 392.976083 43.318906 
L 392.976083 29.318125 
Q 392.976083 27.318125 390.976083 27.318125 
L 303.410458 27.318125 
Q 301.410458 27.318125 301.410458 29.318125 
L 301.410458 43.318906 
Q 301.410458 45.318906 303.410458 45.318906 
z
" style="fill: #ffffff; opacity: 0.8; stroke: #cccccc; stroke-linejoin: miter"/>
    </g>
    <g id="line2d_30">
     <path d="M 305.410458 35.416563 
L 315.410458 35.416563 
L 325.410458 35.416563 
" style="fill: none; stroke-dasharray: 5.18,2.24; stroke-dashoffset: 0; stroke: #b23a48; stroke-width: 1.4"/>
    </g>
    <g id="text_17">
     <!-- initial price -->
     <g transform="translate(333.410458 38.916563) scale(0.1 -0.1)">
      <defs>
       <path id="DejaVuSans-53" d="M 1159 525 
L 1159 -1331 
L 581 -1331 
L 581 3500 
L 1159 3500 
L 1159 2969 
Q 1341 3281 1617 3432 
Q 1894 3584 2278 3584 
Q 2916 3584 3314 3078 
Q 3713 2572 3713 1747 
Q 3713 922 3314 415 
Q 2916 -91 2278 -91 
Q 1894 -91 1617 61 
Q 1341 213 1159 525 
z
M 3116 1747 
Q 3116 2381 2855 2742 
Q 2594 3103 2138 3103 
Q 1681 3103 1420 2742 
Q 1159 2381 1159 1747 
Q 1159 1113 1420 752 
Q 1681 391 2138 391 
Q 2594 391 2855 752 
Q 3116 1113 3116 1747 
z
" transform="scale(0.015625)"/>
       <path id="DejaVuSans-46" d="M 3122 3366 
L 3122 2828 
Q 2878 2963 2633 3030 
Q 2388 3097 2138 3097 
Q 1578 3097 1268 2742 
Q 959 2388 959 1747 
Q 959 1106 1268 751 
Q 1578 397 2138 397 
Q 2388 397 2633 464 
Q 2878 531 3122 666 
L 3122 134 
Q 2881 22 2623 -34 
Q 2366 -91 2075 -91 
Q 1284 -91 818 406 
Q 353 903 353 1747 
Q 353 2603 823 3093 
Q 1294 3584 2113 3584 
Q 2378 3584 2631 3529 
Q 2884 3475 3122 3366 
z
" transform="scale(0.015625)"/>
      </defs>
      <use xlink:href="#DejaVuSans-4c"/>
      <use xlink:href="#DejaVuSans-51" transform="translate(27.78125 0)"/>
      <use xlink:href="#DejaVuSans-4c" transform="translate(91.15625 0)"/>
      <use xlink:href="#DejaVuSans-57" transform="translate(118.9375 0)"/>
      <use xlink:href="#DejaVuSans-4c" transform="translate(158.140625 0)"/>
      <use xlink:href="#DejaVuSans-44" transform="translate(185.921875 0)"/>
      <use xlink:href="#DejaVuSans-4f" transform="translate(247.203125 0)"/>
      <use xlink:href="#DejaVuSans-3" transform="translate(274.984375 0)"/>
      <use xlink:href="#DejaVuSans-53" transform="translate(306.765625 0)"/>
      <use xlink:href="#DejaVuSans-55" transform="translate(370.25 0)"/>
      <use xlink:href="#DejaVuSans-4c" transform="translate(411.359375 0)"/>
      <use xlink:href="#DejaVuSans-46" transform="translate(439.140625 0)"/>
      <use xlink:href="#DejaVuSans-48" transform="translate(494.125 0)"/>
     </g>
    </g>
   </g>
  </g>
  <g id="axes_2">
   <g id="patch_126">
    <path d="M 422.256083 242.035781 
L 771.04154 242.035781 
L 771.04154 22.318125 
L 422.256083 22.318125 
z
" style="fill: #ffffff"/>
   </g>
   <g id="patch_127">
    <path d="M 438.109967 242.035781 
L 441.280744 242.035781 
L 441.280744 242.01467 
L 438.109967 242.01467 
z
" clip-path="url(#p49a1e9255b)" style="fill: #7aa95c; opacity: 0.75"/>
   </g>
   <g id="patch_128">
    <path d="M 441.280744 242.035781 
L 444.451521 242.035781 
L 444.451521 242.035781 
L 441.280744 242.035781 
z
" clip-path="url(#p49a1e9255b)" style="fill: #7aa95c; opacity: 0.75"/>
   </g>
   <g id="patch_129">
    <path d="M 444.451521 242.035781 
L 447.622298 242.035781 
L 447.622298 242.035781 
L 444.451521 242.035781 
z
" clip-path="url(#p49a1e9255b)" style="fill: #7aa95c; opacity: 0.75"/>
   </g>
   <g id="patch_130">
    <path d="M 447.622298 242.035781 
L 450.793075 242.035781 
L 450.793075 242.035781 
L 447.622298 242.035781 
z
" clip-path="url(#p49a1e9255b)" style="fill: #7aa95c; opacity: 0.75"/>
   </g>
   <g id="patch_131">
    <path d="M 450.793075 242.035781 
L 453.963852 242.035781 
L 453.963852 242.01467 
L 450.793075 242.01467 
z
" clip-path="url(#p49a1e9255b)" style="fill: #7aa95c; opacity: 0.75"/>
   </g>
   <g id="patch_132">
    <path d="M 453.963852 242.035781 
L 457.134629 242.035781 
L 457.134629 242.01467 
L 453.963852 242.01467 
z
" clip-path="url(#p49a1e9255b)" style="fill: #7aa95c; opacity: 0.75"/>
   </g>
   <g id="patch_133">
    <path d="M 457.134629 242.035781 
L 460.305405 242.035781 
L 460.305405 242.01467 
L 457.134629 242.01467 
z
" clip-path="url(#p49a1e9255b)" style="fill: #7aa95c; opacity: 0.75"/>
   </g>
   <g id="patch_134">
    <path d="M 460.305405 242.035781 
L 463.476182 242.035781 
L 463.476182 241.972447 
L 460.305405 241.972447 
z
" clip-path="url(#p49a1e9255b)" style="fill: #7aa95c; opacity: 0.75"/>
   </g>
   <g id="patch_135">
    <path d="M 463.476182 242.035781 
L 466.646959 242.035781 
L 466.646959 241.951336 
L 463.476182 241.951336 
z
" clip-path="url(#p49a1e9255b)" style="fill: #7aa95c; opacity: 0.75"/>
   </g>
   <g id="patch_136">
    <path d="M 466.646959 242.035781 
L 469.817736 242.035781 
L 469.817736 241.993559 
L 466.646959 241.993559 
z
" clip-path="url(#p49a1e9255b)" style="fill: #7aa95c; opacity: 0.75"/>
   </g>
   <g id="patch_137">
    <path d="M 469.817736 242.035781 
L 472.988513 242.035781 
L 472.988513 241.972447 
L 469.817736 241.972447 
z
" clip-path="url(#p49a1e9255b)" style="fill: #7aa95c; opacity: 0.75"/>
   </g>
   <g id="patch_138">
    <path d="M 472.988513 242.035781 
L 476.15929 242.035781 
L 476.15929 241.866891 
L 472.988513 241.866891 
z
" clip-path="url(#p49a1e9255b)" style="fill: #7aa95c; opacity: 0.75"/>
   </g>
   <g id="patch_139">
    <path d="M 476.15929 242.035781 
L 479.330067 242.035781 
L 479.330067 241.909114 
L 476.15929 241.909114 
z
" clip-path="url(#p49a1e9255b)" style="fill: #7aa95c; opacity: 0.75"/>
   </g>
   <g id="patch_140">
    <path d="M 479.330067 242.035781 
L 482.500844 242.035781 
L 482.500844 241.444666 
L 479.330067 241.444666 
z
" clip-path="url(#p49a1e9255b)" style="fill: #7aa95c; opacity: 0.75"/>
   </g>
   <g id="patch_141">
    <path d="M 482.500844 242.035781 
L 485.671621 242.035781 
L 485.671621 241.444666 
L 482.500844 241.444666 
z
" clip-path="url(#p49a1e9255b)" style="fill: #7aa95c; opacity: 0.75"/>
   </g>
   <g id="patch_142">
    <path d="M 485.671621 242.035781 
L 488.842397 242.035781 
L 488.842397 241.296887 
L 485.671621 241.296887 
z
" clip-path="url(#p49a1e9255b)" style="fill: #7aa95c; opacity: 0.75"/>
   </g>
   <g id="patch_143">
    <path d="M 488.842397 242.035781 
L 492.013174 242.035781 
L 492.013174 241.106885 
L 488.842397 241.106885 
z
" clip-path="url(#p49a1e9255b)" style="fill: #7aa95c; opacity: 0.75"/>
   </g>
   <g id="patch_144">
    <path d="M 492.013174 242.035781 
L 495.183951 242.035781 
L 495.183951 240.642437 
L 492.013174 240.642437 
z
" clip-path="url(#p49a1e9255b)" style="fill: #7aa95c; opacity: 0.75"/>
   </g>
   <g id="patch_145">
    <path d="M 495.183951 242.035781 
L 498.354728 242.035781 
L 498.354728 240.557992 
L 495.183951 240.557992 
z
" clip-path="url(#p49a1e9255b)" style="fill: #7aa95c; opacity: 0.75"/>
   </g>
   <g id="patch_146">
    <path d="M 498.354728 242.035781 
L 501.525505 242.035781 
L 501.525505 239.586874 
L 498.354728 239.586874 
z
" clip-path="url(#p49a1e9255b)" style="fill: #7aa95c; opacity: 0.75"/>
   </g>
   <g id="patch_147">
    <path d="M 501.525505 242.035781 
L 504.696282 242.035781 
L 504.696282 239.059092 
L 501.525505 239.059092 
z
" clip-path="url(#p49a1e9255b)" style="fill: #7aa95c; opacity: 0.75"/>
   </g>
   <g id="patch_148">
    <path d="M 504.696282 242.035781 
L 507.867059 242.035781 
L 507.867059 237.475747 
L 504.696282 237.475747 
z
" clip-path="url(#p49a1e9255b)" style="fill: #7aa95c; opacity: 0.75"/>
   </g>
   <g id="patch_149">
    <path d="M 507.867059 242.035781 
L 511.037836 242.035781 
L 511.037836 235.765734 
L 507.867059 235.765734 
z
" clip-path="url(#p49a1e9255b)" style="fill: #7aa95c; opacity: 0.75"/>
   </g>
   <g id="patch_150">
    <path d="M 511.037836 242.035781 
L 514.208613 242.035781 
L 514.208613 235.216841 
L 511.037836 235.216841 
z
" clip-path="url(#p49a1e9255b)" style="fill: #7aa95c; opacity: 0.75"/>
   </g>
   <g id="patch_151">
    <path d="M 514.208613 242.035781 
L 517.379389 242.035781 
L 517.379389 233.105714 
L 514.208613 233.105714 
z
" clip-path="url(#p49a1e9255b)" style="fill: #7aa95c; opacity: 0.75"/>
   </g>
   <g id="patch_152">
    <path d="M 517.379389 242.035781 
L 520.550166 242.035781 
L 520.550166 230.72014 
L 517.379389 230.72014 
z
" clip-path="url(#p49a1e9255b)" style="fill: #7aa95c; opacity: 0.75"/>
   </g>
   <g id="patch_153">
    <path d="M 520.550166 242.035781 
L 523.720943 242.035781 
L 523.720943 228.165677 
L 520.550166 228.165677 
z
" clip-path="url(#p49a1e9255b)" style="fill: #7aa95c; opacity: 0.75"/>
   </g>
   <g id="patch_154">
    <path d="M 523.720943 242.035781 
L 526.89172 242.035781 
L 526.89172 223.310085 
L 523.720943 223.310085 
z
" clip-path="url(#p49a1e9255b)" style="fill: #7aa95c; opacity: 0.75"/>
   </g>
   <g id="patch_155">
    <path d="M 526.89172 242.035781 
L 530.062497 242.035781 
L 530.062497 219.890059 
L 526.89172 219.890059 
z
" clip-path="url(#p49a1e9255b)" style="fill: #7aa95c; opacity: 0.75"/>
   </g>
   <g id="patch_156">
    <path d="M 530.062497 242.035781 
L 533.233274 242.035781 
L 533.233274 214.464462 
L 530.062497 214.464462 
z
" clip-path="url(#p49a1e9255b)" style="fill: #7aa95c; opacity: 0.75"/>
   </g>
   <g id="patch_157">
    <path d="M 533.233274 242.035781 
L 536.404051 242.035781 
L 536.404051 209.883317 
L 533.233274 209.883317 
z
" clip-path="url(#p49a1e9255b)" style="fill: #7aa95c; opacity: 0.75"/>
   </g>
   <g id="patch_158">
    <path d="M 536.404051 242.035781 
L 539.574828 242.035781 
L 539.574828 200.763248 
L 536.404051 200.763248 
z
" clip-path="url(#p49a1e9255b)" style="fill: #7aa95c; opacity: 0.75"/>
   </g>
   <g id="patch_159">
    <path d="M 539.574828 242.035781 
L 542.745605 242.035781 
L 542.745605 194.15542 
L 539.574828 194.15542 
z
" clip-path="url(#p49a1e9255b)" style="fill: #7aa95c; opacity: 0.75"/>
   </g>
   <g id="patch_160">
    <path d="M 542.745605 242.035781 
L 545.916381 242.035781 
L 545.916381 185.077574 
L 542.745605 185.077574 
z
" clip-path="url(#p49a1e9255b)" style="fill: #7aa95c; opacity: 0.75"/>
   </g>
   <g id="patch_161">
    <path d="M 545.916381 242.035781 
L 549.087158 242.035781 
L 549.087158 173.761933 
L 545.916381 173.761933 
z
" clip-path="url(#p49a1e9255b)" style="fill: #7aa95c; opacity: 0.75"/>
   </g>
   <g id="patch_162">
    <path d="M 549.087158 242.035781 
L 552.257935 242.035781 
L 552.257935 165.676317 
L 549.087158 165.676317 
z
" clip-path="url(#p49a1e9255b)" style="fill: #7aa95c; opacity: 0.75"/>
   </g>
   <g id="patch_163">
    <path d="M 552.257935 242.035781 
L 555.428712 242.035781 
L 555.428712 155.352906 
L 552.257935 155.352906 
z
" clip-path="url(#p49a1e9255b)" style="fill: #7aa95c; opacity: 0.75"/>
   </g>
   <g id="patch_164">
    <path d="M 555.428712 242.035781 
L 558.599489 242.035781 
L 558.599489 145.388386 
L 555.428712 145.388386 
z
" clip-path="url(#p49a1e9255b)" style="fill: #7aa95c; opacity: 0.75"/>
   </g>
   <g id="patch_165">
    <path d="M 558.599489 242.035781 
L 561.770266 242.035781 
L 561.770266 130.441607 
L 558.599489 130.441607 
z
" clip-path="url(#p49a1e9255b)" style="fill: #7aa95c; opacity: 0.75"/>
   </g>
   <g id="patch_166">
    <path d="M 561.770266 242.035781 
L 564.941043 242.035781 
L 564.941043 118.851519 
L 561.770266 118.851519 
z
" clip-path="url(#p49a1e9255b)" style="fill: #7aa95c; opacity: 0.75"/>
   </g>
   <g id="patch_167">
    <path d="M 564.941043 242.035781 
L 568.11182 242.035781 
L 568.11182 106.015867 
L 564.941043 106.015867 
z
" clip-path="url(#p49a1e9255b)" style="fill: #7aa95c; opacity: 0.75"/>
   </g>
   <g id="patch_168">
    <path d="M 568.11182 242.035781 
L 571.282597 242.035781 
L 571.282597 97.212467 
L 568.11182 97.212467 
z
" clip-path="url(#p49a1e9255b)" style="fill: #7aa95c; opacity: 0.75"/>
   </g>
   <g id="patch_169">
    <path d="M 571.282597 242.035781 
L 574.453373 242.035781 
L 574.453373 80.049005 
L 571.282597 80.049005 
z
" clip-path="url(#p49a1e9255b)" style="fill: #7aa95c; opacity: 0.75"/>
   </g>
   <g id="patch_170">
    <path d="M 574.453373 242.035781 
L 577.62415 242.035781 
L 577.62415 72.448947 
L 574.453373 72.448947 
z
" clip-path="url(#p49a1e9255b)" style="fill: #7aa95c; opacity: 0.75"/>
   </g>
   <g id="patch_171">
    <path d="M 577.62415 242.035781 
L 580.794927 242.035781 
L 580.794927 63.075543 
L 577.62415 63.075543 
z
" clip-path="url(#p49a1e9255b)" style="fill: #7aa95c; opacity: 0.75"/>
   </g>
   <g id="patch_172">
    <path d="M 580.794927 242.035781 
L 583.965704 242.035781 
L 583.965704 53.807696 
L 580.794927 53.807696 
z
" clip-path="url(#p49a1e9255b)" style="fill: #7aa95c; opacity: 0.75"/>
   </g>
   <g id="patch_173">
    <path d="M 583.965704 242.035781 
L 587.136481 242.035781 
L 587.136481 44.476514 
L 583.965704 44.476514 
z
" clip-path="url(#p49a1e9255b)" style="fill: #7aa95c; opacity: 0.75"/>
   </g>
   <g id="patch_174">
    <path d="M 587.136481 242.035781 
L 590.307258 242.035781 
L 590.307258 35.715337 
L 587.136481 35.715337 
z
" clip-path="url(#p49a1e9255b)" style="fill: #7aa95c; opacity: 0.75"/>
   </g>
   <g id="patch_175">
    <path d="M 590.307258 242.035781 
L 593.478035 242.035781 
L 593.478035 35.715337 
L 590.307258 35.715337 
z
" clip-path="url(#p49a1e9255b)" style="fill: #7aa95c; opacity: 0.75"/>
   </g>
   <g id="patch_176">
    <path d="M 593.478035 242.035781 
L 596.648812 242.035781 
L 596.648812 32.780871 
L 593.478035 32.780871 
z
" clip-path="url(#p49a1e9255b)" style="fill: #7aa95c; opacity: 0.75"/>
   </g>
   <g id="patch_177">
    <path d="M 596.648812 242.035781 
L 599.819589 242.035781 
L 599.819589 35.335334 
L 596.648812 35.335334 
z
" clip-path="url(#p49a1e9255b)" style="fill: #7aa95c; opacity: 0.75"/>
   </g>
   <g id="patch_178">
    <path d="M 599.819589 242.035781 
L 602.990365 242.035781 
L 602.990365 33.794212 
L 599.819589 33.794212 
z
" clip-path="url(#p49a1e9255b)" style="fill: #7aa95c; opacity: 0.75"/>
   </g>
   <g id="patch_179">
    <path d="M 602.990365 242.035781 
L 606.161142 242.035781 
L 606.161142 41.035377 
L 602.990365 41.035377 
z
" clip-path="url(#p49a1e9255b)" style="fill: #7aa95c; opacity: 0.75"/>
   </g>
   <g id="patch_180">
    <path d="M 606.161142 242.035781 
L 609.331919 242.035781 
L 609.331919 48.529878 
L 606.161142 48.529878 
z
" clip-path="url(#p49a1e9255b)" style="fill: #7aa95c; opacity: 0.75"/>
   </g>
   <g id="patch_181">
    <path d="M 609.331919 242.035781 
L 612.502696 242.035781 
L 612.502696 55.517709 
L 609.331919 55.517709 
z
" clip-path="url(#p49a1e9255b)" style="fill: #7aa95c; opacity: 0.75"/>
   </g>
   <g id="patch_182">
    <path d="M 612.502696 242.035781 
L 615.673473 242.035781 
L 615.673473 65.967787 
L 612.502696 65.967787 
z
" clip-path="url(#p49a1e9255b)" style="fill: #7aa95c; opacity: 0.75"/>
   </g>
   <g id="patch_183">
    <path d="M 615.673473 242.035781 
L 618.84425 242.035781 
L 618.84425 74.940077 
L 615.673473 74.940077 
z
" clip-path="url(#p49a1e9255b)" style="fill: #7aa95c; opacity: 0.75"/>
   </g>
   <g id="patch_184">
    <path d="M 618.84425 242.035781 
L 622.015027 242.035781 
L 622.015027 86.44572 
L 618.84425 86.44572 
z
" clip-path="url(#p49a1e9255b)" style="fill: #7aa95c; opacity: 0.75"/>
   </g>
   <g id="patch_185">
    <path d="M 622.015027 242.035781 
L 625.185804 242.035781 
L 625.185804 96.726908 
L 622.015027 96.726908 
z
" clip-path="url(#p49a1e9255b)" style="fill: #7aa95c; opacity: 0.75"/>
   </g>
   <g id="patch_186">
    <path d="M 625.185804 242.035781 
L 628.35658 242.035781 
L 628.35658 111.927023 
L 625.185804 111.927023 
z
" clip-path="url(#p49a1e9255b)" style="fill: #7aa95c; opacity: 0.75"/>
   </g>
   <g id="patch_187">
    <path d="M 628.35658 242.035781 
L 631.527357 242.035781 
L 631.527357 122.398213 
L 628.35658 122.398213 
z
" clip-path="url(#p49a1e9255b)" style="fill: #7aa95c; opacity: 0.75"/>
   </g>
   <g id="patch_188">
    <path d="M 631.527357 242.035781 
L 634.698134 242.035781 
L 634.698134 132.404955 
L 631.527357 132.404955 
z
" clip-path="url(#p49a1e9255b)" style="fill: #7aa95c; opacity: 0.75"/>
   </g>
   <g id="patch_189">
    <path d="M 634.698134 242.035781 
L 637.868911 242.035781 
L 637.868911 147.267289 
L 634.698134 147.267289 
z
" clip-path="url(#p49a1e9255b)" style="fill: #7aa95c; opacity: 0.75"/>
   </g>
   <g id="patch_190">
    <path d="M 637.868911 242.035781 
L 641.039688 242.035781 
L 641.039688 159.57516 
L 637.868911 159.57516 
z
" clip-path="url(#p49a1e9255b)" style="fill: #7aa95c; opacity: 0.75"/>
   </g>
   <g id="patch_191">
    <path d="M 641.039688 242.035781 
L 644.210465 242.035781 
L 644.210465 168.188558 
L 641.039688 168.188558 
z
" clip-path="url(#p49a1e9255b)" style="fill: #7aa95c; opacity: 0.75"/>
   </g>
   <g id="patch_192">
    <path d="M 644.210465 242.035781 
L 647.381242 242.035781 
L 647.381242 180.053092 
L 644.210465 180.053092 
z
" clip-path="url(#p49a1e9255b)" style="fill: #7aa95c; opacity: 0.75"/>
   </g>
   <g id="patch_193">
    <path d="M 647.381242 242.035781 
L 650.552019 242.035781 
L 650.552019 187.653149 
L 647.381242 187.653149 
z
" clip-path="url(#p49a1e9255b)" style="fill: #7aa95c; opacity: 0.75"/>
   </g>
   <g id="patch_194">
    <path d="M 650.552019 242.035781 
L 653.722796 242.035781 
L 653.722796 197.110998 
L 650.552019 197.110998 
z
" clip-path="url(#p49a1e9255b)" style="fill: #7aa95c; opacity: 0.75"/>
   </g>
   <g id="patch_195">
    <path d="M 653.722796 242.035781 
L 656.893572 242.035781 
L 656.893572 202.219926 
L 653.722796 202.219926 
z
" clip-path="url(#p49a1e9255b)" style="fill: #7aa95c; opacity: 0.75"/>
   </g>
   <g id="patch_196">
    <path d="M 656.893572 242.035781 
L 660.064349 242.035781 
L 660.064349 210.558877 
L 656.893572 210.558877 
z
" clip-path="url(#p49a1e9255b)" style="fill: #7aa95c; opacity: 0.75"/>
   </g>
   <g id="patch_197">
    <path d="M 660.064349 242.035781 
L 663.235126 242.035781 
L 663.235126 214.781131 
L 660.064349 214.781131 
z
" clip-path="url(#p49a1e9255b)" style="fill: #7aa95c; opacity: 0.75"/>
   </g>
   <g id="patch_198">
    <path d="M 663.235126 242.035781 
L 666.405903 242.035781 
L 666.405903 221.220069 
L 663.235126 221.220069 
z
" clip-path="url(#p49a1e9255b)" style="fill: #7aa95c; opacity: 0.75"/>
   </g>
   <g id="patch_199">
    <path d="M 666.405903 242.035781 
L 669.57668 242.035781 
L 669.57668 225.484545 
L 666.405903 225.484545 
z
" clip-path="url(#p49a1e9255b)" style="fill: #7aa95c; opacity: 0.75"/>
   </g>
   <g id="patch_200">
    <path d="M 669.57668 242.035781 
L 672.747457 242.035781 
L 672.747457 228.693458 
L 669.57668 228.693458 
z
" clip-path="url(#p49a1e9255b)" style="fill: #7aa95c; opacity: 0.75"/>
   </g>
   <g id="patch_201">
    <path d="M 672.747457 242.035781 
L 675.918234 242.035781 
L 675.918234 230.741252 
L 672.747457 230.741252 
z
" clip-path="url(#p49a1e9255b)" style="fill: #7aa95c; opacity: 0.75"/>
   </g>
   <g id="patch_202">
    <path d="M 675.918234 242.035781 
L 679.089011 242.035781 
L 679.089011 234.245723 
L 675.918234 234.245723 
z
" clip-path="url(#p49a1e9255b)" style="fill: #7aa95c; opacity: 0.75"/>
   </g>
   <g id="patch_203">
    <path d="M 679.089011 242.035781 
L 682.259788 242.035781 
L 682.259788 235.322397 
L 679.089011 235.322397 
z
" clip-path="url(#p49a1e9255b)" style="fill: #7aa95c; opacity: 0.75"/>
   </g>
   <g id="patch_204">
    <path d="M 682.259788 242.035781 
L 685.430564 242.035781 
L 685.430564 236.842409 
L 682.259788 236.842409 
z
" clip-path="url(#p49a1e9255b)" style="fill: #7aa95c; opacity: 0.75"/>
   </g>
   <g id="patch_205">
    <path d="M 685.430564 242.035781 
L 688.601341 242.035781 
L 688.601341 238.594644 
L 685.430564 238.594644 
z
" clip-path="url(#p49a1e9255b)" style="fill: #7aa95c; opacity: 0.75"/>
   </g>
   <g id="patch_206">
    <path d="M 688.601341 242.035781 
L 691.772118 242.035781 
L 691.772118 239.333539 
L 688.601341 239.333539 
z
" clip-path="url(#p49a1e9255b)" style="fill: #7aa95c; opacity: 0.75"/>
   </g>
   <g id="patch_207">
    <path d="M 691.772118 242.035781 
L 694.942895 242.035781 
L 694.942895 239.882432 
L 691.772118 239.882432 
z
" clip-path="url(#p49a1e9255b)" style="fill: #7aa95c; opacity: 0.75"/>
   </g>
   <g id="patch_208">
    <path d="M 694.942895 242.035781 
L 698.113672 242.035781 
L 698.113672 240.389102 
L 694.942895 240.389102 
z
" clip-path="url(#p49a1e9255b)" style="fill: #7aa95c; opacity: 0.75"/>
   </g>
   <g id="patch_209">
    <path d="M 698.113672 242.035781 
L 701.284449 242.035781 
L 701.284449 240.937995 
L 698.113672 240.937995 
z
" clip-path="url(#p49a1e9255b)" style="fill: #7aa95c; opacity: 0.75"/>
   </g>
   <g id="patch_210">
    <path d="M 701.284449 242.035781 
L 704.455226 242.035781 
L 704.455226 241.317998 
L 701.284449 241.317998 
z
" clip-path="url(#p49a1e9255b)" style="fill: #7aa95c; opacity: 0.75"/>
   </g>
   <g id="patch_211">
    <path d="M 704.455226 242.035781 
L 707.626003 242.035781 
L 707.626003 241.402443 
L 704.455226 241.402443 
z
" clip-path="url(#p49a1e9255b)" style="fill: #7aa95c; opacity: 0.75"/>
   </g>
   <g id="patch_212">
    <path d="M 707.626003 242.035781 
L 710.79678 242.035781 
L 710.79678 241.550222 
L 707.626003 241.550222 
z
" clip-path="url(#p49a1e9255b)" style="fill: #7aa95c; opacity: 0.75"/>
   </g>
   <g id="patch_213">
    <path d="M 710.79678 242.035781 
L 713.967556 242.035781 
L 713.967556 241.761335 
L 710.79678 241.761335 
z
" clip-path="url(#p49a1e9255b)" style="fill: #7aa95c; opacity: 0.75"/>
   </g>
   <g id="patch_214">
    <path d="M 713.967556 242.035781 
L 717.138333 242.035781 
L 717.138333 241.84578 
L 713.967556 241.84578 
z
" clip-path="url(#p49a1e9255b)" style="fill: #7aa95c; opacity: 0.75"/>
   </g>
   <g id="patch_215">
    <path d="M 717.138333 242.035781 
L 720.30911 242.035781 
L 720.30911 241.993559 
L 717.138333 241.993559 
z
" clip-path="url(#p49a1e9255b)" style="fill: #7aa95c; opacity: 0.75"/>
   </g>
   <g id="patch_216">
    <path d="M 720.30911 242.035781 
L 723.479887 242.035781 
L 723.479887 241.930225 
L 720.30911 241.930225 
z
" clip-path="url(#p49a1e9255b)" style="fill: #7aa95c; opacity: 0.75"/>
   </g>
   <g id="patch_217">
    <path d="M 723.479887 242.035781 
L 726.650664 242.035781 
L 726.650664 242.01467 
L 723.479887 242.01467 
z
" clip-path="url(#p49a1e9255b)" style="fill: #7aa95c; opacity: 0.75"/>
   </g>
   <g id="patch_218">
    <path d="M 726.650664 242.035781 
L 729.821441 242.035781 
L 729.821441 241.84578 
L 726.650664 241.84578 
z
" clip-path="url(#p49a1e9255b)" style="fill: #7aa95c; opacity: 0.75"/>
   </g>
   <g id="patch_219">
    <path d="M 729.821441 242.035781 
L 732.992218 242.035781 
L 732.992218 242.01467 
L 729.821441 242.01467 
z
" clip-path="url(#p49a1e9255b)" style="fill: #7aa95c; opacity: 0.75"/>
   </g>
   <g id="patch_220">
    <path d="M 732.992218 242.035781 
L 736.162995 242.035781 
L 736.162995 242.035781 
L 732.992218 242.035781 
z
" clip-path="url(#p49a1e9255b)" style="fill: #7aa95c; opacity: 0.75"/>
   </g>
   <g id="patch_221">
    <path d="M 736.162995 242.035781 
L 739.333772 242.035781 
L 739.333772 242.035781 
L 736.162995 242.035781 
z
" clip-path="url(#p49a1e9255b)" style="fill: #7aa95c; opacity: 0.75"/>
   </g>
   <g id="patch_222">
    <path d="M 739.333772 242.035781 
L 742.504548 242.035781 
L 742.504548 242.035781 
L 739.333772 242.035781 
z
" clip-path="url(#p49a1e9255b)" style="fill: #7aa95c; opacity: 0.75"/>
   </g>
   <g id="patch_223">
    <path d="M 742.504548 242.035781 
L 745.675325 242.035781 
L 745.675325 242.035781 
L 742.504548 242.035781 
z
" clip-path="url(#p49a1e9255b)" style="fill: #7aa95c; opacity: 0.75"/>
   </g>
   <g id="patch_224">
    <path d="M 745.675325 242.035781 
L 748.846102 242.035781 
L 748.846102 242.035781 
L 745.675325 242.035781 
z
" clip-path="url(#p49a1e9255b)" style="fill: #7aa95c; opacity: 0.75"/>
   </g>
   <g id="patch_225">
    <path d="M 748.846102 242.035781 
L 752.016879 242.035781 
L 752.016879 242.035781 
L 748.846102 242.035781 
z
" clip-path="url(#p49a1e9255b)" style="fill: #7aa95c; opacity: 0.75"/>
   </g>
   <g id="patch_226">
    <path d="M 752.016879 242.035781 
L 755.187656 242.035781 
L 755.187656 242.01467 
L 752.016879 242.01467 
z
" clip-path="url(#p49a1e9255b)" style="fill: #7aa95c; opacity: 0.75"/>
   </g>
   <g id="matplotlib.axis_3">
    <g id="xtick_6">
     <g id="line2d_31">
      <path d="M 463.943588 242.035781 
L 463.943588 22.318125 
" clip-path="url(#p49a1e9255b)" style="fill: none; stroke: #b0b0b0; stroke-width: 0.8; stroke-linecap: square"/>
     </g>
     <g id="line2d_32">
      <g>
       <use xlink:href="#mb7476a132b" x="463.943588" y="242.035781" style="stroke: #000000; stroke-width: 0.8"/>
      </g>
     </g>
     <g id="text_18">
      <!-- −0.2 -->
      <g transform="translate(451.802182 256.633438) scale(0.1 -0.1)">
       <defs>
        <path id="DejaVuSans-c9c" d="M 678 2272 
L 4684 2272 
L 4684 1741 
L 678 1741 
L 678 2272 
z
" transform="scale(0.015625)"/>
       </defs>
       <use xlink:href="#DejaVuSans-c9c"/>
       <use xlink:href="#DejaVuSans-13" transform="translate(83.796875 0)"/>
       <use xlink:href="#DejaVuSans-11" transform="translate(147.421875 0)"/>
       <use xlink:href="#DejaVuSans-15" transform="translate(179.203125 0)"/>
      </g>
     </g>
    </g>
    <g id="xtick_7">
     <g id="line2d_33">
      <path d="M 514.782605 242.035781 
L 514.782605 22.318125 
" clip-path="url(#p49a1e9255b)" style="fill: none; stroke: #b0b0b0; stroke-width: 0.8; stroke-linecap: square"/>
     </g>
     <g id="line2d_34">
      <g>
       <use xlink:href="#mb7476a132b" x="514.782605" y="242.035781" style="stroke: #000000; stroke-width: 0.8"/>
      </g>
     </g>
     <g id="text_19">
      <!-- −0.1 -->
      <g transform="translate(502.641198 256.633438) scale(0.1 -0.1)">
       <use xlink:href="#DejaVuSans-c9c"/>
       <use xlink:href="#DejaVuSans-13" transform="translate(83.796875 0)"/>
       <use xlink:href="#DejaVuSans-11" transform="translate(147.421875 0)"/>
       <use xlink:href="#DejaVuSans-14" transform="translate(179.203125 0)"/>
      </g>
     </g>
    </g>
    <g id="xtick_8">
     <g id="line2d_35">
      <path d="M 565.621621 242.035781 
L 565.621621 22.318125 
" clip-path="url(#p49a1e9255b)" style="fill: none; stroke: #b0b0b0; stroke-width: 0.8; stroke-linecap: square"/>
     </g>
     <g id="line2d_36">
      <g>
       <use xlink:href="#mb7476a132b" x="565.621621" y="242.035781" style="stroke: #000000; stroke-width: 0.8"/>
      </g>
     </g>
     <g id="text_20">
      <!-- 0.0 -->
      <g transform="translate(557.670058 256.633438) scale(0.1 -0.1)">
       <use xlink:href="#DejaVuSans-13"/>
       <use xlink:href="#DejaVuSans-11" transform="translate(63.625 0)"/>
       <use xlink:href="#DejaVuSans-13" transform="translate(95.40625 0)"/>
      </g>
     </g>
    </g>
    <g id="xtick_9">
     <g id="line2d_37">
      <path d="M 616.460637 242.035781 
L 616.460637 22.318125 
" clip-path="url(#p49a1e9255b)" style="fill: none; stroke: #b0b0b0; stroke-width: 0.8; stroke-linecap: square"/>
     </g>
     <g id="line2d_38">
      <g>
       <use xlink:href="#mb7476a132b" x="616.460637" y="242.035781" style="stroke: #000000; stroke-width: 0.8"/>
      </g>
     </g>
     <g id="text_21">
      <!-- 0.1 -->
      <g transform="translate(608.509075 256.633438) scale(0.1 -0.1)">
       <use xlink:href="#DejaVuSans-13"/>
       <use xlink:href="#DejaVuSans-11" transform="translate(63.625 0)"/>
       <use xlink:href="#DejaVuSans-14" transform="translate(95.40625 0)"/>
      </g>
     </g>
    </g>
    <g id="xtick_10">
     <g id="line2d_39">
      <path d="M 667.299654 242.035781 
L 667.299654 22.318125 
" clip-path="url(#p49a1e9255b)" style="fill: none; stroke: #b0b0b0; stroke-width: 0.8; stroke-linecap: square"/>
     </g>
     <g id="line2d_40">
      <g>
       <use xlink:href="#mb7476a132b" x="667.299654" y="242.035781" style="stroke: #000000; stroke-width: 0.8"/>
      </g>
     </g>
     <g id="text_22">
      <!-- 0.2 -->
      <g transform="translate(659.348091 256.633438) scale(0.1 -0.1)">
       <use xlink:href="#DejaVuSans-13"/>
       <use xlink:href="#DejaVuSans-11" transform="translate(63.625 0)"/>
       <use xlink:href="#DejaVuSans-15" transform="translate(95.40625 0)"/>
      </g>
     </g>
    </g>
    <g id="xtick_11">
     <g id="line2d_41">
      <path d="M 718.13867 242.035781 
L 718.13867 22.318125 
" clip-path="url(#p49a1e9255b)" style="fill: none; stroke: #b0b0b0; stroke-width: 0.8; stroke-linecap: square"/>
     </g>
     <g id="line2d_42">
      <g>
       <use xlink:href="#mb7476a132b" x="718.13867" y="242.035781" style="stroke: #000000; stroke-width: 0.8"/>
      </g>
     </g>
     <g id="text_23">
      <!-- 0.3 -->
      <g transform="translate(710.187107 256.633438) scale(0.1 -0.1)">
       <use xlink:href="#DejaVuSans-13"/>
       <use xlink:href="#DejaVuSans-11" transform="translate(63.625 0)"/>
       <use xlink:href="#DejaVuSans-16" transform="translate(95.40625 0)"/>
      </g>
     </g>
    </g>
    <g id="xtick_12">
     <g id="line2d_43">
      <path d="M 768.977686 242.035781 
L 768.977686 22.318125 
" clip-path="url(#p49a1e9255b)" style="fill: none; stroke: #b0b0b0; stroke-width: 0.8; stroke-linecap: square"/>
     </g>
     <g id="line2d_44">
      <g>
       <use xlink:href="#mb7476a132b" x="768.977686" y="242.035781" style="stroke: #000000; stroke-width: 0.8"/>
      </g>
     </g>
     <g id="text_24">
      <!-- 0.4 -->
      <g transform="translate(761.026124 256.633438) scale(0.1 -0.1)">
       <use xlink:href="#DejaVuSans-13"/>
       <use xlink:href="#DejaVuSans-11" transform="translate(63.625 0)"/>
       <use xlink:href="#DejaVuSans-17" transform="translate(95.40625 0)"/>
      </g>
     </g>
    </g>
    <g id="text_25">
     <!-- log(S(T)/S0) / T -->
     <g transform="translate(559.038655 270.634219) scale(0.1 -0.1)">
      <defs>
       <path id="DejaVuSans-52" d="M 1959 3097 
Q 1497 3097 1228 2736 
Q 959 2375 959 1747 
Q 959 1119 1226 758 
Q 1494 397 1959 397 
Q 2419 397 2687 759 
Q 2956 1122 2956 1747 
Q 2956 2369 2687 2733 
Q 2419 3097 1959 3097 
z
M 1959 3584 
Q 2709 3584 3137 3096 
Q 3566 2609 3566 1747 
Q 3566 888 3137 398 
Q 2709 -91 1959 -91 
Q 1206 -91 779 398 
Q 353 888 353 1747 
Q 353 2609 779 3096 
Q 1206 3584 1959 3584 
z
" transform="scale(0.015625)"/>
       <path id="DejaVuSans-4a" d="M 2906 1791 
Q 2906 2416 2648 2759 
Q 2391 3103 1925 3103 
Q 1463 3103 1205 2759 
Q 947 2416 947 1791 
Q 947 1169 1205 825 
Q 1463 481 1925 481 
Q 2391 481 2648 825 
Q 2906 1169 2906 1791 
z
M 3481 434 
Q 3481 -459 3084 -895 
Q 2688 -1331 1869 -1331 
Q 1566 -1331 1297 -1286 
Q 1028 -1241 775 -1147 
L 775 -588 
Q 1028 -725 1275 -790 
Q 1522 -856 1778 -856 
Q 2344 -856 2625 -561 
Q 2906 -266 2906 331 
L 2906 616 
Q 2728 306 2450 153 
Q 2172 0 1784 0 
Q 1141 0 747 490 
Q 353 981 353 1791 
Q 353 2603 747 3093 
Q 1141 3584 1784 3584 
Q 2172 3584 2450 3431 
Q 2728 3278 2906 2969 
L 2906 3500 
L 3481 3500 
L 3481 434 
z
" transform="scale(0.015625)"/>
       <path id="DejaVuSans-12" d="M 1625 4666 
L 2156 4666 
L 531 -594 
L 0 -594 
L 1625 4666 
z
" transform="scale(0.015625)"/>
      </defs>
      <use xlink:href="#DejaVuSans-4f"/>
      <use xlink:href="#DejaVuSans-52" transform="translate(27.78125 0)"/>
      <use xlink:href="#DejaVuSans-4a" transform="translate(88.96875 0)"/>
      <use xlink:href="#DejaVuSans-b" transform="translate(152.453125 0)"/>
      <use xlink:href="#DejaVuSans-36" transform="translate(191.46875 0)"/>
      <use xlink:href="#DejaVuSans-b" transform="translate(254.953125 0)"/>
      <use xlink:href="#DejaVuSans-37" transform="translate(293.96875 0)"/>
      <use xlink:href="#DejaVuSans-c" transform="translate(355.046875 0)"/>
      <use xlink:href="#DejaVuSans-12" transform="translate(394.0625 0)"/>
      <use xlink:href="#DejaVuSans-36" transform="translate(427.75 0)"/>
      <use xlink:href="#DejaVuSans-13" transform="translate(491.234375 0)"/>
      <use xlink:href="#DejaVuSans-c" transform="translate(554.859375 0)"/>
      <use xlink:href="#DejaVuSans-3" transform="translate(593.875 0)"/>
      <use xlink:href="#DejaVuSans-12" transform="translate(625.65625 0)"/>
      <use xlink:href="#DejaVuSans-3" transform="translate(659.34375 0)"/>
      <use xlink:href="#DejaVuSans-37" transform="translate(691.125 0)"/>
     </g>
    </g>
   </g>
   <g id="matplotlib.axis_4">
    <g id="ytick_10">
     <g id="line2d_45">
      <path d="M 422.256083 242.035781 
L 771.04154 242.035781 
" clip-path="url(#p49a1e9255b)" style="fill: none; stroke: #b0b0b0; stroke-width: 0.8; stroke-linecap: square"/>
     </g>
     <g id="line2d_46">
      <g>
       <use xlink:href="#m1cbe2c39ef" x="422.256083" y="242.035781" style="stroke: #000000; stroke-width: 0.8"/>
      </g>
     </g>
     <g id="text_26">
      <!-- 0 -->
      <g transform="translate(408.893583 245.834609) scale(0.1 -0.1)">
       <use xlink:href="#DejaVuSans-13"/>
      </g>
     </g>
    </g>
    <g id="ytick_11">
     <g id="line2d_47">
      <path d="M 422.256083 209.118579 
L 771.04154 209.118579 
" clip-path="url(#p49a1e9255b)" style="fill: none; stroke: #b0b0b0; stroke-width: 0.8; stroke-linecap: square"/>
     </g>
     <g id="line2d_48">
      <g>
       <use xlink:href="#m1cbe2c39ef" x="422.256083" y="209.118579" style="stroke: #000000; stroke-width: 0.8"/>
      </g>
     </g>
     <g id="text_27">
      <!-- 1 -->
      <g transform="translate(408.893583 212.917407) scale(0.1 -0.1)">
       <use xlink:href="#DejaVuSans-14"/>
      </g>
     </g>
    </g>
    <g id="ytick_12">
     <g id="line2d_49">
      <path d="M 422.256083 176.201376 
L 771.04154 176.201376 
" clip-path="url(#p49a1e9255b)" style="fill: none; stroke: #b0b0b0; stroke-width: 0.8; stroke-linecap: square"/>
     </g>
     <g id="line2d_50">
      <g>
       <use xlink:href="#m1cbe2c39ef" x="422.256083" y="176.201376" style="stroke: #000000; stroke-width: 0.8"/>
      </g>
     </g>
     <g id="text_28">
      <!-- 2 -->
      <g transform="translate(408.893583 180.000204) scale(0.1 -0.1)">
       <use xlink:href="#DejaVuSans-15"/>
      </g>
     </g>
    </g>
    <g id="ytick_13">
     <g id="line2d_51">
      <path d="M 422.256083 143.284174 
L 771.04154 143.284174 
" clip-path="url(#p49a1e9255b)" style="fill: none; stroke: #b0b0b0; stroke-width: 0.8; stroke-linecap: square"/>
     </g>
     <g id="line2d_52">
      <g>
       <use xlink:href="#m1cbe2c39ef" x="422.256083" y="143.284174" style="stroke: #000000; stroke-width: 0.8"/>
      </g>
     </g>
     <g id="text_29">
      <!-- 3 -->
      <g transform="translate(408.893583 147.083002) scale(0.1 -0.1)">
       <use xlink:href="#DejaVuSans-16"/>
      </g>
     </g>
    </g>
    <g id="ytick_14">
     <g id="line2d_53">
      <path d="M 422.256083 110.366971 
L 771.04154 110.366971 
" clip-path="url(#p49a1e9255b)" style="fill: none; stroke: #b0b0b0; stroke-width: 0.8; stroke-linecap: square"/>
     </g>
     <g id="line2d_54">
      <g>
       <use xlink:href="#m1cbe2c39ef" x="422.256083" y="110.366971" style="stroke: #000000; stroke-width: 0.8"/>
      </g>
     </g>
     <g id="text_30">
      <!-- 4 -->
      <g transform="translate(408.893583 114.165799) scale(0.1 -0.1)">
       <use xlink:href="#DejaVuSans-17"/>
      </g>
     </g>
    </g>
    <g id="ytick_15">
     <g id="line2d_55">
      <path d="M 422.256083 77.449769 
L 771.04154 77.449769 
" clip-path="url(#p49a1e9255b)" style="fill: none; stroke: #b0b0b0; stroke-width: 0.8; stroke-linecap: square"/>
     </g>
     <g id="line2d_56">
      <g>
       <use xlink:href="#m1cbe2c39ef" x="422.256083" y="77.449769" style="stroke: #000000; stroke-width: 0.8"/>
      </g>
     </g>
     <g id="text_31">
      <!-- 5 -->
      <g transform="translate(408.893583 81.248597) scale(0.1 -0.1)">
       <use xlink:href="#DejaVuSans-18"/>
      </g>
     </g>
    </g>
    <g id="ytick_16">
     <g id="line2d_57">
      <path d="M 422.256083 44.532566 
L 771.04154 44.532566 
" clip-path="url(#p49a1e9255b)" style="fill: none; stroke: #b0b0b0; stroke-width: 0.8; stroke-linecap: square"/>
     </g>
     <g id="line2d_58">
      <g>
       <use xlink:href="#m1cbe2c39ef" x="422.256083" y="44.532566" style="stroke: #000000; stroke-width: 0.8"/>
      </g>
     </g>
     <g id="text_32">
      <!-- 6 -->
      <g transform="translate(408.893583 48.331394) scale(0.1 -0.1)">
       <use xlink:href="#DejaVuSans-19"/>
      </g>
     </g>
    </g>
   </g>
   <g id="line2d_59">
    <path d="M 596.125031 242.035781 
L 596.125031 22.318125 
" clip-path="url(#p49a1e9255b)" style="fill: none; stroke: #1d3557; stroke-width: 2; stroke-linecap: square"/>
   </g>
   <g id="patch_227">
    <path d="M 422.256083 242.035781 
L 422.256083 22.318125 
" style="fill: none; stroke: #000000; stroke-width: 0.8; stroke-linejoin: miter; stroke-linecap: square"/>
   </g>
   <g id="patch_228">
    <path d="M 422.256083 242.035781 
L 771.04154 242.035781 
" style="fill: none; stroke: #000000; stroke-width: 0.8; stroke-linejoin: miter; stroke-linecap: square"/>
   </g>
   <g id="text_33">
    <!-- Annualized log growth -->
    <g transform="translate(529.639124 16.318125) scale(0.12 -0.12)">
     <defs>
      <path id="DejaVuSans-24" d="M 2188 4044 
L 1331 1722 
L 3047 1722 
L 2188 4044 
z
M 1831 4666 
L 2547 4666 
L 4325 0 
L 3669 0 
L 3244 1197 
L 1141 1197 
L 716 0 
L 50 0 
L 1831 4666 
z
" transform="scale(0.015625)"/>
      <path id="DejaVuSans-5d" d="M 353 3500 
L 3084 3500 
L 3084 2975 
L 922 459 
L 3084 459 
L 3084 0 
L 275 0 
L 275 525 
L 2438 3041 
L 353 3041 
L 353 3500 
z
" transform="scale(0.015625)"/>
      <path id="DejaVuSans-47" d="M 2906 2969 
L 2906 4863 
L 3481 4863 
L 3481 0 
L 2906 0 
L 2906 525 
Q 2725 213 2448 61 
Q 2172 -91 1784 -91 
Q 1150 -91 751 415 
Q 353 922 353 1747 
Q 353 2572 751 3078 
Q 1150 3584 1784 3584 
Q 2172 3584 2448 3432 
Q 2725 3281 2906 2969 
z
M 947 1747 
Q 947 1113 1208 752 
Q 1469 391 1925 391 
Q 2381 391 2643 752 
Q 2906 1113 2906 1747 
Q 2906 2381 2643 2742 
Q 2381 3103 1925 3103 
Q 1469 3103 1208 2742 
Q 947 2381 947 1747 
z
" transform="scale(0.015625)"/>
      <path id="DejaVuSans-5a" d="M 269 3500 
L 844 3500 
L 1563 769 
L 2278 3500 
L 2956 3500 
L 3675 769 
L 4391 3500 
L 4966 3500 
L 4050 0 
L 3372 0 
L 2619 2869 
L 1863 0 
L 1184 0 
L 269 3500 
z
" transform="scale(0.015625)"/>
      <path id="DejaVuSans-4b" d="M 3513 2113 
L 3513 0 
L 2938 0 
L 2938 2094 
Q 2938 2591 2744 2837 
Q 2550 3084 2163 3084 
Q 1697 3084 1428 2787 
Q 1159 2491 1159 1978 
L 1159 0 
L 581 0 
L 581 4863 
L 1159 4863 
L 1159 2956 
Q 1366 3272 1645 3428 
Q 1925 3584 2291 3584 
Q 2894 3584 3203 3211 
Q 3513 2838 3513 2113 
z
" transform="scale(0.015625)"/>
     </defs>
     <use xlink:href="#DejaVuSans-24"/>
     <use xlink:href="#DejaVuSans-51" transform="translate(68.40625 0)"/>
     <use xlink:href="#DejaVuSans-51" transform="translate(131.78125 0)"/>
     <use xlink:href="#DejaVuSans-58" transform="translate(195.15625 0)"/>
     <use xlink:href="#DejaVuSans-44" transform="translate(258.53125 0)"/>
     <use xlink:href="#DejaVuSans-4f" transform="translate(319.8125 0)"/>
     <use xlink:href="#DejaVuSans-4c" transform="translate(347.59375 0)"/>
     <use xlink:href="#DejaVuSans-5d" transform="translate(375.375 0)"/>
     <use xlink:href="#DejaVuSans-48" transform="translate(427.859375 0)"/>
     <use xlink:href="#DejaVuSans-47" transform="translate(489.390625 0)"/>
     <use xlink:href="#DejaVuSans-3" transform="translate(552.875 0)"/>
     <use xlink:href="#DejaVuSans-4f" transform="translate(584.65625 0)"/>
     <use xlink:href="#DejaVuSans-52" transform="translate(612.4375 0)"/>
     <use xlink:href="#DejaVuSans-4a" transform="translate(673.625 0)"/>
     <use xlink:href="#DejaVuSans-3" transform="translate(737.109375 0)"/>
     <use xlink:href="#DejaVuSans-4a" transform="translate(768.890625 0)"/>
     <use xlink:href="#DejaVuSans-55" transform="translate(832.375 0)"/>
     <use xlink:href="#DejaVuSans-52" transform="translate(871.28125 0)"/>
     <use xlink:href="#DejaVuSans-5a" transform="translate(932.46875 0)"/>
     <use xlink:href="#DejaVuSans-57" transform="translate(1014.25 0)"/>
     <use xlink:href="#DejaVuSans-4b" transform="translate(1053.453125 0)"/>
    </g>
   </g>
   <g id="legend_2">
    <g id="patch_229">
     <path d="M 669.983728 45.318906 
L 764.04154 45.318906 
Q 766.04154 45.318906 766.04154 43.318906 
L 766.04154 29.318125 
Q 766.04154 27.318125 764.04154 27.318125 
L 669.983728 27.318125 
Q 667.983728 27.318125 667.983728 29.318125 
L 667.983728 43.318906 
Q 667.983728 45.318906 669.983728 45.318906 
z
" style="fill: #ffffff; opacity: 0.8; stroke: #cccccc; stroke-linejoin: miter"/>
    </g>
    <g id="line2d_60">
     <path d="M 671.983728 35.416563 
L 681.983728 35.416563 
L 691.983728 35.416563 
" style="fill: none; stroke: #1d3557; stroke-width: 2; stroke-linecap: square"/>
    </g>
    <g id="text_34">
     <!-- E[d log S]/dt -->
     <g transform="translate(699.983728 38.916563) scale(0.1 -0.1)">
      <defs>
       <path id="DejaVuSans-28" d="M 628 4666 
L 3578 4666 
L 3578 4134 
L 1259 4134 
L 1259 2753 
L 3481 2753 
L 3481 2222 
L 1259 2222 
L 1259 531 
L 3634 531 
L 3634 0 
L 628 0 
L 628 4666 
z
" transform="scale(0.015625)"/>
       <path id="DejaVuSans-3e" d="M 550 4863 
L 1875 4863 
L 1875 4416 
L 1125 4416 
L 1125 -397 
L 1875 -397 
L 1875 -844 
L 550 -844 
L 550 4863 
z
" transform="scale(0.015625)"/>
       <path id="DejaVuSans-40" d="M 1947 4863 
L 1947 -844 
L 622 -844 
L 622 -397 
L 1369 -397 
L 1369 4416 
L 622 4416 
L 622 4863 
L 1947 4863 
z
" transform="scale(0.015625)"/>
      </defs>
      <use xlink:href="#DejaVuSans-28"/>
      <use xlink:href="#DejaVuSans-3e" transform="translate(63.1875 0)"/>
      <use xlink:href="#DejaVuSans-47" transform="translate(102.203125 0)"/>
      <use xlink:href="#DejaVuSans-3" transform="translate(165.6875 0)"/>
      <use xlink:href="#DejaVuSans-4f" transform="translate(197.46875 0)"/>
      <use xlink:href="#DejaVuSans-52" transform="translate(225.25 0)"/>
      <use xlink:href="#DejaVuSans-4a" transform="translate(286.4375 0)"/>
      <use xlink:href="#DejaVuSans-3" transform="translate(349.921875 0)"/>
      <use xlink:href="#DejaVuSans-36" transform="translate(381.703125 0)"/>
      <use xlink:href="#DejaVuSans-40" transform="translate(445.1875 0)"/>
      <use xlink:href="#DejaVuSans-12" transform="translate(484.203125 0)"/>
      <use xlink:href="#DejaVuSans-47" transform="translate(517.890625 0)"/>
      <use xlink:href="#DejaVuSans-57" transform="translate(581.375 0)"/>
     </g>
    </g>
   </g>
  </g>
 </g>
 <defs>
  <clipPath id="p519a5b670d">
   <rect x="49.190625" y="22.318125" width="348.785458" height="219.717656"/>
  </clipPath>
  <clipPath id="p49a1e9255b">
   <rect x="422.256083" y="22.318125" width="348.785458" height="219.717656"/>
  </clipPath>
 </defs>
</svg>
