<?xml version="1.0" encoding="utf-8" standalone="no"?>
<!DOCTYPE svg PUBLIC "-//W3C//DTD SVG 1.1//EN"
  "http://www.w3.org/Graphics/SVG/1.1/DTD/svg11.dtd">
<svg xmlns:xlink="http://www.w3.org/1999/xlink" width="784.280469pt" height="280.235781pt" viewBox="0 0 784.280469 280.235781" xmlns="http://www.w3.org/2000/svg" version="1.1">
 <metadata>
  <rdf:RDF xmlns:dc="http://purl.org/dc/elements/1.1/" xmlns:cc="http://creativecommons.org/ns#" xmlns:rdf="http://www.w3.org/1999/02/22-rdf-syntax-ns#">
   <cc:Work>
    <dc:type rdf:resource="http://purl.org/dc/dcmitype/StillImage"/>
    <dc:date>2026-07-01T13:01:36.534131</dc:date>
    <dc:format>image/svg+xml</dc:format>
    <dc:creator>
     <cc:Agent>
      <dc:title>Matplotlib v3.11.0, https://matplotlib.org/</dc:title>
     </cc:Agent>
    </dc:creator>
   </cc:Work>
  </rdf:RDF>
 </metadata>
 <defs>
  <style type="text/css">*{stroke-linejoin: round; stroke-linecap: butt}</style>
 </defs>
 <g id="figure_1">
  <g id="patch_1">
   <path d="M 0 280.235781 
L 784.280469 280.235781 
L 784.280469 0 
L 0 0 
z
" style="fill: #ffffff"/>
  </g>
  <g id="axes_1">
   <g id="patch_2">
    <path d="M 52.482813 242.035781 
L 397.961641 242.035781 
L 397.961641 22.318125 
L 52.482813 22.318125 
z
" style="fill: #ffffff"/>
   </g>
   <g id="matplotlib.axis_1">
    <g id="xtick_1">
     <g id="line2d_1">
      <path d="M 68.186396 242.035781 
L 68.186396 22.318125 
" clip-path="url(#pe0ccd50bfe)" style="fill: none; stroke: #b0b0b0; stroke-width: 0.8; stroke-linecap: square"/>
     </g>
     <g id="line2d_2">
      <defs>
       <path id="m15e449dd4b" d="M 0 0 
L 0 3.5 
" style="stroke: #000000; stroke-width: 0.8"/>
      </defs>
      <g>
       <use xlink:href="#m15e449dd4b" x="68.186396" y="242.035781" style="stroke: #000000; stroke-width: 0.8"/>
      </g>
     </g>
     <g id="text_1">
      <!-- 0.0 -->
      <g transform="translate(60.234833 256.633438) scale(0.1 -0.1)">
       <defs>
        <path id="DejaVuSans-13" d="M 2034 4250 
Q 1547 4250 1301 3770 
Q 1056 3291 1056 2328 
Q 1056 1369 1301 889 
Q 1547 409 2034 409 
Q 2525 409 2770 889 
Q 3016 1369 3016 2328 
Q 3016 3291 2770 3770 
Q 2525 4250 2034 4250 
z
M 2034 4750 
Q 2819 4750 3233 4129 
Q 3647 3509 3647 2328 
Q 3647 1150 3233 529 
Q 2819 -91 2034 -91 
Q 1250 -91 836 529 
Q 422 1150 422 2328 
Q 422 3509 836 4129 
Q 1250 4750 2034 4750 
z
" transform="scale(0.015625)"/>
        <path id="DejaVuSans-11" d="M 684 794 
L 1344 794 
L 1344 0 
L 684 0 
L 684 794 
z
" transform="scale(0.015625)"/>
       </defs>
       <use xlink:href="#DejaVuSans-13"/>
       <use xlink:href="#DejaVuSans-11" transform="translate(63.625 0)"/>
       <use xlink:href="#DejaVuSans-13" transform="translate(95.40625 0)"/>
      </g>
     </g>
    </g>
    <g id="xtick_2">
     <g id="line2d_3">
      <path d="M 120.531673 242.035781 
L 120.531673 22.318125 
" clip-path="url(#pe0ccd50bfe)" style="fill: none; stroke: #b0b0b0; stroke-width: 0.8; stroke-linecap: square"/>
     </g>
     <g id="line2d_4">
      <g>
       <use xlink:href="#m15e449dd4b" x="120.531673" y="242.035781" style="stroke: #000000; stroke-width: 0.8"/>
      </g>
     </g>
     <g id="text_2">
      <!-- 0.5 -->
      <g transform="translate(112.58011 256.633438) scale(0.1 -0.1)">
       <defs>
        <path id="DejaVuSans-18" d="M 691 4666 
L 3169 4666 
L 3169 4134 
L 1269 4134 
L 1269 2991 
Q 1406 3038 1543 3061 
Q 1681 3084 1819 3084 
Q 2600 3084 3056 2656 
Q 3513 2228 3513 1497 
Q 3513 744 3044 326 
Q 2575 -91 1722 -91 
Q 1428 -91 1123 -41 
Q 819 9 494 109 
L 494 744 
Q 775 591 1075 516 
Q 1375 441 1709 441 
Q 2250 441 2565 725 
Q 2881 1009 2881 1497 
Q 2881 1984 2565 2268 
Q 2250 2553 1709 2553 
Q 1456 2553 1204 2497 
Q 953 2441 691 2322 
L 691 4666 
z
" transform="scale(0.015625)"/>
       </defs>
       <use xlink:href="#DejaVuSans-13"/>
       <use xlink:href="#DejaVuSans-11" transform="translate(63.625 0)"/>
       <use xlink:href="#DejaVuSans-18" transform="translate(95.40625 0)"/>
      </g>
     </g>
    </g>
    <g id="xtick_3">
     <g id="line2d_5">
      <path d="M 172.87695 242.035781 
L 172.87695 22.318125 
" clip-path="url(#pe0ccd50bfe)" style="fill: none; stroke: #b0b0b0; stroke-width: 0.8; stroke-linecap: square"/>
     </g>
     <g id="line2d_6">
      <g>
       <use xlink:href="#m15e449dd4b" x="172.87695" y="242.035781" style="stroke: #000000; stroke-width: 0.8"/>
      </g>
     </g>
     <g id="text_3">
      <!-- 1.0 -->
      <g transform="translate(164.925387 256.633438) scale(0.1 -0.1)">
       <defs>
        <path id="DejaVuSans-14" d="M 794 531 
L 1825 531 
L 1825 4091 
L 703 3866 
L 703 4441 
L 1819 4666 
L 2450 4666 
L 2450 531 
L 3481 531 
L 3481 0 
L 794 0 
L 794 531 
z
" transform="scale(0.015625)"/>
       </defs>
       <use xlink:href="#DejaVuSans-14"/>
       <use xlink:href="#DejaVuSans-11" transform="translate(63.625 0)"/>
       <use xlink:href="#DejaVuSans-13" transform="translate(95.40625 0)"/>
      </g>
     </g>
    </g>
    <g id="xtick_4">
     <g id="line2d_7">
      <path d="M 225.222227 242.035781 
L 225.222227 22.318125 
" clip-path="url(#pe0ccd50bfe)" style="fill: none; stroke: #b0b0b0; stroke-width: 0.8; stroke-linecap: square"/>
     </g>
     <g id="line2d_8">
      <g>
       <use xlink:href="#m15e449dd4b" x="225.222227" y="242.035781" style="stroke: #000000; stroke-width: 0.8"/>
      </g>
     </g>
     <g id="text_4">
      <!-- 1.5 -->
      <g transform="translate(217.270664 256.633438) scale(0.1 -0.1)">
       <use xlink:href="#DejaVuSans-14"/>
       <use xlink:href="#DejaVuSans-11" transform="translate(63.625 0)"/>
       <use xlink:href="#DejaVuSans-18" transform="translate(95.40625 0)"/>
      </g>
     </g>
    </g>
    <g id="xtick_5">
     <g id="line2d_9">
      <path d="M 277.567504 242.035781 
L 277.567504 22.318125 
" clip-path="url(#pe0ccd50bfe)" style="fill: none; stroke: #b0b0b0; stroke-width: 0.8; stroke-linecap: square"/>
     </g>
     <g id="line2d_10">
      <g>
       <use xlink:href="#m15e449dd4b" x="277.567504" y="242.035781" style="stroke: #000000; stroke-width: 0.8"/>
      </g>
     </g>
     <g id="text_5">
      <!-- 2.0 -->
      <g transform="translate(269.615941 256.633438) scale(0.1 -0.1)">
       <defs>
        <path id="DejaVuSans-15" d="M 1228 531 
L 3431 531 
L 3431 0 
L 469 0 
L 469 531 
Q 828 903 1448 1529 
Q 2069 2156 2228 2338 
Q 2531 2678 2651 2914 
Q 2772 3150 2772 3378 
Q 2772 3750 2511 3984 
Q 2250 4219 1831 4219 
Q 1534 4219 1204 4116 
Q 875 4013 500 3803 
L 500 4441 
Q 881 4594 1212 4672 
Q 1544 4750 1819 4750 
Q 2544 4750 2975 4387 
Q 3406 4025 3406 3419 
Q 3406 3131 3298 2873 
Q 3191 2616 2906 2266 
Q 2828 2175 2409 1742 
Q 1991 1309 1228 531 
z
" transform="scale(0.015625)"/>
       </defs>
       <use xlink:href="#DejaVuSans-15"/>
       <use xlink:href="#DejaVuSans-11" transform="translate(63.625 0)"/>
       <use xlink:href="#DejaVuSans-13" transform="translate(95.40625 0)"/>
      </g>
     </g>
    </g>
    <g id="xtick_6">
     <g id="line2d_11">
      <path d="M 329.912781 242.035781 
L 329.912781 22.318125 
" clip-path="url(#pe0ccd50bfe)" style="fill: none; stroke: #b0b0b0; stroke-width: 0.8; stroke-linecap: square"/>
     </g>
     <g id="line2d_12">
      <g>
       <use xlink:href="#m15e449dd4b" x="329.912781" y="242.035781" style="stroke: #000000; stroke-width: 0.8"/>
      </g>
     </g>
     <g id="text_6">
      <!-- 2.5 -->
      <g transform="translate(321.961218 256.633438) scale(0.1 -0.1)">
       <use xlink:href="#DejaVuSans-15"/>
       <use xlink:href="#DejaVuSans-11" transform="translate(63.625 0)"/>
       <use xlink:href="#DejaVuSans-18" transform="translate(95.40625 0)"/>
      </g>
     </g>
    </g>
    <g id="xtick_7">
     <g id="line2d_13">
      <path d="M 382.258058 242.035781 
L 382.258058 22.318125 
" clip-path="url(#pe0ccd50bfe)" style="fill: none; stroke: #b0b0b0; stroke-width: 0.8; stroke-linecap: square"/>
     </g>
     <g id="line2d_14">
      <g>
       <use xlink:href="#m15e449dd4b" x="382.258058" y="242.035781" style="stroke: #000000; stroke-width: 0.8"/>
      </g>
     </g>
     <g id="text_7">
      <!-- 3.0 -->
      <g transform="translate(374.306495 256.633438) scale(0.1 -0.1)">
       <defs>
        <path id="DejaVuSans-16" d="M 2597 2516 
Q 3050 2419 3304 2112 
Q 3559 1806 3559 1356 
Q 3559 666 3084 287 
Q 2609 -91 1734 -91 
Q 1441 -91 1130 -33 
Q 819 25 488 141 
L 488 750 
Q 750 597 1062 519 
Q 1375 441 1716 441 
Q 2309 441 2620 675 
Q 2931 909 2931 1356 
Q 2931 1769 2642 2001 
Q 2353 2234 1838 2234 
L 1294 2234 
L 1294 2753 
L 1863 2753 
Q 2328 2753 2575 2939 
Q 2822 3125 2822 3475 
Q 2822 3834 2567 4026 
Q 2313 4219 1838 4219 
Q 1578 4219 1281 4162 
Q 984 4106 628 3988 
L 628 4550 
Q 988 4650 1302 4700 
Q 1616 4750 1894 4750 
Q 2613 4750 3031 4423 
Q 3450 4097 3450 3541 
Q 3450 3153 3228 2886 
Q 3006 2619 2597 2516 
z
" transform="scale(0.015625)"/>
       </defs>
       <use xlink:href="#DejaVuSans-16"/>
       <use xlink:href="#DejaVuSans-11" transform="translate(63.625 0)"/>
       <use xlink:href="#DejaVuSans-13" transform="translate(95.40625 0)"/>
      </g>
     </g>
    </g>
    <g id="text_8">
     <!-- t -->
     <g transform="translate(223.26207 270.633438) scale(0.1 -0.1)">
      <defs>
       <path id="DejaVuSans-57" d="M 1172 4494 
L 1172 3500 
L 2356 3500 
L 2356 3053 
L 1172 3053 
L 1172 1153 
Q 1172 725 1289 603 
Q 1406 481 1766 481 
L 2356 481 
L 2356 0 
L 1766 0 
Q 1100 0 847 248 
Q 594 497 594 1153 
L 594 3053 
L 172 3053 
L 172 3500 
L 594 3500 
L 594 4494 
L 1172 4494 
z
" transform="scale(0.015625)"/>
      </defs>
      <use xlink:href="#DejaVuSans-57"/>
     </g>
    </g>
   </g>
   <g id="matplotlib.axis_2">
    <g id="ytick_1">
     <g id="line2d_15">
      <path d="M 52.482813 232.048615 
L 397.961641 232.048615 
" clip-path="url(#pe0ccd50bfe)" style="fill: none; stroke: #b0b0b0; stroke-width: 0.8; stroke-linecap: square"/>
     </g>
     <g id="line2d_16">
      <defs>
       <path id="ma20ce7ca23" d="M 0 0 
L -3.5 0 
" style="stroke: #000000; stroke-width: 0.8"/>
      </defs>
      <g>
       <use xlink:href="#ma20ce7ca23" x="52.482813" y="232.048615" style="stroke: #000000; stroke-width: 0.8"/>
      </g>
     </g>
     <g id="text_9">
      <!-- −1.0 -->
      <g transform="translate(21.2 235.847443) scale(0.1 -0.1)">
       <defs>
        <path id="DejaVuSans-c9c" d="M 678 2272 
L 4684 2272 
L 4684 1741 
L 678 1741 
L 678 2272 
z
" transform="scale(0.015625)"/>
       </defs>
       <use xlink:href="#DejaVuSans-c9c"/>
       <use xlink:href="#DejaVuSans-14" transform="translate(83.796875 0)"/>
       <use xlink:href="#DejaVuSans-11" transform="translate(147.421875 0)"/>
       <use xlink:href="#DejaVuSans-13" transform="translate(179.203125 0)"/>
      </g>
     </g>
    </g>
    <g id="ytick_2">
     <g id="line2d_17">
      <path d="M 52.482813 194.729303 
L 397.961641 194.729303 
" clip-path="url(#pe0ccd50bfe)" style="fill: none; stroke: #b0b0b0; stroke-width: 0.8; stroke-linecap: square"/>
     </g>
     <g id="line2d_18">
      <g>
       <use xlink:href="#ma20ce7ca23" x="52.482813" y="194.729303" style="stroke: #000000; stroke-width: 0.8"/>
      </g>
     </g>
     <g id="text_10">
      <!-- −0.5 -->
      <g transform="translate(21.2 198.528131) scale(0.1 -0.1)">
       <use xlink:href="#DejaVuSans-c9c"/>
       <use xlink:href="#DejaVuSans-13" transform="translate(83.796875 0)"/>
       <use xlink:href="#DejaVuSans-11" transform="translate(147.421875 0)"/>
       <use xlink:href="#DejaVuSans-18" transform="translate(179.203125 0)"/>
      </g>
     </g>
    </g>
    <g id="ytick_3">
     <g id="line2d_19">
      <path d="M 52.482813 157.40999 
L 397.961641 157.40999 
" clip-path="url(#pe0ccd50bfe)" style="fill: none; stroke: #b0b0b0; stroke-width: 0.8; stroke-linecap: square"/>
     </g>
     <g id="line2d_20">
      <g>
       <use xlink:href="#ma20ce7ca23" x="52.482813" y="157.40999" style="stroke: #000000; stroke-width: 0.8"/>
      </g>
     </g>
     <g id="text_11">
      <!-- 0.0 -->
      <g transform="translate(29.579687 161.208818) scale(0.1 -0.1)">
       <use xlink:href="#DejaVuSans-13"/>
       <use xlink:href="#DejaVuSans-11" transform="translate(63.625 0)"/>
       <use xlink:href="#DejaVuSans-13" transform="translate(95.40625 0)"/>
      </g>
     </g>
    </g>
    <g id="ytick_4">
     <g id="line2d_21">
      <path d="M 52.482813 120.090678 
L 397.961641 120.090678 
" clip-path="url(#pe0ccd50bfe)" style="fill: none; stroke: #b0b0b0; stroke-width: 0.8; stroke-linecap: square"/>
     </g>
     <g id="line2d_22">
      <g>
       <use xlink:href="#ma20ce7ca23" x="52.482813" y="120.090678" style="stroke: #000000; stroke-width: 0.8"/>
      </g>
     </g>
     <g id="text_12">
      <!-- 0.5 -->
      <g transform="translate(29.579687 123.889506) scale(0.1 -0.1)">
       <use xlink:href="#DejaVuSans-13"/>
       <use xlink:href="#DejaVuSans-11" transform="translate(63.625 0)"/>
       <use xlink:href="#DejaVuSans-18" transform="translate(95.40625 0)"/>
      </g>
     </g>
    </g>
    <g id="ytick_5">
     <g id="line2d_23">
      <path d="M 52.482813 82.771366 
L 397.961641 82.771366 
" clip-path="url(#pe0ccd50bfe)" style="fill: none; stroke: #b0b0b0; stroke-width: 0.8; stroke-linecap: square"/>
     </g>
     <g id="line2d_24">
      <g>
       <use xlink:href="#ma20ce7ca23" x="52.482813" y="82.771366" style="stroke: #000000; stroke-width: 0.8"/>
      </g>
     </g>
     <g id="text_13">
      <!-- 1.0 -->
      <g transform="translate(29.579687 86.570194) scale(0.1 -0.1)">
       <use xlink:href="#DejaVuSans-14"/>
       <use xlink:href="#DejaVuSans-11" transform="translate(63.625 0)"/>
       <use xlink:href="#DejaVuSans-13" transform="translate(95.40625 0)"/>
      </g>
     </g>
    </g>
    <g id="ytick_6">
     <g id="line2d_25">
      <path d="M 52.482813 45.452053 
L 397.961641 45.452053 
" clip-path="url(#pe0ccd50bfe)" style="fill: none; stroke: #b0b0b0; stroke-width: 0.8; stroke-linecap: square"/>
     </g>
     <g id="line2d_26">
      <g>
       <use xlink:href="#ma20ce7ca23" x="52.482813" y="45.452053" style="stroke: #000000; stroke-width: 0.8"/>
      </g>
     </g>
     <g id="text_14">
      <!-- 1.5 -->
      <g transform="translate(29.579687 49.250881) scale(0.1 -0.1)">
       <use xlink:href="#DejaVuSans-14"/>
       <use xlink:href="#DejaVuSans-11" transform="translate(63.625 0)"/>
       <use xlink:href="#DejaVuSans-18" transform="translate(95.40625 0)"/>
      </g>
     </g>
    </g>
    <g id="text_15">
     <!-- X(t) -->
     <g transform="translate(14.797656 141.463672) rotate(-90) scale(0.1 -0.1)">
      <defs>
       <path id="DejaVuSans-3b" d="M 403 4666 
L 1081 4666 
L 2241 2931 
L 3406 4666 
L 4084 4666 
L 2584 2425 
L 4184 0 
L 3506 0 
L 2194 1984 
L 872 0 
L 191 0 
L 1856 2491 
L 403 4666 
z
" transform="scale(0.015625)"/>
       <path id="DejaVuSans-b" d="M 1984 4856 
Q 1566 4138 1362 3434 
Q 1159 2731 1159 2009 
Q 1159 1288 1364 580 
Q 1569 -128 1984 -844 
L 1484 -844 
Q 1016 -109 783 600 
Q 550 1309 550 2009 
Q 550 2706 781 3412 
Q 1013 4119 1484 4856 
L 1984 4856 
z
" transform="scale(0.015625)"/>
       <path id="DejaVuSans-c" d="M 513 4856 
L 1013 4856 
Q 1481 4119 1714 3412 
Q 1947 2706 1947 2009 
Q 1947 1309 1714 600 
Q 1481 -109 1013 -844 
L 513 -844 
Q 928 -128 1133 580 
Q 1338 1288 1338 2009 
Q 1338 2731 1133 3434 
Q 928 4138 513 4856 
z
" transform="scale(0.015625)"/>
      </defs>
      <use xlink:href="#DejaVuSans-3b"/>
      <use xlink:href="#DejaVuSans-b" transform="translate(68.5 0)"/>
      <use xlink:href="#DejaVuSans-57" transform="translate(107.515625 0)"/>
      <use xlink:href="#DejaVuSans-c" transform="translate(146.71875 0)"/>
     </g>
    </g>
   </g>
   <g id="line2d_27">
    <path d="M 68.186396 232.048615 
L 68.448122 231.164269 
L 68.971575 226.128841 
L 69.233301 225.982346 
L 69.495028 225.559161 
L 69.756754 225.437535 
L 70.01848 223.883438 
L 70.280207 223.153726 
L 70.541933 221.378505 
L 70.803659 222.999767 
L 71.065386 220.154614 
L 71.327112 219.49441 
L 71.588839 217.822525 
L 71.850565 217.225238 
L 72.112291 216.947428 
L 72.897471 213.235598 
L 73.159197 212.680138 
L 73.420923 211.031968 
L 73.68265 211.423677 
L 73.944376 212.654856 
L 74.206102 211.386527 
L 74.467829 211.515699 
L 74.729555 213.276715 
L 74.991282 213.584802 
L 75.253008 213.438969 
L 75.514734 214.24156 
L 75.776461 215.431428 
L 76.038187 214.618665 
L 76.299914 212.68545 
L 76.56164 212.237411 
L 76.823366 212.458144 
L 77.870272 207.726401 
L 78.131998 205.633988 
L 78.393725 205.183491 
L 78.655451 205.527294 
L 79.178904 203.31447 
L 79.44063 201.168847 
L 79.702357 202.14601 
L 79.964083 202.30507 
L 80.225809 202.694025 
L 80.487536 204.251364 
L 80.749262 203.371622 
L 81.010988 201.971578 
L 81.272715 202.23223 
L 81.796168 197.949051 
L 82.581347 193.316875 
L 82.843073 194.391283 
L 83.366526 191.468222 
L 83.628252 193.120101 
L 83.889979 192.002312 
L 84.151705 191.66993 
L 84.413431 189.991144 
L 84.675158 189.91421 
L 84.936884 189.287956 
L 85.198611 188.192871 
L 85.460337 188.695089 
L 85.722063 187.268623 
L 85.98379 186.767548 
L 86.245516 185.48836 
L 86.507243 185.539808 
L 87.030695 182.078969 
L 87.292422 181.69668 
L 87.554148 180.258132 
L 88.077601 175.069959 
L 88.339327 176.542046 
L 88.86278 173.609095 
L 89.124506 173.154987 
L 89.386233 173.895205 
L 89.647959 171.675101 
L 89.909686 172.75515 
L 90.171412 171.441755 
L 90.433138 169.174333 
L 90.694865 170.707032 
L 90.956591 170.538526 
L 91.218317 171.685705 
L 91.480044 170.798875 
L 92.003497 165.061033 
L 92.265223 166.845323 
L 92.526949 167.050038 
L 92.788676 165.583893 
L 93.050402 162.980361 
L 93.312129 161.901309 
L 93.573855 162.351893 
L 93.835581 161.437738 
L 94.097308 160.93751 
L 94.359034 160.683946 
L 94.62076 161.124751 
L 95.144213 159.180341 
L 95.667666 158.56956 
L 95.929392 159.738858 
L 96.191119 159.859599 
L 96.452845 157.768929 
L 96.714572 157.512406 
L 96.976298 158.888632 
L 97.238024 156.635151 
L 97.499751 155.442207 
L 97.761477 152.193719 
L 98.023203 151.631729 
L 98.28493 151.75657 
L 98.546656 153.169078 
L 98.808383 150.955186 
L 99.070109 147.124188 
L 99.593562 148.123868 
L 99.855288 146.883117 
L 100.117015 147.511255 
L 100.640467 147.403545 
L 100.902194 146.694031 
L 101.16392 144.808417 
L 101.425646 144.332489 
L 101.687373 142.687269 
L 101.949099 142.798159 
L 102.210826 141.931939 
L 102.734278 145.739792 
L 102.996005 144.248894 
L 103.257731 144.575147 
L 103.781184 142.222587 
L 104.304637 138.573824 
L 104.566363 136.826407 
L 104.828089 136.561085 
L 105.613269 137.829248 
L 105.874995 138.889306 
L 106.136721 139.183896 
L 106.398448 138.883014 
L 106.660174 138.133926 
L 106.921901 138.159508 
L 107.183627 140.254993 
L 107.445353 139.922794 
L 107.70708 139.203334 
L 108.230532 136.196538 
L 108.753985 137.163875 
L 109.015712 134.124978 
L 109.277438 132.737648 
L 109.800891 126.790998 
L 110.062617 127.493534 
L 110.847796 124.565534 
L 111.371249 122.886561 
L 111.632975 122.310663 
L 111.894702 123.927328 
L 112.156428 123.790232 
L 112.418155 124.414233 
L 112.679881 123.894211 
L 112.941607 124.151919 
L 113.726787 120.825354 
L 114.250239 119.616003 
L 114.511966 119.867168 
L 114.773692 119.747167 
L 115.035419 120.06024 
L 115.297145 119.217724 
L 115.558871 118.867344 
L 115.820598 117.777707 
L 116.082324 119.18769 
L 116.34405 117.696284 
L 116.867503 118.998383 
L 117.12923 118.92532 
L 117.390956 119.330569 
L 117.652682 118.617855 
L 117.914409 119.038569 
L 118.437862 120.873188 
L 118.699588 118.820112 
L 118.961314 118.432146 
L 119.223041 119.628736 
L 119.484767 119.283998 
L 119.746493 120.984094 
L 120.00822 118.306711 
L 120.269946 119.970102 
L 120.793399 117.968357 
L 121.055125 119.535998 
L 121.316852 118.810407 
L 121.840305 116.244311 
L 122.102031 115.584812 
L 122.363757 114.029528 
L 123.148936 112.627663 
L 123.410663 111.500124 
L 123.672389 112.432521 
L 123.934116 111.096927 
L 124.195842 111.461537 
L 124.457568 112.58908 
L 124.719295 111.809884 
L 125.242748 107.756539 
L 125.504474 108.149698 
L 125.7662 106.95577 
L 126.027927 107.272281 
L 126.289653 107.156081 
L 126.551379 106.761473 
L 126.813106 109.512275 
L 127.074832 108.973721 
L 127.860011 112.285446 
L 128.121738 113.965587 
L 128.383464 114.889346 
L 128.645191 113.498503 
L 128.906917 111.01615 
L 129.168643 110.754034 
L 129.43037 109.034104 
L 129.692096 109.09279 
L 129.953822 111.30378 
L 130.215549 110.81163 
L 130.477275 109.935416 
L 130.739002 110.20509 
L 131.000728 109.518943 
L 131.262454 108.482783 
L 131.524181 109.326907 
L 131.785907 110.968475 
L 132.30936 110.943533 
L 132.571086 111.109461 
L 132.832813 109.524485 
L 133.094539 106.982237 
L 133.356265 107.249565 
L 134.141445 103.359377 
L 134.403171 101.730592 
L 134.664897 101.98576 
L 134.926624 100.765041 
L 135.18835 97.871803 
L 135.450077 96.586186 
L 135.711803 97.165772 
L 135.973529 96.139281 
L 136.235256 94.262298 
L 136.496982 93.560691 
L 136.758708 94.080102 
L 137.020435 91.845741 
L 137.282161 93.269385 
L 137.543888 92.396646 
L 137.805614 92.206523 
L 138.06734 93.555266 
L 138.329067 91.745985 
L 138.590793 91.08326 
L 138.85252 92.401963 
L 139.114246 91.404726 
L 139.375972 91.761685 
L 139.637699 94.038668 
L 139.899425 94.71986 
L 140.161151 94.15391 
L 140.422878 93.104412 
L 140.946331 92.402228 
L 141.208057 91.577063 
L 141.469783 91.645072 
L 141.73151 89.899894 
L 142.254963 88.923572 
L 142.516689 88.021571 
L 143.040142 89.940317 
L 143.301868 87.743527 
L 143.563594 87.115243 
L 143.825321 87.296905 
L 144.087047 86.662566 
L 144.348774 87.106202 
L 144.6105 86.554901 
L 144.872226 87.239683 
L 145.133953 86.69111 
L 145.395679 88.566291 
L 145.657406 86.633862 
L 145.919132 87.118557 
L 146.180858 88.996437 
L 146.442585 89.092864 
L 146.704311 89.381066 
L 146.966037 88.984327 
L 147.227764 90.28433 
L 147.48949 89.563425 
L 147.751217 84.631907 
L 148.012943 86.125763 
L 148.274669 85.501615 
L 148.536396 85.727245 
L 148.798122 85.294427 
L 149.321575 88.795965 
L 149.583301 88.000521 
L 149.845028 87.859234 
L 150.106754 85.532492 
L 150.36848 86.27272 
L 150.630207 85.8611 
L 150.891933 81.87421 
L 151.415386 83.723172 
L 151.938839 83.483393 
L 152.200565 82.209621 
L 152.462292 81.874963 
L 152.724018 82.699495 
L 152.985744 82.255727 
L 153.247471 78.643639 
L 153.509197 76.833117 
L 153.770923 80.325905 
L 154.03265 80.354471 
L 154.294376 81.340433 
L 154.556103 80.366151 
L 154.817829 80.43535 
L 155.079555 77.753484 
L 155.603008 75.089519 
L 155.864735 74.712456 
L 156.126461 74.63342 
L 156.388187 74.057769 
L 156.649914 72.23718 
L 156.91164 71.418639 
L 157.173366 71.760431 
L 157.435093 69.976558 
L 157.696819 69.615268 
L 157.958546 69.607912 
L 158.481998 71.15931 
L 158.743725 71.874416 
L 159.005451 75.402826 
L 159.528904 73.071752 
L 159.79063 73.227339 
L 160.052357 71.736111 
L 160.575809 70.44524 
L 160.837536 73.565247 
L 161.099262 73.743098 
L 161.360989 72.920655 
L 162.146168 66.212514 
L 162.407894 67.636358 
L 162.669621 70.407074 
L 162.931347 69.549643 
L 163.193073 69.405133 
L 163.4548 68.04008 
L 163.716526 68.102861 
L 163.978252 67.713894 
L 164.239979 69.572965 
L 164.501705 68.879241 
L 164.763432 69.354935 
L 165.286884 68.085142 
L 165.548611 68.136406 
L 165.810337 67.620529 
L 166.072064 67.538544 
L 166.595516 65.697662 
L 167.118969 66.995309 
L 167.380695 64.620735 
L 167.642422 64.667178 
L 167.904148 63.285234 
L 168.165875 62.691154 
L 168.689327 64.248157 
L 168.951054 64.006669 
L 169.21278 63.587938 
L 169.474507 62.703859 
L 169.736233 64.281064 
L 169.997959 64.973094 
L 170.259686 65.009162 
L 170.521412 62.830294 
L 170.783138 65.834901 
L 171.044865 65.169621 
L 171.306591 65.786287 
L 171.568318 65.131328 
L 171.830044 65.685382 
L 172.09177 65.118164 
L 172.353497 62.985974 
L 173.138676 61.241274 
L 173.400402 62.150264 
L 173.662129 61.365845 
L 173.923855 61.566371 
L 174.185581 62.554097 
L 174.447308 62.527488 
L 174.709034 62.747527 
L 174.970761 61.685521 
L 175.232487 61.668426 
L 175.494213 62.286996 
L 176.017666 58.951617 
L 176.279393 57.232379 
L 176.541119 56.385647 
L 176.802845 56.479732 
L 177.326298 57.29052 
L 177.588025 55.999396 
L 177.849751 55.805768 
L 178.111477 57.69603 
L 178.373204 57.691981 
L 178.63493 59.486583 
L 178.896656 59.206778 
L 179.420109 62.299511 
L 179.681836 62.068812 
L 179.943562 62.096198 
L 180.205288 64.191853 
L 180.467015 63.130212 
L 180.728741 60.225275 
L 180.990468 62.093733 
L 181.252194 59.641801 
L 181.775647 61.054082 
L 182.037373 61.217531 
L 182.299099 63.034372 
L 182.560826 61.258363 
L 182.822552 60.54369 
L 183.084279 61.457309 
L 183.346005 61.747197 
L 183.607731 63.654501 
L 183.869458 64.026823 
L 184.131184 62.720377 
L 184.392911 64.88314 
L 184.654637 65.365507 
L 184.916363 65.084161 
L 185.439816 61.782382 
L 185.701542 62.306149 
L 185.963269 63.197276 
L 186.224995 62.529122 
L 186.748448 63.253053 
L 187.010174 61.762039 
L 187.271901 59.481549 
L 187.533627 59.071146 
L 187.795354 59.260927 
L 188.05708 58.452618 
L 188.318806 60.859543 
L 188.580533 60.814046 
L 188.842259 62.130217 
L 189.103985 58.934152 
L 189.365712 57.932775 
L 189.627438 57.691958 
L 189.889165 57.890753 
L 190.150891 61.119754 
L 190.412617 60.118201 
L 190.674344 57.923961 
L 190.93607 58.819804 
L 191.459523 56.867367 
L 191.721249 58.838125 
L 192.506428 55.386905 
L 192.768155 55.424724 
L 193.029881 54.350629 
L 193.291608 56.323081 
L 193.553334 56.15232 
L 193.81506 54.727013 
L 194.076787 56.308115 
L 194.338513 54.96279 
L 194.60024 55.466273 
L 194.861966 58.139135 
L 195.123692 58.220169 
L 195.385419 59.43218 
L 195.647145 58.95226 
L 195.908871 60.422532 
L 196.170598 58.98332 
L 196.432324 59.887471 
L 196.694051 59.357046 
L 196.955777 60.070316 
L 197.217503 60.426305 
L 197.47923 58.802273 
L 197.740956 58.461005 
L 198.002683 58.918446 
L 198.264409 60.492537 
L 198.787862 57.892015 
L 199.049588 58.262548 
L 199.311314 57.887093 
L 200.096494 61.451455 
L 200.619946 60.461797 
L 200.881673 61.36775 
L 201.405126 59.240556 
L 201.666852 58.95266 
L 201.928578 57.535589 
L 202.190305 57.856559 
L 202.452031 57.948364 
L 202.713757 57.274494 
L 202.975484 57.26576 
L 203.23721 56.175627 
L 203.498937 57.763576 
L 203.760663 55.845874 
L 204.022389 56.81958 
L 204.284116 56.98355 
L 204.545842 58.730972 
L 204.807569 57.88722 
L 205.331021 54.720193 
L 205.592748 53.589952 
L 205.854474 55.587235 
L 206.639653 58.285897 
L 206.90138 56.761707 
L 207.163106 56.469845 
L 207.424832 56.452237 
L 207.686559 55.765929 
L 208.471738 59.191608 
L 209.256917 57.163546 
L 209.518643 55.702287 
L 209.78037 57.429034 
L 210.042096 58.107242 
L 210.303823 57.857583 
L 210.565549 59.563454 
L 210.827275 60.195067 
L 211.612455 55.84419 
L 211.874181 55.741236 
L 212.135907 55.971802 
L 212.397634 54.514414 
L 212.65936 54.960374 
L 212.921086 54.475787 
L 213.182813 52.704133 
L 213.444539 53.151611 
L 213.706266 53.914452 
L 213.967992 53.888611 
L 214.491445 52.404671 
L 214.753171 52.169806 
L 215.014898 51.412794 
L 215.276624 53.475328 
L 215.53835 54.561576 
L 215.800077 54.307381 
L 216.061803 55.480527 
L 216.585256 58.712676 
L 216.846982 59.852287 
L 217.108709 60.020605 
L 217.370435 61.290776 
L 217.632161 60.912683 
L 217.893888 58.627543 
L 218.155614 58.761079 
L 218.417341 57.036207 
L 218.679067 56.607336 
L 218.940793 58.019824 
L 219.20252 58.298185 
L 219.464246 59.522826 
L 219.725972 58.456449 
L 219.987699 59.904075 
L 220.249425 58.111528 
L 220.511152 57.299345 
L 220.772878 59.887525 
L 221.034604 58.798078 
L 221.296331 56.709508 
L 221.558057 57.691412 
L 221.819784 56.349423 
L 222.08151 58.649387 
L 222.343236 58.260638 
L 222.604963 60.373067 
L 222.866689 59.675835 
L 223.128415 61.947221 
L 223.390142 65.311985 
L 223.651868 64.705248 
L 223.913595 61.630222 
L 224.175321 62.335469 
L 224.437047 61.175152 
L 224.698774 60.95979 
L 224.9605 61.312559 
L 225.222227 60.437387 
L 225.483953 58.224682 
L 225.745679 59.7805 
L 226.269132 58.467792 
L 226.530858 60.269667 
L 227.054311 55.490798 
L 227.316038 56.690111 
L 227.577764 54.369536 
L 227.83949 54.256071 
L 228.101217 54.429684 
L 228.362943 52.425516 
L 228.886396 51.645041 
L 229.409849 47.933357 
L 229.671575 46.755581 
L 230.195028 50.618827 
L 230.456754 49.124638 
L 230.718481 50.31857 
L 230.980207 50.102725 
L 231.241933 51.484724 
L 231.50366 51.697504 
L 231.765386 53.3396 
L 232.027113 51.174812 
L 232.288839 52.479938 
L 232.812292 52.82128 
L 233.074018 51.212743 
L 233.335744 53.041456 
L 233.597471 53.050854 
L 233.859197 53.289956 
L 234.38265 51.913976 
L 234.644376 52.490632 
L 234.906103 52.146016 
L 235.167829 52.605228 
L 235.429556 51.961598 
L 235.691282 52.066293 
L 235.953008 52.892817 
L 236.214735 52.895328 
L 236.476461 52.386667 
L 236.738187 49.39582 
L 236.999914 50.019709 
L 237.26164 49.598605 
L 237.523367 47.668962 
L 238.046819 52.628008 
L 238.308546 54.148314 
L 238.570272 54.258394 
L 238.831999 51.031727 
L 239.093725 50.495424 
L 239.355451 48.89477 
L 239.617178 49.1693 
L 240.140631 55.361515 
L 240.402357 53.986426 
L 240.664083 53.706562 
L 240.92581 55.365485 
L 241.187536 53.861457 
L 241.449262 55.833761 
L 241.972715 52.369977 
L 242.234442 53.33784 
L 242.496168 54.74975 
L 242.757894 53.60507 
L 243.019621 54.999021 
L 243.281347 53.830285 
L 243.543074 55.353775 
L 243.8048 54.254377 
L 244.066526 54.09216 
L 244.328253 54.618564 
L 244.589979 55.747237 
L 244.851705 55.390594 
L 245.113432 57.818018 
L 245.636885 58.583258 
L 245.898611 57.63811 
L 246.160337 59.220983 
L 246.422064 56.920971 
L 246.68379 57.27634 
L 246.945517 58.709778 
L 247.468969 54.616331 
L 247.730696 54.820355 
L 247.992422 55.942095 
L 248.254148 55.873922 
L 248.515875 56.728823 
L 248.777601 57.085648 
L 249.039328 54.997714 
L 249.301054 54.442867 
L 249.56278 54.212498 
L 249.824507 53.721123 
L 250.086233 53.759788 
L 250.609686 51.44239 
L 250.871412 51.898348 
L 251.133139 51.732076 
L 251.394865 48.55122 
L 251.656591 47.986591 
L 251.918318 48.217943 
L 252.180044 45.528238 
L 252.441771 45.515575 
L 252.703497 46.948558 
L 252.965223 46.060703 
L 253.22695 47.233295 
L 253.488676 47.87474 
L 253.750403 47.437599 
L 254.012129 47.594244 
L 254.535582 49.287414 
L 254.797308 50.045208 
L 255.059034 48.501295 
L 255.582487 50.158847 
L 255.844214 47.475217 
L 256.10594 48.189427 
L 256.629393 44.509581 
L 256.891119 44.713342 
L 257.152846 46.570641 
L 257.414572 45.973892 
L 257.938025 43.830405 
L 258.199751 43.743795 
L 258.723204 40.376798 
L 258.98493 41.776845 
L 259.246657 39.926221 
L 259.508383 39.723104 
L 260.031836 40.926368 
L 260.293562 38.494294 
L 260.555289 37.240288 
L 260.817015 39.61405 
L 261.078741 39.53131 
L 261.602194 39.995672 
L 261.86392 40.690496 
L 262.125647 42.614109 
L 262.387373 41.501421 
L 262.6491 42.746599 
L 262.910826 43.242112 
L 263.434279 44.995904 
L 263.696005 44.027158 
L 263.957732 43.532294 
L 264.742911 46.272434 
L 265.004637 45.005639 
L 265.266363 44.843172 
L 265.52809 44.541464 
L 266.051543 45.313188 
L 266.313269 45.030969 
L 266.574995 47.440701 
L 266.836722 45.326121 
L 267.360175 47.093742 
L 267.621901 45.338041 
L 267.883627 45.048017 
L 268.145354 44.994867 
L 268.40708 45.758842 
L 268.668806 47.796623 
L 268.930533 47.544501 
L 269.192259 45.973863 
L 269.453986 47.146623 
L 269.715712 45.359 
L 270.239165 47.784204 
L 270.500891 47.112926 
L 270.762618 47.105367 
L 271.024344 46.195506 
L 271.547797 48.500973 
L 272.071249 52.473591 
L 272.594702 55.673668 
L 272.856429 55.224767 
L 273.118155 56.04794 
L 273.379881 58.597322 
L 273.641608 55.294303 
L 273.903334 56.340479 
L 274.165061 57.931397 
L 274.688513 54.684979 
L 275.473692 59.274123 
L 275.735419 57.736617 
L 275.997145 58.087898 
L 276.258872 59.087338 
L 276.520598 59.063039 
L 276.782324 57.428903 
L 277.044051 59.190005 
L 277.305777 59.629497 
L 277.567504 61.372761 
L 278.090956 56.030302 
L 278.352683 54.740315 
L 278.614409 54.872763 
L 278.876135 53.969435 
L 279.137862 56.676706 
L 279.399588 56.265133 
L 279.923041 59.635834 
L 280.184767 60.492503 
L 280.446494 60.882266 
L 281.231673 58.67741 
L 281.493399 59.851365 
L 281.755126 58.903611 
L 282.016852 59.001057 
L 282.278578 57.3985 
L 282.540305 58.542675 
L 282.802031 62.093025 
L 283.063758 62.640807 
L 283.325484 59.753529 
L 283.58721 59.076592 
L 283.848937 59.26911 
L 284.37239 57.338801 
L 284.634116 56.682717 
L 284.895842 57.30296 
L 285.157569 57.150138 
L 285.419295 56.834705 
L 285.681021 57.622912 
L 285.942748 59.029402 
L 286.204474 58.786716 
L 286.727927 56.562206 
L 287.25138 55.161398 
L 287.513106 51.742544 
L 287.774833 51.374783 
L 288.036559 49.987045 
L 288.298285 47.410321 
L 288.560012 47.332199 
L 288.821738 46.978215 
L 289.083464 45.607639 
L 289.345191 43.402554 
L 289.868644 42.539663 
L 290.13037 42.434116 
L 290.392096 44.022421 
L 290.653823 42.568984 
L 290.915549 42.911765 
L 291.177276 45.16819 
L 291.439002 45.357735 
L 291.962455 48.916546 
L 292.224181 48.873416 
L 292.485907 50.055686 
L 292.747634 48.630409 
L 293.00936 50.52853 
L 293.271087 50.154151 
L 293.532813 49.395958 
L 294.056266 46.237686 
L 294.317992 45.919095 
L 294.579719 45.80117 
L 294.841445 45.864949 
L 295.103171 44.364287 
L 295.364898 45.21532 
L 295.626624 44.523801 
L 295.88835 44.637863 
L 296.150077 44.314462 
L 296.411803 44.649242 
L 296.67353 41.850618 
L 296.935256 42.711572 
L 297.458709 42.018425 
L 297.982162 40.640935 
L 298.243888 40.093047 
L 298.505614 38.819479 
L 298.767341 40.799793 
L 299.029067 40.79234 
L 299.290794 42.40904 
L 299.55252 42.103248 
L 300.075973 44.893474 
L 300.337699 44.959006 
L 300.599425 43.121024 
L 300.861152 42.360891 
L 301.122878 41.970773 
L 301.384605 40.136702 
L 301.646331 41.378318 
L 301.908057 44.112219 
L 302.43151 45.004368 
L 302.693237 43.376225 
L 302.954963 40.573961 
L 303.216689 42.315276 
L 303.740142 37.043294 
L 304.001868 35.96791 
L 304.263595 35.51188 
L 304.525321 32.369691 
L 304.787048 32.305291 
L 305.048774 32.9651 
L 305.3105 32.821475 
L 305.572227 34.648614 
L 305.833953 34.062449 
L 306.09568 34.238852 
L 306.619132 33.402645 
L 306.880859 34.821548 
L 307.142585 33.131751 
L 307.404311 34.494245 
L 307.666038 33.364911 
L 307.927764 35.481854 
L 308.189491 35.022696 
L 308.451217 36.121837 
L 308.712943 36.089051 
L 308.97467 36.962845 
L 309.236396 39.833457 
L 309.498123 41.295232 
L 309.759849 41.204573 
L 310.021575 40.388851 
L 310.283302 42.310732 
L 310.545028 45.0807 
L 310.806754 46.201566 
L 311.068481 46.454255 
L 311.591934 48.286027 
L 312.377113 44.861882 
L 312.638839 46.069543 
L 312.900566 45.947004 
L 313.162292 46.177579 
L 313.424018 48.018685 
L 313.685745 46.834319 
L 313.947471 46.693089 
L 314.209197 47.300773 
L 314.470924 45.420788 
L 314.994377 43.269692 
L 315.517829 40.751272 
L 315.779556 42.405177 
L 316.041282 42.906941 
L 316.303009 41.588335 
L 316.564735 42.590426 
L 316.826461 42.535558 
L 317.088188 42.009927 
L 317.61164 38.431963 
L 317.873367 37.271239 
L 318.135093 37.532919 
L 318.658546 35.688 
L 318.920272 35.925225 
L 319.181999 34.176818 
L 319.443725 33.563884 
L 319.705452 34.587423 
L 319.967178 32.965174 
L 320.228904 33.337643 
L 320.490631 32.600012 
L 320.752357 34.632532 
L 321.014083 34.690478 
L 321.537536 37.25711 
L 321.799263 39.774666 
L 322.060989 36.986083 
L 322.322715 37.205821 
L 322.584442 36.917847 
L 322.846168 35.495304 
L 323.107895 35.685752 
L 323.369621 35.045747 
L 323.631347 36.854764 
L 323.893074 36.62416 
L 324.1548 37.191958 
L 324.416526 36.562927 
L 324.678253 36.354341 
L 325.463432 41.968716 
L 325.986885 40.463657 
L 326.248611 39.948546 
L 327.03379 46.917639 
L 327.295517 47.336302 
L 327.557243 48.107165 
L 327.818969 47.623655 
L 328.080696 47.829495 
L 328.604149 50.485127 
L 329.127601 50.146239 
L 329.389328 50.216307 
L 329.651054 47.227797 
L 329.912781 47.557818 
L 330.174507 47.386658 
L 330.436233 48.674553 
L 330.69796 49.125089 
L 331.221412 47.66305 
L 331.483139 47.856 
L 331.744865 47.326973 
L 332.006592 47.244629 
L 332.268318 49.692429 
L 332.530044 53.950388 
L 332.791771 50.893349 
L 333.053497 49.78354 
L 333.315224 49.838191 
L 333.838676 53.72477 
L 334.100403 51.916485 
L 334.362129 55.529246 
L 334.623855 55.907532 
L 334.885582 54.725984 
L 335.147308 54.497166 
L 335.409035 53.470571 
L 335.670761 53.605923 
L 335.932487 50.442961 
L 336.45594 53.514154 
L 336.717667 53.119287 
L 336.979393 51.2175 
L 337.241119 51.26456 
L 337.502846 49.868219 
L 337.764572 50.541713 
L 338.026298 52.066987 
L 338.811478 46.123633 
L 339.073204 46.693046 
L 339.596657 49.711423 
L 339.858383 49.985669 
L 340.381836 48.522547 
L 340.643562 50.382316 
L 340.905289 50.1052 
L 341.690468 49.933474 
L 341.952194 50.177051 
L 342.213921 49.380867 
L 342.737373 48.886205 
L 342.9991 49.773 
L 343.260826 49.236601 
L 343.522553 49.377816 
L 343.784279 52.122923 
L 344.046005 51.461224 
L 344.307732 51.779407 
L 344.569458 50.541047 
L 345.092911 50.831182 
L 345.354637 50.530472 
L 345.616364 50.523106 
L 345.87809 51.084055 
L 346.139816 53.400946 
L 346.401543 50.958301 
L 346.663269 52.995695 
L 346.924996 53.407837 
L 347.448448 51.990752 
L 347.971901 50.189721 
L 348.233627 48.518215 
L 348.495354 48.116112 
L 348.75708 44.307538 
L 349.018807 45.636382 
L 349.280533 45.338556 
L 349.542259 45.810404 
L 349.803986 46.520836 
L 350.065712 46.140808 
L 350.327439 44.23299 
L 350.850891 46.096053 
L 351.374344 44.437666 
L 351.63607 41.885056 
L 351.897797 40.558516 
L 352.159523 40.28065 
L 352.42125 40.73414 
L 352.682976 40.4742 
L 352.944702 40.725464 
L 353.206429 42.529783 
L 353.468155 42.532177 
L 353.991608 43.089847 
L 354.253334 43.66123 
L 354.515061 41.461761 
L 355.038513 39.368531 
L 355.30024 40.189633 
L 355.561966 41.549037 
L 355.823693 41.936097 
L 356.085419 41.633118 
L 356.608872 42.3623 
L 356.870598 41.120421 
L 357.132325 40.749074 
L 357.394051 42.055534 
L 357.655777 42.629861 
L 357.917504 43.501424 
L 358.17923 43.273864 
L 358.440956 44.808302 
L 358.702683 45.044674 
L 358.964409 44.141796 
L 359.226136 44.110173 
L 359.749588 46.11568 
L 360.011315 45.950269 
L 360.273041 45.317038 
L 360.534768 44.224284 
L 360.796494 44.419481 
L 361.05822 46.144688 
L 361.319947 44.28028 
L 362.105126 42.983357 
L 362.366852 44.349611 
L 362.628579 44.77164 
L 362.890305 44.438676 
L 363.152031 43.094443 
L 363.413758 43.026444 
L 363.675484 47.112561 
L 363.937211 47.420336 
L 364.198937 46.95085 
L 364.460663 45.254059 
L 364.72239 44.325845 
L 364.984116 41.078263 
L 365.769295 36.309497 
L 366.031022 38.156342 
L 366.554474 36.337406 
L 366.816201 37.065498 
L 367.339654 35.831924 
L 367.60138 36.482612 
L 367.863106 36.684145 
L 368.124833 37.06751 
L 368.386559 36.804194 
L 368.648286 37.39768 
L 368.910012 36.722172 
L 369.171738 39.266164 
L 369.433465 39.662248 
L 369.695191 41.8888 
L 369.956917 42.535587 
L 370.218644 41.873501 
L 370.48037 41.861375 
L 370.742097 42.022042 
L 371.003823 41.947622 
L 371.265549 39.913348 
L 371.527276 41.383232 
L 371.789002 40.242006 
L 372.050729 42.241168 
L 372.312455 42.866178 
L 372.574181 42.664127 
L 372.835908 43.789117 
L 373.097634 43.528655 
L 373.35936 42.585509 
L 373.621087 44.157647 
L 373.882813 44.264533 
L 374.14454 44.761738 
L 374.406266 47.299327 
L 374.667992 47.535366 
L 374.929719 48.56802 
L 375.191445 46.804918 
L 375.453172 47.942469 
L 375.714898 45.711453 
L 375.976624 46.407061 
L 376.238351 43.871206 
L 377.02353 41.551701 
L 377.285256 40.39068 
L 377.808709 36.348211 
L 378.070435 36.842047 
L 378.332162 38.513688 
L 378.593888 42.034695 
L 378.855615 42.555893 
L 379.117341 41.575908 
L 379.379067 41.099143 
L 379.640794 40.968278 
L 379.90252 41.445873 
L 380.164246 42.299844 
L 380.425973 42.684557 
L 380.687699 42.18894 
L 380.949426 44.508512 
L 381.211152 43.560657 
L 381.472878 45.474172 
L 381.734605 45.680775 
L 382.258058 46.986456 
L 382.258058 46.986456 
" clip-path="url(#pe0ccd50bfe)" style="fill: none; stroke: #b23a48; stroke-width: 1.4; stroke-linecap: square"/>
   </g>
   <g id="line2d_28">
    <path d="M 52.482813 45.452053 
L 397.961641 45.452053 
" clip-path="url(#pe0ccd50bfe)" style="fill: none; stroke-dasharray: 4.44,1.92; stroke-dashoffset: 0; stroke: #1d3557; stroke-width: 1.2"/>
   </g>
   <g id="patch_3">
    <path d="M 52.482813 242.035781 
L 52.482813 22.318125 
" style="fill: none; stroke: #000000; stroke-width: 0.8; stroke-linejoin: miter; stroke-linecap: square"/>
   </g>
   <g id="patch_4">
    <path d="M 52.482813 242.035781 
L 397.961641 242.035781 
" style="fill: none; stroke: #000000; stroke-width: 0.8; stroke-linejoin: miter; stroke-linecap: square"/>
   </g>
   <g id="text_16">
    <!-- One OU path -->
    <g transform="translate(186.435977 16.318125) scale(0.12 -0.12)">
     <defs>
      <path id="DejaVuSans-32" d="M 2522 4238 
Q 1834 4238 1429 3725 
Q 1025 3213 1025 2328 
Q 1025 1447 1429 934 
Q 1834 422 2522 422 
Q 3209 422 3611 934 
Q 4013 1447 4013 2328 
Q 4013 3213 3611 3725 
Q 3209 4238 2522 4238 
z
M 2522 4750 
Q 3503 4750 4090 4092 
Q 4678 3434 4678 2328 
Q 4678 1225 4090 567 
Q 3503 -91 2522 -91 
Q 1538 -91 948 565 
Q 359 1222 359 2328 
Q 359 3434 948 4092 
Q 1538 4750 2522 4750 
z
" transform="scale(0.015625)"/>
      <path id="DejaVuSans-51" d="M 3513 2113 
L 3513 0 
L 2938 0 
L 2938 2094 
Q 2938 2591 2744 2837 
Q 2550 3084 2163 3084 
Q 1697 3084 1428 2787 
Q 1159 2491 1159 1978 
L 1159 0 
L 581 0 
L 581 3500 
L 1159 3500 
L 1159 2956 
Q 1366 3272 1645 3428 
Q 1925 3584 2291 3584 
Q 2894 3584 3203 3211 
Q 3513 2838 3513 2113 
z
" transform="scale(0.015625)"/>
      <path id="DejaVuSans-48" d="M 3597 1894 
L 3597 1613 
L 953 1613 
Q 991 1019 1311 708 
Q 1631 397 2203 397 
Q 2534 397 2845 478 
Q 3156 559 3463 722 
L 3463 178 
Q 3153 47 2828 -22 
Q 2503 -91 2169 -91 
Q 1331 -91 842 396 
Q 353 884 353 1716 
Q 353 2575 817 3079 
Q 1281 3584 2069 3584 
Q 2775 3584 3186 3129 
Q 3597 2675 3597 1894 
z
M 3022 2063 
Q 3016 2534 2758 2815 
Q 2500 3097 2075 3097 
Q 1594 3097 1305 2825 
Q 1016 2553 972 2059 
L 3022 2063 
z
" transform="scale(0.015625)"/>
      <path id="DejaVuSans-3" transform="scale(0.015625)"/>
      <path id="DejaVuSans-38" d="M 556 4666 
L 1191 4666 
L 1191 1831 
Q 1191 1081 1462 751 
Q 1734 422 2344 422 
Q 2950 422 3222 751 
Q 3494 1081 3494 1831 
L 3494 4666 
L 4128 4666 
L 4128 1753 
Q 4128 841 3676 375 
Q 3225 -91 2344 -91 
Q 1459 -91 1007 375 
Q 556 841 556 1753 
L 556 4666 
z
" transform="scale(0.015625)"/>
      <path id="DejaVuSans-53" d="M 1159 525 
L 1159 -1331 
L 581 -1331 
L 581 3500 
L 1159 3500 
L 1159 2969 
Q 1341 3281 1617 3432 
Q 1894 3584 2278 3584 
Q 2916 3584 3314 3078 
Q 3713 2572 3713 1747 
Q 3713 922 3314 415 
Q 2916 -91 2278 -91 
Q 1894 -91 1617 61 
Q 1341 213 1159 525 
z
M 3116 1747 
Q 3116 2381 2855 2742 
Q 2594 3103 2138 3103 
Q 1681 3103 1420 2742 
Q 1159 2381 1159 1747 
Q 1159 1113 1420 752 
Q 1681 391 2138 391 
Q 2594 391 2855 752 
Q 3116 1113 3116 1747 
z
" transform="scale(0.015625)"/>
      <path id="DejaVuSans-44" d="M 2194 1759 
Q 1497 1759 1228 1600 
Q 959 1441 959 1056 
Q 959 750 1161 570 
Q 1363 391 1709 391 
Q 2188 391 2477 730 
Q 2766 1069 2766 1631 
L 2766 1759 
L 2194 1759 
z
M 3341 1997 
L 3341 0 
L 2766 0 
L 2766 531 
Q 2569 213 2275 61 
Q 1981 -91 1556 -91 
Q 1019 -91 701 211 
Q 384 513 384 1019 
Q 384 1609 779 1909 
Q 1175 2209 1959 2209 
L 2766 2209 
L 2766 2266 
Q 2766 2663 2505 2880 
Q 2244 3097 1772 3097 
Q 1472 3097 1187 3025 
Q 903 2953 641 2809 
L 641 3341 
Q 956 3463 1253 3523 
Q 1550 3584 1831 3584 
Q 2591 3584 2966 3190 
Q 3341 2797 3341 1997 
z
" transform="scale(0.015625)"/>
      <path id="DejaVuSans-4b" d="M 3513 2113 
L 3513 0 
L 2938 0 
L 2938 2094 
Q 2938 2591 2744 2837 
Q 2550 3084 2163 3084 
Q 1697 3084 1428 2787 
Q 1159 2491 1159 1978 
L 1159 0 
L 581 0 
L 581 4863 
L 1159 4863 
L 1159 2956 
Q 1366 3272 1645 3428 
Q 1925 3584 2291 3584 
Q 2894 3584 3203 3211 
Q 3513 2838 3513 2113 
z
" transform="scale(0.015625)"/>
     </defs>
     <use xlink:href="#DejaVuSans-32"/>
     <use xlink:href="#DejaVuSans-51" transform="translate(78.71875 0)"/>
     <use xlink:href="#DejaVuSans-48" transform="translate(142.09375 0)"/>
     <use xlink:href="#DejaVuSans-3" transform="translate(203.625 0)"/>
     <use xlink:href="#DejaVuSans-32" transform="translate(235.40625 0)"/>
     <use xlink:href="#DejaVuSans-38" transform="translate(314.125 0)"/>
     <use xlink:href="#DejaVuSans-3" transform="translate(387.3125 0)"/>
     <use xlink:href="#DejaVuSans-53" transform="translate(419.09375 0)"/>
     <use xlink:href="#DejaVuSans-44" transform="translate(482.578125 0)"/>
     <use xlink:href="#DejaVuSans-57" transform="translate(543.859375 0)"/>
     <use xlink:href="#DejaVuSans-4b" transform="translate(583.0625 0)"/>
    </g>
   </g>
   <g id="legend_1">
    <g id="patch_5">
     <path d="M 59.482813 45.318906 
L 146.801562 45.318906 
Q 148.801562 45.318906 148.801562 43.318906 
L 148.801562 29.318125 
Q 148.801562 27.318125 146.801562 27.318125 
L 59.482813 27.318125 
Q 57.482813 27.318125 57.482813 29.318125 
L 57.482813 43.318906 
Q 57.482813 45.318906 59.482813 45.318906 
z
" style="fill: #ffffff; opacity: 0.8; stroke: #cccccc; stroke-linejoin: miter"/>
    </g>
    <g id="line2d_29">
     <path d="M 61.482813 35.416562 
L 71.482812 35.416562 
L 81.482812 35.416562 
" style="fill: none; stroke-dasharray: 4.44,1.92; stroke-dashoffset: 0; stroke: #1d3557; stroke-width: 1.2"/>
    </g>
    <g id="text_17">
     <!-- mean level -->
     <g transform="translate(89.482812 38.916562) scale(0.1 -0.1)">
      <defs>
       <path id="DejaVuSans-50" d="M 3328 2828 
Q 3544 3216 3844 3400 
Q 4144 3584 4550 3584 
Q 5097 3584 5394 3201 
Q 5691 2819 5691 2113 
L 5691 0 
L 5113 0 
L 5113 2094 
Q 5113 2597 4934 2840 
Q 4756 3084 4391 3084 
Q 3944 3084 3684 2787 
Q 3425 2491 3425 1978 
L 3425 0 
L 2847 0 
L 2847 2094 
Q 2847 2600 2669 2842 
Q 2491 3084 2119 3084 
Q 1678 3084 1418 2786 
Q 1159 2488 1159 1978 
L 1159 0 
L 581 0 
L 581 3500 
L 1159 3500 
L 1159 2956 
Q 1356 3278 1631 3431 
Q 1906 3584 2284 3584 
Q 2666 3584 2933 3390 
Q 3200 3197 3328 2828 
z
" transform="scale(0.015625)"/>
       <path id="DejaVuSans-4f" d="M 603 4863 
L 1178 4863 
L 1178 0 
L 603 0 
L 603 4863 
z
" transform="scale(0.015625)"/>
       <path id="DejaVuSans-59" d="M 191 3500 
L 800 3500 
L 1894 563 
L 2988 3500 
L 3597 3500 
L 2284 0 
L 1503 0 
L 191 3500 
z
" transform="scale(0.015625)"/>
      </defs>
      <use xlink:href="#DejaVuSans-50"/>
      <use xlink:href="#DejaVuSans-48" transform="translate(97.40625 0)"/>
      <use xlink:href="#DejaVuSans-44" transform="translate(158.9375 0)"/>
      <use xlink:href="#DejaVuSans-51" transform="translate(220.21875 0)"/>
      <use xlink:href="#DejaVuSans-3" transform="translate(283.59375 0)"/>
      <use xlink:href="#DejaVuSans-4f" transform="translate(315.375 0)"/>
      <use xlink:href="#DejaVuSans-48" transform="translate(343.15625 0)"/>
      <use xlink:href="#DejaVuSans-59" transform="translate(404.6875 0)"/>
      <use xlink:href="#DejaVuSans-48" transform="translate(463.875 0)"/>
      <use xlink:href="#DejaVuSans-4f" transform="translate(525.40625 0)"/>
     </g>
    </g>
   </g>
  </g>
  <g id="axes_2">
   <g id="patch_6">
    <path d="M 431.601641 242.035781 
L 777.080469 242.035781 
L 777.080469 22.318125 
L 431.601641 22.318125 
z
" style="fill: #ffffff"/>
   </g>
   <g id="patch_7">
    <path d="M 447.305224 242.035781 
L 450.794909 242.035781 
L 450.794909 241.901772 
L 447.305224 241.901772 
z
" clip-path="url(#p06a112a8f4)" style="fill: #e0a458; opacity: 0.76"/>
   </g>
   <g id="patch_8">
    <path d="M 450.794909 242.035781 
L 454.284594 242.035781 
L 454.284594 242.035781 
L 450.794909 242.035781 
z
" clip-path="url(#p06a112a8f4)" style="fill: #e0a458; opacity: 0.76"/>
   </g>
   <g id="patch_9">
    <path d="M 454.284594 242.035781 
L 457.774279 242.035781 
L 457.774279 242.035781 
L 454.284594 242.035781 
z
" clip-path="url(#p06a112a8f4)" style="fill: #e0a458; opacity: 0.76"/>
   </g>
   <g id="patch_10">
    <path d="M 457.774279 242.035781 
L 461.263964 242.035781 
L 461.263964 241.968777 
L 457.774279 241.968777 
z
" clip-path="url(#p06a112a8f4)" style="fill: #e0a458; opacity: 0.76"/>
   </g>
   <g id="patch_11">
    <path d="M 461.263964 242.035781 
L 464.753649 242.035781 
L 464.753649 242.035781 
L 461.263964 242.035781 
z
" clip-path="url(#p06a112a8f4)" style="fill: #e0a458; opacity: 0.76"/>
   </g>
   <g id="patch_12">
    <path d="M 464.753649 242.035781 
L 468.243335 242.035781 
L 468.243335 241.968777 
L 464.753649 241.968777 
z
" clip-path="url(#p06a112a8f4)" style="fill: #e0a458; opacity: 0.76"/>
   </g>
   <g id="patch_13">
    <path d="M 468.243335 242.035781 
L 471.73302 242.035781 
L 471.73302 242.035781 
L 468.243335 242.035781 
z
" clip-path="url(#p06a112a8f4)" style="fill: #e0a458; opacity: 0.76"/>
   </g>
   <g id="patch_14">
    <path d="M 471.73302 242.035781 
L 475.222705 242.035781 
L 475.222705 241.834768 
L 471.73302 241.834768 
z
" clip-path="url(#p06a112a8f4)" style="fill: #e0a458; opacity: 0.76"/>
   </g>
   <g id="patch_15">
    <path d="M 475.222705 242.035781 
L 478.71239 242.035781 
L 478.71239 241.834768 
L 475.222705 241.834768 
z
" clip-path="url(#p06a112a8f4)" style="fill: #e0a458; opacity: 0.76"/>
   </g>
   <g id="patch_16">
    <path d="M 478.71239 242.035781 
L 482.202075 242.035781 
L 482.202075 241.901772 
L 478.71239 241.901772 
z
" clip-path="url(#p06a112a8f4)" style="fill: #e0a458; opacity: 0.76"/>
   </g>
   <g id="patch_17">
    <path d="M 482.202075 242.035781 
L 485.69176 242.035781 
L 485.69176 241.834768 
L 482.202075 241.834768 
z
" clip-path="url(#p06a112a8f4)" style="fill: #e0a458; opacity: 0.76"/>
   </g>
   <g id="patch_18">
    <path d="M 485.69176 242.035781 
L 489.181445 242.035781 
L 489.181445 241.432741 
L 485.69176 241.432741 
z
" clip-path="url(#p06a112a8f4)" style="fill: #e0a458; opacity: 0.76"/>
   </g>
   <g id="patch_19">
    <path d="M 489.181445 242.035781 
L 492.67113 242.035781 
L 492.67113 241.298732 
L 489.181445 241.298732 
z
" clip-path="url(#p06a112a8f4)" style="fill: #e0a458; opacity: 0.76"/>
   </g>
   <g id="patch_20">
    <path d="M 492.67113 242.035781 
L 496.160816 242.035781 
L 496.160816 241.030714 
L 492.67113 241.030714 
z
" clip-path="url(#p06a112a8f4)" style="fill: #e0a458; opacity: 0.76"/>
   </g>
   <g id="patch_21">
    <path d="M 496.160816 242.035781 
L 499.650501 242.035781 
L 499.650501 240.762697 
L 496.160816 240.762697 
z
" clip-path="url(#p06a112a8f4)" style="fill: #e0a458; opacity: 0.76"/>
   </g>
   <g id="patch_22">
    <path d="M 499.650501 242.035781 
L 503.140186 242.035781 
L 503.140186 240.96371 
L 499.650501 240.96371 
z
" clip-path="url(#p06a112a8f4)" style="fill: #e0a458; opacity: 0.76"/>
   </g>
   <g id="patch_23">
    <path d="M 503.140186 242.035781 
L 506.629871 242.035781 
L 506.629871 239.288599 
L 503.140186 239.288599 
z
" clip-path="url(#p06a112a8f4)" style="fill: #e0a458; opacity: 0.76"/>
   </g>
   <g id="patch_24">
    <path d="M 506.629871 242.035781 
L 510.119556 242.035781 
L 510.119556 238.886572 
L 506.629871 238.886572 
z
" clip-path="url(#p06a112a8f4)" style="fill: #e0a458; opacity: 0.76"/>
   </g>
   <g id="patch_25">
    <path d="M 510.119556 242.035781 
L 513.609241 242.035781 
L 513.609241 238.484545 
L 510.119556 238.484545 
z
" clip-path="url(#p06a112a8f4)" style="fill: #e0a458; opacity: 0.76"/>
   </g>
   <g id="patch_26">
    <path d="M 513.609241 242.035781 
L 517.098926 242.035781 
L 517.098926 237.613487 
L 513.609241 237.613487 
z
" clip-path="url(#p06a112a8f4)" style="fill: #e0a458; opacity: 0.76"/>
   </g>
   <g id="patch_27">
    <path d="M 517.098926 242.035781 
L 520.588612 242.035781 
L 520.588612 235.603354 
L 517.098926 235.603354 
z
" clip-path="url(#p06a112a8f4)" style="fill: #e0a458; opacity: 0.76"/>
   </g>
   <g id="patch_28">
    <path d="M 520.588612 242.035781 
L 524.078297 242.035781 
L 524.078297 232.789167 
L 520.588612 232.789167 
z
" clip-path="url(#p06a112a8f4)" style="fill: #e0a458; opacity: 0.76"/>
   </g>
   <g id="patch_29">
    <path d="M 524.078297 242.035781 
L 527.567982 242.035781 
L 527.567982 229.773966 
L 524.078297 229.773966 
z
" clip-path="url(#p06a112a8f4)" style="fill: #e0a458; opacity: 0.76"/>
   </g>
   <g id="patch_30">
    <path d="M 527.567982 242.035781 
L 531.057667 242.035781 
L 531.057667 226.624757 
L 527.567982 226.624757 
z
" clip-path="url(#p06a112a8f4)" style="fill: #e0a458; opacity: 0.76"/>
   </g>
   <g id="patch_31">
    <path d="M 531.057667 242.035781 
L 534.547352 242.035781 
L 534.547352 227.696828 
L 531.057667 227.696828 
z
" clip-path="url(#p06a112a8f4)" style="fill: #e0a458; opacity: 0.76"/>
   </g>
   <g id="patch_32">
    <path d="M 534.547352 242.035781 
L 538.037037 242.035781 
L 538.037037 224.279601 
L 534.547352 224.279601 
z
" clip-path="url(#p06a112a8f4)" style="fill: #e0a458; opacity: 0.76"/>
   </g>
   <g id="patch_33">
    <path d="M 538.037037 242.035781 
L 541.526722 242.035781 
L 541.526722 218.986249 
L 538.037037 218.986249 
z
" clip-path="url(#p06a112a8f4)" style="fill: #e0a458; opacity: 0.76"/>
   </g>
   <g id="patch_34">
    <path d="M 541.526722 242.035781 
L 545.016407 242.035781 
L 545.016407 214.027919 
L 541.526722 214.027919 
z
" clip-path="url(#p06a112a8f4)" style="fill: #e0a458; opacity: 0.76"/>
   </g>
   <g id="patch_35">
    <path d="M 545.016407 242.035781 
L 548.506093 242.035781 
L 548.506093 206.456416 
L 545.016407 206.456416 
z
" clip-path="url(#p06a112a8f4)" style="fill: #e0a458; opacity: 0.76"/>
   </g>
   <g id="patch_36">
    <path d="M 548.506093 242.035781 
L 551.995778 242.035781 
L 551.995778 196.807775 
L 548.506093 196.807775 
z
" clip-path="url(#p06a112a8f4)" style="fill: #e0a458; opacity: 0.76"/>
   </g>
   <g id="patch_37">
    <path d="M 551.995778 242.035781 
L 555.485463 242.035781 
L 555.485463 191.514423 
L 551.995778 191.514423 
z
" clip-path="url(#p06a112a8f4)" style="fill: #e0a458; opacity: 0.76"/>
   </g>
   <g id="patch_38">
    <path d="M 555.485463 242.035781 
L 558.975148 242.035781 
L 558.975148 183.942919 
L 555.485463 183.942919 
z
" clip-path="url(#p06a112a8f4)" style="fill: #e0a458; opacity: 0.76"/>
   </g>
   <g id="patch_39">
    <path d="M 558.975148 242.035781 
L 562.464833 242.035781 
L 562.464833 172.351149 
L 558.975148 172.351149 
z
" clip-path="url(#p06a112a8f4)" style="fill: #e0a458; opacity: 0.76"/>
   </g>
   <g id="patch_40">
    <path d="M 562.464833 242.035781 
L 565.954518 242.035781 
L 565.954518 167.526828 
L 562.464833 167.526828 
z
" clip-path="url(#p06a112a8f4)" style="fill: #e0a458; opacity: 0.76"/>
   </g>
   <g id="patch_41">
    <path d="M 565.954518 242.035781 
L 569.444203 242.035781 
L 569.444203 156.806115 
L 565.954518 156.806115 
z
" clip-path="url(#p06a112a8f4)" style="fill: #e0a458; opacity: 0.76"/>
   </g>
   <g id="patch_42">
    <path d="M 569.444203 242.035781 
L 572.933888 242.035781 
L 572.933888 138.580904 
L 569.444203 138.580904 
z
" clip-path="url(#p06a112a8f4)" style="fill: #e0a458; opacity: 0.76"/>
   </g>
   <g id="patch_43">
    <path d="M 572.933888 242.035781 
L 576.423574 242.035781 
L 576.423574 129.066271 
L 572.933888 129.066271 
z
" clip-path="url(#p06a112a8f4)" style="fill: #e0a458; opacity: 0.76"/>
   </g>
   <g id="patch_44">
    <path d="M 576.423574 242.035781 
L 579.913259 242.035781 
L 579.913259 116.000403 
L 576.423574 116.000403 
z
" clip-path="url(#p06a112a8f4)" style="fill: #e0a458; opacity: 0.76"/>
   </g>
   <g id="patch_45">
    <path d="M 579.913259 242.035781 
L 583.402944 242.035781 
L 583.402944 109.433966 
L 579.913259 109.433966 
z
" clip-path="url(#p06a112a8f4)" style="fill: #e0a458; opacity: 0.76"/>
   </g>
   <g id="patch_46">
    <path d="M 583.402944 242.035781 
L 586.892629 242.035781 
L 586.892629 95.765058 
L 583.402944 95.765058 
z
" clip-path="url(#p06a112a8f4)" style="fill: #e0a458; opacity: 0.76"/>
   </g>
   <g id="patch_47">
    <path d="M 586.892629 242.035781 
L 590.382314 242.035781 
L 590.382314 81.560113 
L 586.892629 81.560113 
z
" clip-path="url(#p06a112a8f4)" style="fill: #e0a458; opacity: 0.76"/>
   </g>
   <g id="patch_48">
    <path d="M 590.382314 242.035781 
L 593.871999 242.035781 
L 593.871999 81.761127 
L 590.382314 81.761127 
z
" clip-path="url(#p06a112a8f4)" style="fill: #e0a458; opacity: 0.76"/>
   </g>
   <g id="patch_49">
    <path d="M 593.871999 242.035781 
L 597.361684 242.035781 
L 597.361684 66.417107 
L 593.871999 66.417107 
z
" clip-path="url(#p06a112a8f4)" style="fill: #e0a458; opacity: 0.76"/>
   </g>
   <g id="patch_50">
    <path d="M 597.361684 242.035781 
L 600.85137 242.035781 
L 600.85137 54.2893 
L 597.361684 54.2893 
z
" clip-path="url(#p06a112a8f4)" style="fill: #e0a458; opacity: 0.76"/>
   </g>
   <g id="patch_51">
    <path d="M 600.85137 242.035781 
L 604.341055 242.035781 
L 604.341055 53.016216 
L 600.85137 53.016216 
z
" clip-path="url(#p06a112a8f4)" style="fill: #e0a458; opacity: 0.76"/>
   </g>
   <g id="patch_52">
    <path d="M 604.341055 242.035781 
L 607.83074 242.035781 
L 607.83074 38.610258 
L 604.341055 38.610258 
z
" clip-path="url(#p06a112a8f4)" style="fill: #e0a458; opacity: 0.76"/>
   </g>
   <g id="patch_53">
    <path d="M 607.83074 242.035781 
L 611.320425 242.035781 
L 611.320425 39.54832 
L 607.83074 39.54832 
z
" clip-path="url(#p06a112a8f4)" style="fill: #e0a458; opacity: 0.76"/>
   </g>
   <g id="patch_54">
    <path d="M 611.320425 242.035781 
L 614.81011 242.035781 
L 614.81011 32.780871 
L 611.320425 32.780871 
z
" clip-path="url(#p06a112a8f4)" style="fill: #e0a458; opacity: 0.76"/>
   </g>
   <g id="patch_55">
    <path d="M 614.81011 242.035781 
L 618.299795 242.035781 
L 618.299795 35.528053 
L 614.81011 35.528053 
z
" clip-path="url(#p06a112a8f4)" style="fill: #e0a458; opacity: 0.76"/>
   </g>
   <g id="patch_56">
    <path d="M 618.299795 242.035781 
L 621.78948 242.035781 
L 621.78948 44.573654 
L 618.299795 44.573654 
z
" clip-path="url(#p06a112a8f4)" style="fill: #e0a458; opacity: 0.76"/>
   </g>
   <g id="patch_57">
    <path d="M 621.78948 242.035781 
L 625.279165 242.035781 
L 625.279165 43.30057 
L 621.78948 43.30057 
z
" clip-path="url(#p06a112a8f4)" style="fill: #e0a458; opacity: 0.76"/>
   </g>
   <g id="patch_58">
    <path d="M 625.279165 242.035781 
L 628.768851 242.035781 
L 628.768851 53.150225 
L 625.279165 53.150225 
z
" clip-path="url(#p06a112a8f4)" style="fill: #e0a458; opacity: 0.76"/>
   </g>
   <g id="patch_59">
    <path d="M 628.768851 242.035781 
L 632.258536 242.035781 
L 632.258536 63.401906 
L 628.768851 63.401906 
z
" clip-path="url(#p06a112a8f4)" style="fill: #e0a458; opacity: 0.76"/>
   </g>
   <g id="patch_60">
    <path d="M 632.258536 242.035781 
L 635.748221 242.035781 
L 635.748221 59.180626 
L 632.258536 59.180626 
z
" clip-path="url(#p06a112a8f4)" style="fill: #e0a458; opacity: 0.76"/>
   </g>
   <g id="patch_61">
    <path d="M 635.748221 242.035781 
L 639.237906 242.035781 
L 639.237906 69.834334 
L 635.748221 69.834334 
z
" clip-path="url(#p06a112a8f4)" style="fill: #e0a458; opacity: 0.76"/>
   </g>
   <g id="patch_62">
    <path d="M 639.237906 242.035781 
L 642.727591 242.035781 
L 642.727591 82.632185 
L 639.237906 82.632185 
z
" clip-path="url(#p06a112a8f4)" style="fill: #e0a458; opacity: 0.76"/>
   </g>
   <g id="patch_63">
    <path d="M 642.727591 242.035781 
L 646.217276 242.035781 
L 646.217276 95.49704 
L 642.727591 95.49704 
z
" clip-path="url(#p06a112a8f4)" style="fill: #e0a458; opacity: 0.76"/>
   </g>
   <g id="patch_64">
    <path d="M 646.217276 242.035781 
L 649.706961 242.035781 
L 649.706961 102.599512 
L 646.217276 102.599512 
z
" clip-path="url(#p06a112a8f4)" style="fill: #e0a458; opacity: 0.76"/>
   </g>
   <g id="patch_65">
    <path d="M 649.706961 242.035781 
L 653.196647 242.035781 
L 653.196647 120.288688 
L 649.706961 120.288688 
z
" clip-path="url(#p06a112a8f4)" style="fill: #e0a458; opacity: 0.76"/>
   </g>
   <g id="patch_66">
    <path d="M 653.196647 242.035781 
L 656.686332 242.035781 
L 656.686332 126.386093 
L 653.196647 126.386093 
z
" clip-path="url(#p06a112a8f4)" style="fill: #e0a458; opacity: 0.76"/>
   </g>
   <g id="patch_67">
    <path d="M 656.686332 242.035781 
L 660.176017 242.035781 
L 660.176017 141.462095 
L 656.686332 141.462095 
z
" clip-path="url(#p06a112a8f4)" style="fill: #e0a458; opacity: 0.76"/>
   </g>
   <g id="patch_68">
    <path d="M 660.176017 242.035781 
L 663.665702 242.035781 
L 663.665702 153.455893 
L 660.176017 153.455893 
z
" clip-path="url(#p06a112a8f4)" style="fill: #e0a458; opacity: 0.76"/>
   </g>
   <g id="patch_69">
    <path d="M 663.665702 242.035781 
L 667.155387 242.035781 
L 667.155387 161.362418 
L 663.665702 161.362418 
z
" clip-path="url(#p06a112a8f4)" style="fill: #e0a458; opacity: 0.76"/>
   </g>
   <g id="patch_70">
    <path d="M 667.155387 242.035781 
L 670.645072 242.035781 
L 670.645072 176.036394 
L 667.155387 176.036394 
z
" clip-path="url(#p06a112a8f4)" style="fill: #e0a458; opacity: 0.76"/>
   </g>
   <g id="patch_71">
    <path d="M 670.645072 242.035781 
L 674.134757 242.035781 
L 674.134757 180.391683 
L 670.645072 180.391683 
z
" clip-path="url(#p06a112a8f4)" style="fill: #e0a458; opacity: 0.76"/>
   </g>
   <g id="patch_72">
    <path d="M 674.134757 242.035781 
L 677.624442 242.035781 
L 677.624442 195.199668 
L 674.134757 195.199668 
z
" clip-path="url(#p06a112a8f4)" style="fill: #e0a458; opacity: 0.76"/>
   </g>
   <g id="patch_73">
    <path d="M 677.624442 242.035781 
L 681.114128 242.035781 
L 681.114128 198.616895 
L 677.624442 198.616895 
z
" clip-path="url(#p06a112a8f4)" style="fill: #e0a458; opacity: 0.76"/>
   </g>
   <g id="patch_74">
    <path d="M 681.114128 242.035781 
L 684.603813 242.035781 
L 684.603813 203.776238 
L 681.114128 203.776238 
z
" clip-path="url(#p06a112a8f4)" style="fill: #e0a458; opacity: 0.76"/>
   </g>
   <g id="patch_75">
    <path d="M 684.603813 242.035781 
L 688.093498 242.035781 
L 688.093498 210.141661 
L 684.603813 210.141661 
z
" clip-path="url(#p06a112a8f4)" style="fill: #e0a458; opacity: 0.76"/>
   </g>
   <g id="patch_76">
    <path d="M 688.093498 242.035781 
L 691.583183 242.035781 
L 691.583183 216.641093 
L 688.093498 216.641093 
z
" clip-path="url(#p06a112a8f4)" style="fill: #e0a458; opacity: 0.76"/>
   </g>
   <g id="patch_77">
    <path d="M 691.583183 242.035781 
L 695.072868 242.035781 
L 695.072868 222.001449 
L 691.583183 222.001449 
z
" clip-path="url(#p06a112a8f4)" style="fill: #e0a458; opacity: 0.76"/>
   </g>
   <g id="patch_78">
    <path d="M 695.072868 242.035781 
L 698.562553 242.035781 
L 698.562553 225.284668 
L 695.072868 225.284668 
z
" clip-path="url(#p06a112a8f4)" style="fill: #e0a458; opacity: 0.76"/>
   </g>
   <g id="patch_79">
    <path d="M 698.562553 242.035781 
L 702.052238 242.035781 
L 702.052238 228.835904 
L 698.562553 228.835904 
z
" clip-path="url(#p06a112a8f4)" style="fill: #e0a458; opacity: 0.76"/>
   </g>
   <g id="patch_80">
    <path d="M 702.052238 242.035781 
L 705.541924 242.035781 
L 705.541924 230.779033 
L 702.052238 230.779033 
z
" clip-path="url(#p06a112a8f4)" style="fill: #e0a458; opacity: 0.76"/>
   </g>
   <g id="patch_81">
    <path d="M 705.541924 242.035781 
L 709.031609 242.035781 
L 709.031609 232.722162 
L 705.541924 232.722162 
z
" clip-path="url(#p06a112a8f4)" style="fill: #e0a458; opacity: 0.76"/>
   </g>
   <g id="patch_82">
    <path d="M 709.031609 242.035781 
L 712.521294 242.035781 
L 712.521294 236.072385 
L 709.031609 236.072385 
z
" clip-path="url(#p06a112a8f4)" style="fill: #e0a458; opacity: 0.76"/>
   </g>
   <g id="patch_83">
    <path d="M 712.521294 242.035781 
L 716.010979 242.035781 
L 716.010979 237.881505 
L 712.521294 237.881505 
z
" clip-path="url(#p06a112a8f4)" style="fill: #e0a458; opacity: 0.76"/>
   </g>
   <g id="patch_84">
    <path d="M 716.010979 242.035781 
L 719.500664 242.035781 
L 719.500664 238.953576 
L 716.010979 238.953576 
z
" clip-path="url(#p06a112a8f4)" style="fill: #e0a458; opacity: 0.76"/>
   </g>
   <g id="patch_85">
    <path d="M 719.500664 242.035781 
L 722.990349 242.035781 
L 722.990349 239.355603 
L 719.500664 239.355603 
z
" clip-path="url(#p06a112a8f4)" style="fill: #e0a458; opacity: 0.76"/>
   </g>
   <g id="patch_86">
    <path d="M 722.990349 242.035781 
L 726.480034 242.035781 
L 726.480034 240.226661 
L 722.990349 240.226661 
z
" clip-path="url(#p06a112a8f4)" style="fill: #e0a458; opacity: 0.76"/>
   </g>
   <g id="patch_87">
    <path d="M 726.480034 242.035781 
L 729.969719 242.035781 
L 729.969719 240.494679 
L 726.480034 240.494679 
z
" clip-path="url(#p06a112a8f4)" style="fill: #e0a458; opacity: 0.76"/>
   </g>
   <g id="patch_88">
    <path d="M 729.969719 242.035781 
L 733.459405 242.035781 
L 733.459405 240.829701 
L 729.969719 240.829701 
z
" clip-path="url(#p06a112a8f4)" style="fill: #e0a458; opacity: 0.76"/>
   </g>
   <g id="patch_89">
    <path d="M 733.459405 242.035781 
L 736.94909 242.035781 
L 736.94909 240.96371 
L 733.459405 240.96371 
z
" clip-path="url(#p06a112a8f4)" style="fill: #e0a458; opacity: 0.76"/>
   </g>
   <g id="patch_90">
    <path d="M 736.94909 242.035781 
L 740.438775 242.035781 
L 740.438775 241.231728 
L 736.94909 241.231728 
z
" clip-path="url(#p06a112a8f4)" style="fill: #e0a458; opacity: 0.76"/>
   </g>
   <g id="patch_91">
    <path d="M 740.438775 242.035781 
L 743.92846 242.035781 
L 743.92846 241.499746 
L 740.438775 241.499746 
z
" clip-path="url(#p06a112a8f4)" style="fill: #e0a458; opacity: 0.76"/>
   </g>
   <g id="patch_92">
    <path d="M 743.92846 242.035781 
L 747.418145 242.035781 
L 747.418145 241.834768 
L 743.92846 241.834768 
z
" clip-path="url(#p06a112a8f4)" style="fill: #e0a458; opacity: 0.76"/>
   </g>
   <g id="patch_93">
    <path d="M 747.418145 242.035781 
L 750.90783 242.035781 
L 750.90783 241.633755 
L 747.418145 241.633755 
z
" clip-path="url(#p06a112a8f4)" style="fill: #e0a458; opacity: 0.76"/>
   </g>
   <g id="patch_94">
    <path d="M 750.90783 242.035781 
L 754.397515 242.035781 
L 754.397515 241.767763 
L 750.90783 241.767763 
z
" clip-path="url(#p06a112a8f4)" style="fill: #e0a458; opacity: 0.76"/>
   </g>
   <g id="patch_95">
    <path d="M 754.397515 242.035781 
L 757.887201 242.035781 
L 757.887201 241.901772 
L 754.397515 241.901772 
z
" clip-path="url(#p06a112a8f4)" style="fill: #e0a458; opacity: 0.76"/>
   </g>
   <g id="patch_96">
    <path d="M 757.887201 242.035781 
L 761.376886 242.035781 
L 761.376886 241.968777 
L 757.887201 241.968777 
z
" clip-path="url(#p06a112a8f4)" style="fill: #e0a458; opacity: 0.76"/>
   </g>
   <g id="matplotlib.axis_3">
    <g id="xtick_8">
     <g id="line2d_30">
      <path d="M 439.588007 242.035781 
L 439.588007 22.318125 
" clip-path="url(#p06a112a8f4)" style="fill: none; stroke: #b0b0b0; stroke-width: 0.8; stroke-linecap: square"/>
     </g>
     <g id="line2d_31">
      <g>
       <use xlink:href="#m15e449dd4b" x="439.588007" y="242.035781" style="stroke: #000000; stroke-width: 0.8"/>
      </g>
     </g>
     <g id="text_18">
      <!-- 0.6 -->
      <g transform="translate(431.636444 256.633438) scale(0.1 -0.1)">
       <defs>
        <path id="DejaVuSans-19" d="M 2113 2584 
Q 1688 2584 1439 2293 
Q 1191 2003 1191 1497 
Q 1191 994 1439 701 
Q 1688 409 2113 409 
Q 2538 409 2786 701 
Q 3034 994 3034 1497 
Q 3034 2003 2786 2293 
Q 2538 2584 2113 2584 
z
M 3366 4563 
L 3366 3988 
Q 3128 4100 2886 4159 
Q 2644 4219 2406 4219 
Q 1781 4219 1451 3797 
Q 1122 3375 1075 2522 
Q 1259 2794 1537 2939 
Q 1816 3084 2150 3084 
Q 2853 3084 3261 2657 
Q 3669 2231 3669 1497 
Q 3669 778 3244 343 
Q 2819 -91 2113 -91 
Q 1303 -91 875 529 
Q 447 1150 447 2328 
Q 447 3434 972 4092 
Q 1497 4750 2381 4750 
Q 2619 4750 2861 4703 
Q 3103 4656 3366 4563 
z
" transform="scale(0.015625)"/>
       </defs>
       <use xlink:href="#DejaVuSans-13"/>
       <use xlink:href="#DejaVuSans-11" transform="translate(63.625 0)"/>
       <use xlink:href="#DejaVuSans-19" transform="translate(95.40625 0)"/>
      </g>
     </g>
    </g>
    <g id="xtick_9">
     <g id="line2d_32">
      <path d="M 479.044572 242.035781 
L 479.044572 22.318125 
" clip-path="url(#p06a112a8f4)" style="fill: none; stroke: #b0b0b0; stroke-width: 0.8; stroke-linecap: square"/>
     </g>
     <g id="line2d_33">
      <g>
       <use xlink:href="#m15e449dd4b" x="479.044572" y="242.035781" style="stroke: #000000; stroke-width: 0.8"/>
      </g>
     </g>
     <g id="text_19">
      <!-- 0.8 -->
      <g transform="translate(471.09301 256.633438) scale(0.1 -0.1)">
       <defs>
        <path id="DejaVuSans-1b" d="M 2034 2216 
Q 1584 2216 1326 1975 
Q 1069 1734 1069 1313 
Q 1069 891 1326 650 
Q 1584 409 2034 409 
Q 2484 409 2743 651 
Q 3003 894 3003 1313 
Q 3003 1734 2745 1975 
Q 2488 2216 2034 2216 
z
M 1403 2484 
Q 997 2584 770 2862 
Q 544 3141 544 3541 
Q 544 4100 942 4425 
Q 1341 4750 2034 4750 
Q 2731 4750 3128 4425 
Q 3525 4100 3525 3541 
Q 3525 3141 3298 2862 
Q 3072 2584 2669 2484 
Q 3125 2378 3379 2068 
Q 3634 1759 3634 1313 
Q 3634 634 3220 271 
Q 2806 -91 2034 -91 
Q 1263 -91 848 271 
Q 434 634 434 1313 
Q 434 1759 690 2068 
Q 947 2378 1403 2484 
z
M 1172 3481 
Q 1172 3119 1398 2916 
Q 1625 2713 2034 2713 
Q 2441 2713 2670 2916 
Q 2900 3119 2900 3481 
Q 2900 3844 2670 4047 
Q 2441 4250 2034 4250 
Q 1625 4250 1398 4047 
Q 1172 3844 1172 3481 
z
" transform="scale(0.015625)"/>
       </defs>
       <use xlink:href="#DejaVuSans-13"/>
       <use xlink:href="#DejaVuSans-11" transform="translate(63.625 0)"/>
       <use xlink:href="#DejaVuSans-1b" transform="translate(95.40625 0)"/>
      </g>
     </g>
    </g>
    <g id="xtick_10">
     <g id="line2d_34">
      <path d="M 518.501138 242.035781 
L 518.501138 22.318125 
" clip-path="url(#p06a112a8f4)" style="fill: none; stroke: #b0b0b0; stroke-width: 0.8; stroke-linecap: square"/>
     </g>
     <g id="line2d_35">
      <g>
       <use xlink:href="#m15e449dd4b" x="518.501138" y="242.035781" style="stroke: #000000; stroke-width: 0.8"/>
      </g>
     </g>
     <g id="text_20">
      <!-- 1.0 -->
      <g transform="translate(510.549575 256.633438) scale(0.1 -0.1)">
       <use xlink:href="#DejaVuSans-14"/>
       <use xlink:href="#DejaVuSans-11" transform="translate(63.625 0)"/>
       <use xlink:href="#DejaVuSans-13" transform="translate(95.40625 0)"/>
      </g>
     </g>
    </g>
    <g id="xtick_11">
     <g id="line2d_36">
      <path d="M 557.957703 242.035781 
L 557.957703 22.318125 
" clip-path="url(#p06a112a8f4)" style="fill: none; stroke: #b0b0b0; stroke-width: 0.8; stroke-linecap: square"/>
     </g>
     <g id="line2d_37">
      <g>
       <use xlink:href="#m15e449dd4b" x="557.957703" y="242.035781" style="stroke: #000000; stroke-width: 0.8"/>
      </g>
     </g>
     <g id="text_21">
      <!-- 1.2 -->
      <g transform="translate(550.00614 256.633438) scale(0.1 -0.1)">
       <use xlink:href="#DejaVuSans-14"/>
       <use xlink:href="#DejaVuSans-11" transform="translate(63.625 0)"/>
       <use xlink:href="#DejaVuSans-15" transform="translate(95.40625 0)"/>
      </g>
     </g>
    </g>
    <g id="xtick_12">
     <g id="line2d_38">
      <path d="M 597.414268 242.035781 
L 597.414268 22.318125 
" clip-path="url(#p06a112a8f4)" style="fill: none; stroke: #b0b0b0; stroke-width: 0.8; stroke-linecap: square"/>
     </g>
     <g id="line2d_39">
      <g>
       <use xlink:href="#m15e449dd4b" x="597.414268" y="242.035781" style="stroke: #000000; stroke-width: 0.8"/>
      </g>
     </g>
     <g id="text_22">
      <!-- 1.4 -->
      <g transform="translate(589.462706 256.633438) scale(0.1 -0.1)">
       <defs>
        <path id="DejaVuSans-17" d="M 2419 4116 
L 825 1625 
L 2419 1625 
L 2419 4116 
z
M 2253 4666 
L 3047 4666 
L 3047 1625 
L 3713 1625 
L 3713 1100 
L 3047 1100 
L 3047 0 
L 2419 0 
L 2419 1100 
L 313 1100 
L 313 1709 
L 2253 4666 
z
" transform="scale(0.015625)"/>
       </defs>
       <use xlink:href="#DejaVuSans-14"/>
       <use xlink:href="#DejaVuSans-11" transform="translate(63.625 0)"/>
       <use xlink:href="#DejaVuSans-17" transform="translate(95.40625 0)"/>
      </g>
     </g>
    </g>
    <g id="xtick_13">
     <g id="line2d_40">
      <path d="M 636.870834 242.035781 
L 636.870834 22.318125 
" clip-path="url(#p06a112a8f4)" style="fill: none; stroke: #b0b0b0; stroke-width: 0.8; stroke-linecap: square"/>
     </g>
     <g id="line2d_41">
      <g>
       <use xlink:href="#m15e449dd4b" x="636.870834" y="242.035781" style="stroke: #000000; stroke-width: 0.8"/>
      </g>
     </g>
     <g id="text_23">
      <!-- 1.6 -->
      <g transform="translate(628.919271 256.633438) scale(0.1 -0.1)">
       <use xlink:href="#DejaVuSans-14"/>
       <use xlink:href="#DejaVuSans-11" transform="translate(63.625 0)"/>
       <use xlink:href="#DejaVuSans-19" transform="translate(95.40625 0)"/>
      </g>
     </g>
    </g>
    <g id="xtick_14">
     <g id="line2d_42">
      <path d="M 676.327399 242.035781 
L 676.327399 22.318125 
" clip-path="url(#p06a112a8f4)" style="fill: none; stroke: #b0b0b0; stroke-width: 0.8; stroke-linecap: square"/>
     </g>
     <g id="line2d_43">
      <g>
       <use xlink:href="#m15e449dd4b" x="676.327399" y="242.035781" style="stroke: #000000; stroke-width: 0.8"/>
      </g>
     </g>
     <g id="text_24">
      <!-- 1.8 -->
      <g transform="translate(668.375837 256.633438) scale(0.1 -0.1)">
       <use xlink:href="#DejaVuSans-14"/>
       <use xlink:href="#DejaVuSans-11" transform="translate(63.625 0)"/>
       <use xlink:href="#DejaVuSans-1b" transform="translate(95.40625 0)"/>
      </g>
     </g>
    </g>
    <g id="xtick_15">
     <g id="line2d_44">
      <path d="M 715.783965 242.035781 
L 715.783965 22.318125 
" clip-path="url(#p06a112a8f4)" style="fill: none; stroke: #b0b0b0; stroke-width: 0.8; stroke-linecap: square"/>
     </g>
     <g id="line2d_45">
      <g>
       <use xlink:href="#m15e449dd4b" x="715.783965" y="242.035781" style="stroke: #000000; stroke-width: 0.8"/>
      </g>
     </g>
     <g id="text_25">
      <!-- 2.0 -->
      <g transform="translate(707.832402 256.633438) scale(0.1 -0.1)">
       <use xlink:href="#DejaVuSans-15"/>
       <use xlink:href="#DejaVuSans-11" transform="translate(63.625 0)"/>
       <use xlink:href="#DejaVuSans-13" transform="translate(95.40625 0)"/>
      </g>
     </g>
    </g>
    <g id="xtick_16">
     <g id="line2d_46">
      <path d="M 755.24053 242.035781 
L 755.24053 22.318125 
" clip-path="url(#p06a112a8f4)" style="fill: none; stroke: #b0b0b0; stroke-width: 0.8; stroke-linecap: square"/>
     </g>
     <g id="line2d_47">
      <g>
       <use xlink:href="#m15e449dd4b" x="755.24053" y="242.035781" style="stroke: #000000; stroke-width: 0.8"/>
      </g>
     </g>
     <g id="text_26">
      <!-- 2.2 -->
      <g transform="translate(747.288968 256.633438) scale(0.1 -0.1)">
       <use xlink:href="#DejaVuSans-15"/>
       <use xlink:href="#DejaVuSans-11" transform="translate(63.625 0)"/>
       <use xlink:href="#DejaVuSans-15" transform="translate(95.40625 0)"/>
      </g>
     </g>
    </g>
    <g id="text_27">
     <!-- X(T) -->
     <g transform="translate(593.960586 270.633438) scale(0.1 -0.1)">
      <defs>
       <path id="DejaVuSans-37" d="M -19 4666 
L 3928 4666 
L 3928 4134 
L 2272 4134 
L 2272 0 
L 1638 0 
L 1638 4134 
L -19 4134 
L -19 4666 
z
" transform="scale(0.015625)"/>
      </defs>
      <use xlink:href="#DejaVuSans-3b"/>
      <use xlink:href="#DejaVuSans-b" transform="translate(68.5 0)"/>
      <use xlink:href="#DejaVuSans-37" transform="translate(107.515625 0)"/>
      <use xlink:href="#DejaVuSans-c" transform="translate(168.59375 0)"/>
     </g>
    </g>
   </g>
   <g id="matplotlib.axis_4">
    <g id="ytick_7">
     <g id="line2d_48">
      <path d="M 431.601641 242.035781 
L 777.080469 242.035781 
" clip-path="url(#p06a112a8f4)" style="fill: none; stroke: #b0b0b0; stroke-width: 0.8; stroke-linecap: square"/>
     </g>
     <g id="line2d_49">
      <g>
       <use xlink:href="#ma20ce7ca23" x="431.601641" y="242.035781" style="stroke: #000000; stroke-width: 0.8"/>
      </g>
     </g>
     <g id="text_28">
      <!-- 0.0 -->
      <g transform="translate(408.698516 245.834609) scale(0.1 -0.1)">
       <use xlink:href="#DejaVuSans-13"/>
       <use xlink:href="#DejaVuSans-11" transform="translate(63.625 0)"/>
       <use xlink:href="#DejaVuSans-13" transform="translate(95.40625 0)"/>
      </g>
     </g>
    </g>
    <g id="ytick_8">
     <g id="line2d_50">
      <path d="M 431.601641 194.6268 
L 777.080469 194.6268 
" clip-path="url(#p06a112a8f4)" style="fill: none; stroke: #b0b0b0; stroke-width: 0.8; stroke-linecap: square"/>
     </g>
     <g id="line2d_51">
      <g>
       <use xlink:href="#ma20ce7ca23" x="431.601641" y="194.6268" style="stroke: #000000; stroke-width: 0.8"/>
      </g>
     </g>
     <g id="text_29">
      <!-- 0.5 -->
      <g transform="translate(408.698516 198.425628) scale(0.1 -0.1)">
       <use xlink:href="#DejaVuSans-13"/>
       <use xlink:href="#DejaVuSans-11" transform="translate(63.625 0)"/>
       <use xlink:href="#DejaVuSans-18" transform="translate(95.40625 0)"/>
      </g>
     </g>
    </g>
    <g id="ytick_9">
     <g id="line2d_52">
      <path d="M 431.601641 147.217818 
L 777.080469 147.217818 
" clip-path="url(#p06a112a8f4)" style="fill: none; stroke: #b0b0b0; stroke-width: 0.8; stroke-linecap: square"/>
     </g>
     <g id="line2d_53">
      <g>
       <use xlink:href="#ma20ce7ca23" x="431.601641" y="147.217818" style="stroke: #000000; stroke-width: 0.8"/>
      </g>
     </g>
     <g id="text_30">
      <!-- 1.0 -->
      <g transform="translate(408.698516 151.016646) scale(0.1 -0.1)">
       <use xlink:href="#DejaVuSans-14"/>
       <use xlink:href="#DejaVuSans-11" transform="translate(63.625 0)"/>
       <use xlink:href="#DejaVuSans-13" transform="translate(95.40625 0)"/>
      </g>
     </g>
    </g>
    <g id="ytick_10">
     <g id="line2d_54">
      <path d="M 431.601641 99.808837 
L 777.080469 99.808837 
" clip-path="url(#p06a112a8f4)" style="fill: none; stroke: #b0b0b0; stroke-width: 0.8; stroke-linecap: square"/>
     </g>
     <g id="line2d_55">
      <g>
       <use xlink:href="#ma20ce7ca23" x="431.601641" y="99.808837" style="stroke: #000000; stroke-width: 0.8"/>
      </g>
     </g>
     <g id="text_31">
      <!-- 1.5 -->
      <g transform="translate(408.698516 103.607665) scale(0.1 -0.1)">
       <use xlink:href="#DejaVuSans-14"/>
       <use xlink:href="#DejaVuSans-11" transform="translate(63.625 0)"/>
       <use xlink:href="#DejaVuSans-18" transform="translate(95.40625 0)"/>
      </g>
     </g>
    </g>
    <g id="ytick_11">
     <g id="line2d_56">
      <path d="M 431.601641 52.399855 
L 777.080469 52.399855 
" clip-path="url(#p06a112a8f4)" style="fill: none; stroke: #b0b0b0; stroke-width: 0.8; stroke-linecap: square"/>
     </g>
     <g id="line2d_57">
      <g>
       <use xlink:href="#ma20ce7ca23" x="431.601641" y="52.399855" style="stroke: #000000; stroke-width: 0.8"/>
      </g>
     </g>
     <g id="text_32">
      <!-- 2.0 -->
      <g transform="translate(408.698516 56.198683) scale(0.1 -0.1)">
       <use xlink:href="#DejaVuSans-15"/>
       <use xlink:href="#DejaVuSans-11" transform="translate(63.625 0)"/>
       <use xlink:href="#DejaVuSans-13" transform="translate(95.40625 0)"/>
      </g>
     </g>
    </g>
   </g>
   <g id="line2d_58">
    <path d="M 502.046444 240.364344 
L 506.566071 239.597828 
L 510.520745 238.686328 
L 513.910465 237.679323 
L 517.300185 236.418512 
L 520.124952 235.139103 
L 522.949719 233.619156 
L 525.774486 231.82593 
L 528.599252 229.725041 
L 531.424019 227.281018 
L 533.683833 225.054645 
L 535.943646 222.567547 
L 538.20346 219.802081 
L 540.463273 216.741505 
L 542.723087 213.370375 
L 545.547853 208.699056 
L 548.37262 203.499384 
L 551.197387 197.756289 
L 554.022154 191.462923 
L 556.846921 184.622057 
L 559.671687 177.247377 
L 563.061408 167.730245 
L 566.451128 157.551273 
L 570.405801 144.97063 
L 575.490382 128.000755 
L 586.789449 89.916263 
L 590.744122 77.562512 
L 593.568889 69.381622 
L 596.393656 61.882527 
L 598.653469 56.456207 
L 600.913283 51.602182 
L 603.173096 47.37327 
L 604.867956 44.640218 
L 606.562816 42.302491 
L 608.257677 40.37496 
L 609.952537 38.869978 
L 611.082443 38.106307 
L 612.21235 37.537001 
L 613.342257 37.163699 
L 614.472164 36.987479 
L 615.60207 37.008852 
L 616.731977 37.227755 
L 617.861884 37.643555 
L 618.99179 38.255052 
L 620.121697 39.060485 
L 621.816557 40.627049 
L 623.511417 42.614541 
L 625.206277 45.010238 
L 626.901137 47.798916 
L 628.595998 50.963015 
L 630.855811 55.731441 
L 633.115624 61.079986 
L 635.375438 66.951417 
L 638.200205 74.932124 
L 641.589925 85.281906 
L 645.544598 98.135924 
L 652.324039 121.134996 
L 659.103479 143.922916 
L 663.623106 158.305241 
L 667.012826 168.439416 
L 670.402546 177.905838 
L 673.792267 186.637363 
L 676.617033 193.322266 
L 679.4418 199.457814 
L 682.266567 205.04413 
L 685.091334 210.090562 
L 687.916101 214.614272 
L 690.740867 218.63878 
L 693.565634 222.19255 
L 696.390401 225.307631 
L 699.215168 228.018403 
L 702.039935 230.360455 
L 704.864701 232.369608 
L 707.689468 234.081087 
L 710.514235 235.528857 
L 713.339002 236.745103 
L 716.728722 237.9411 
L 720.118442 238.894109 
L 724.073116 239.754584 
L 727.462836 240.318112 
L 727.462836 240.318112 
" clip-path="url(#p06a112a8f4)" style="fill: none; stroke: #1d3557; stroke-width: 2; stroke-linecap: square"/>
   </g>
   <g id="patch_97">
    <path d="M 431.601641 242.035781 
L 431.601641 22.318125 
" style="fill: none; stroke: #000000; stroke-width: 0.8; stroke-linejoin: miter; stroke-linecap: square"/>
   </g>
   <g id="patch_98">
    <path d="M 431.601641 242.035781 
L 777.080469 242.035781 
" style="fill: none; stroke: #000000; stroke-width: 0.8; stroke-linejoin: miter; stroke-linecap: square"/>
   </g>
   <g id="text_33">
    <!-- OU terminal law -->
    <g transform="translate(556.09918 16.318125) scale(0.12 -0.12)">
     <defs>
      <path id="DejaVuSans-55" d="M 2631 2963 
Q 2534 3019 2420 3045 
Q 2306 3072 2169 3072 
Q 1681 3072 1420 2755 
Q 1159 2438 1159 1844 
L 1159 0 
L 581 0 
L 581 3500 
L 1159 3500 
L 1159 2956 
Q 1341 3275 1631 3429 
Q 1922 3584 2338 3584 
Q 2397 3584 2469 3576 
Q 2541 3569 2628 3553 
L 2631 2963 
z
" transform="scale(0.015625)"/>
      <path id="DejaVuSans-4c" d="M 603 3500 
L 1178 3500 
L 1178 0 
L 603 0 
L 603 3500 
z
M 603 4863 
L 1178 4863 
L 1178 4134 
L 603 4134 
L 603 4863 
z
" transform="scale(0.015625)"/>
      <path id="DejaVuSans-5a" d="M 269 3500 
L 844 3500 
L 1563 769 
L 2278 3500 
L 2956 3500 
L 3675 769 
L 4391 3500 
L 4966 3500 
L 4050 0 
L 3372 0 
L 2619 2869 
L 1863 0 
L 1184 0 
L 269 3500 
z
" transform="scale(0.015625)"/>
     </defs>
     <use xlink:href="#DejaVuSans-32"/>
     <use xlink:href="#DejaVuSans-38" transform="translate(78.71875 0)"/>
     <use xlink:href="#DejaVuSans-3" transform="translate(151.90625 0)"/>
     <use xlink:href="#DejaVuSans-57" transform="translate(183.6875 0)"/>
     <use xlink:href="#DejaVuSans-48" transform="translate(222.890625 0)"/>
     <use xlink:href="#DejaVuSans-55" transform="translate(284.421875 0)"/>
     <use xlink:href="#DejaVuSans-50" transform="translate(323.78125 0)"/>
     <use xlink:href="#DejaVuSans-4c" transform="translate(421.1875 0)"/>
     <use xlink:href="#DejaVuSans-51" transform="translate(448.96875 0)"/>
     <use xlink:href="#DejaVuSans-44" transform="translate(512.34375 0)"/>
     <use xlink:href="#DejaVuSans-4f" transform="translate(573.625 0)"/>
     <use xlink:href="#DejaVuSans-3" transform="translate(601.40625 0)"/>
     <use xlink:href="#DejaVuSans-4f" transform="translate(633.1875 0)"/>
     <use xlink:href="#DejaVuSans-44" transform="translate(660.96875 0)"/>
     <use xlink:href="#DejaVuSans-5a" transform="translate(722.25 0)"/>
    </g>
   </g>
   <g id="legend_2">
    <g id="patch_99">
     <path d="M 648.175781 60.319687 
L 770.080469 60.319687 
Q 772.080469 60.319687 772.080469 58.319687 
L 772.080469 29.318125 
Q 772.080469 27.318125 770.080469 27.318125 
L 648.175781 27.318125 
Q 646.175781 27.318125 646.175781 29.318125 
L 646.175781 58.319687 
Q 646.175781 60.319687 648.175781 60.319687 
z
" style="fill: #ffffff; opacity: 0.8; stroke: #cccccc; stroke-linejoin: miter"/>
    </g>
    <g id="patch_100">
     <path d="M 650.175781 38.916562 
L 670.175781 38.916562 
L 670.175781 31.916562 
L 650.175781 31.916562 
z
" style="fill: #e0a458; opacity: 0.76"/>
    </g>
    <g id="text_34">
     <!-- Monte Carlo -->
     <g transform="translate(678.175781 38.916562) scale(0.1 -0.1)">
      <defs>
       <path id="DejaVuSans-30" d="M 628 4666 
L 1569 4666 
L 2759 1491 
L 3956 4666 
L 4897 4666 
L 4897 0 
L 4281 0 
L 4281 4097 
L 3078 897 
L 2444 897 
L 1241 4097 
L 1241 0 
L 628 0 
L 628 4666 
z
" transform="scale(0.015625)"/>
       <path id="DejaVuSans-52" d="M 1959 3097 
Q 1497 3097 1228 2736 
Q 959 2375 959 1747 
Q 959 1119 1226 758 
Q 1494 397 1959 397 
Q 2419 397 2687 759 
Q 2956 1122 2956 1747 
Q 2956 2369 2687 2733 
Q 2419 3097 1959 3097 
z
M 1959 3584 
Q 2709 3584 3137 3096 
Q 3566 2609 3566 1747 
Q 3566 888 3137 398 
Q 2709 -91 1959 -91 
Q 1206 -91 779 398 
Q 353 888 353 1747 
Q 353 2609 779 3096 
Q 1206 3584 1959 3584 
z
" transform="scale(0.015625)"/>
       <path id="DejaVuSans-26" d="M 4122 4306 
L 4122 3641 
Q 3803 3938 3442 4084 
Q 3081 4231 2675 4231 
Q 1875 4231 1450 3742 
Q 1025 3253 1025 2328 
Q 1025 1406 1450 917 
Q 1875 428 2675 428 
Q 3081 428 3442 575 
Q 3803 722 4122 1019 
L 4122 359 
Q 3791 134 3420 21 
Q 3050 -91 2638 -91 
Q 1578 -91 968 557 
Q 359 1206 359 2328 
Q 359 3453 968 4101 
Q 1578 4750 2638 4750 
Q 3056 4750 3426 4639 
Q 3797 4528 4122 4306 
z
" transform="scale(0.015625)"/>
      </defs>
      <use xlink:href="#DejaVuSans-30"/>
      <use xlink:href="#DejaVuSans-52" transform="translate(86.28125 0)"/>
      <use xlink:href="#DejaVuSans-51" transform="translate(147.46875 0)"/>
      <use xlink:href="#DejaVuSans-57" transform="translate(210.84375 0)"/>
      <use xlink:href="#DejaVuSans-48" transform="translate(250.046875 0)"/>
      <use xlink:href="#DejaVuSans-3" transform="translate(311.578125 0)"/>
      <use xlink:href="#DejaVuSans-26" transform="translate(343.359375 0)"/>
      <use xlink:href="#DejaVuSans-44" transform="translate(413.1875 0)"/>
      <use xlink:href="#DejaVuSans-55" transform="translate(474.46875 0)"/>
      <use xlink:href="#DejaVuSans-4f" transform="translate(515.578125 0)"/>
      <use xlink:href="#DejaVuSans-52" transform="translate(543.359375 0)"/>
     </g>
    </g>
    <g id="line2d_59">
     <path d="M 650.175781 50.417344 
L 660.175781 50.417344 
L 670.175781 50.417344 
" style="fill: none; stroke: #1d3557; stroke-width: 2; stroke-linecap: square"/>
    </g>
    <g id="text_35">
     <!-- finite-time normal -->
     <g transform="translate(678.175781 53.917344) scale(0.1 -0.1)">
      <defs>
       <path id="DejaVuSans-13af" d="M 3431 3500 
L 3431 0 
L 2853 0 
L 2853 3053 
L 1275 3053 
L 1275 0 
L 697 0 
L 697 3053 
L 147 3053 
L 147 3500 
L 697 3500 
L 697 3744 
Q 697 4316 967 4589 
Q 1238 4863 1797 4863 
L 2375 4863 
L 2375 4384 
L 1825 4384 
Q 1516 4384 1395 4259 
Q 1275 4134 1275 3809 
L 1275 3500 
L 3431 3500 
z
M 2853 4856 
L 3431 4856 
L 3431 4128 
L 2853 4128 
L 2853 4856 
z
" transform="scale(0.015625)"/>
       <path id="DejaVuSans-10" d="M 313 2009 
L 1997 2009 
L 1997 1497 
L 313 1497 
L 313 2009 
z
" transform="scale(0.015625)"/>
      </defs>
      <use xlink:href="#DejaVuSans-13af"/>
      <use xlink:href="#DejaVuSans-51" transform="translate(62.984375 0)"/>
      <use xlink:href="#DejaVuSans-4c" transform="translate(126.359375 0)"/>
      <use xlink:href="#DejaVuSans-57" transform="translate(154.140625 0)"/>
      <use xlink:href="#DejaVuSans-48" transform="translate(193.34375 0)"/>
      <use xlink:href="#DejaVuSans-10" transform="translate(254.875 0)"/>
      <use xlink:href="#DejaVuSans-57" transform="translate(290.953125 0)"/>
      <use xlink:href="#DejaVuSans-4c" transform="translate(330.15625 0)"/>
      <use xlink:href="#DejaVuSans-50" transform="translate(357.9375 0)"/>
      <use xlink:href="#DejaVuSans-48" transform="translate(455.34375 0)"/>
      <use xlink:href="#DejaVuSans-3" transform="translate(516.875 0)"/>
      <use xlink:href="#DejaVuSans-51" transform="translate(548.65625 0)"/>
      <use xlink:href="#DejaVuSans-52" transform="translate(612.03125 0)"/>
      <use xlink:href="#DejaVuSans-55" transform="translate(673.21875 0)"/>
      <use xlink:href="#DejaVuSans-50" transform="translate(712.578125 0)"/>
      <use xlink:href="#DejaVuSans-44" transform="translate(809.984375 0)"/>
      <use xlink:href="#DejaVuSans-4f" transform="translate(871.265625 0)"/>
     </g>
    </g>
   </g>
  </g>
 </g>
 <defs>
  <clipPath id="pe0ccd50bfe">
   <rect x="52.482813" y="22.318125" width="345.478828" height="219.717656"/>
  </clipPath>
  <clipPath id="p06a112a8f4">
   <rect x="431.601641" y="22.318125" width="345.478828" height="219.717656"/>
  </clipPath>
 </defs>
</svg>
